{"glyphs":{"0":{"ha":865,"x_min":68,"x_max":797,"o":"m 432 1060 q 690 953 583 1060 q 797 696 797 846 l 797 365 q 690 107 797 214 q 432 0 583 0 q 175 107 282 0 q 68 365 68 214 l 68 696 q 175 953 68 846 q 432 1060 282 1060 m 432 890 q 292 832 350 890 q 234 692 234 774 l 234 369 q 292 229 234 287 q 432 170 350 170 q 572 229 514 170 q 631 369 631 287 l 631 692 q 572 832 631 774 q 432 890 514 890 z "},"1":{"ha":467,"x_min":7,"x_max":366,"o":"m 366 82 q 342 24 366 48 q 283 0 317 0 l 282 0 q 224 24 248 0 q 200 82 200 48 l 200 894 l 89 894 q 31 918 56 894 q 7 976 7 942 l 7 977 q 31 1036 7 1011 q 89 1059 56 1059 l 283 1059 q 342 1036 317 1059 q 366 977 366 1011 l 366 82 z "},"2":{"ha":830,"x_min":68,"x_max":762,"o":"m 456 1059 q 668 972 581 1059 q 755 761 755 884 q 669 564 755 652 q 488 431 618 511 q 313 307 359 351 q 239 166 239 233 l 680 166 q 738 142 715 166 q 762 83 762 117 l 762 82 q 738 24 762 47 q 680 0 715 0 l 150 0 q 92 24 117 0 q 68 82 68 47 l 68 146 q 154 372 68 271 q 338 520 213 441 q 515 639 489 618 q 589 761 589 701 q 551 854 589 816 q 456 894 511 894 l 184 894 q 125 918 150 894 q 101 976 101 942 l 101 977 q 125 1036 101 1011 q 184 1059 150 1059 l 456 1059 z "},"3":{"ha":702,"x_min":47,"x_max":634,"o":"m 319 1059 q 531 972 443 1059 q 618 761 618 884 q 531 548 618 621 q 634 314 634 469 q 542 92 634 184 q 319 0 450 0 l 130 0 q 72 24 96 0 q 47 82 47 47 l 47 83 q 72 142 47 117 q 130 166 96 166 l 319 166 q 425 209 381 166 q 467 314 467 252 q 425 419 467 376 q 319 463 381 463 l 159 463 q 101 487 125 463 q 77 545 77 511 l 77 546 q 101 604 77 580 q 159 628 125 628 l 319 629 q 413 667 374 629 q 452 761 452 705 q 413 854 452 816 q 319 894 374 894 l 130 894 q 72 918 96 894 q 47 976 47 942 l 47 977 q 72 1036 47 1011 q 130 1059 96 1059 l 319 1059 z "},"4":{"ha":850,"x_min":47,"x_max":834,"o":"m 418 1017 q 490 1059 441 1059 l 592 1059 q 650 1036 625 1059 q 674 977 674 1011 l 674 363 l 752 363 q 810 338 786 363 q 834 280 834 314 l 834 279 q 810 221 834 245 q 752 197 786 197 l 674 197 l 674 82 q 650 24 674 47 q 592 0 625 0 l 590 0 q 532 24 557 0 q 508 82 508 47 l 508 197 l 130 197 q 72 221 96 197 q 47 279 47 244 l 47 326 q 58 366 47 348 l 418 1017 m 508 363 l 508 837 l 245 363 l 508 363 z "},"5":{"ha":796,"x_min":81,"x_max":749,"o":"m 163 463 q 106 487 130 463 q 81 545 81 510 l 81 977 q 106 1036 81 1011 q 163 1059 130 1059 l 577 1059 q 635 1036 610 1059 q 659 977 659 1011 l 659 976 q 635 918 659 942 q 577 894 610 894 l 248 894 l 248 628 l 434 628 q 656 536 564 628 q 749 314 749 444 q 656 92 749 184 q 434 0 564 0 l 163 0 q 106 24 130 0 q 81 82 81 47 l 81 83 q 106 142 81 117 q 163 166 130 166 l 434 166 q 539 209 496 166 q 582 314 582 252 q 539 419 582 376 q 434 463 496 463 l 163 463 z "},"6":{"ha":853,"x_min":68,"x_max":785,"o":"m 234 463 l 234 314 q 277 209 234 252 q 382 166 321 166 l 471 166 q 576 209 532 166 q 618 314 618 252 q 576 419 618 376 q 471 463 532 463 l 234 463 m 382 0 q 160 92 252 0 q 68 314 68 184 l 68 745 q 160 967 68 876 q 382 1059 252 1059 l 589 1059 q 647 1036 623 1059 q 671 977 671 1011 l 671 976 q 647 918 671 942 q 589 894 623 894 l 382 894 q 277 850 321 894 q 234 745 234 807 l 234 628 l 471 628 q 693 536 601 628 q 785 314 785 444 q 693 92 785 184 q 471 0 601 0 l 382 0 z "},"7":{"ha":651,"x_min":7,"x_max":631,"o":"m 359 79 q 336 24 359 48 q 277 0 311 0 l 276 0 q 218 24 241 0 q 194 85 194 47 l 438 894 l 89 894 q 31 918 56 894 q 7 976 7 942 l 7 977 q 31 1036 7 1011 q 89 1059 56 1059 l 549 1059 q 607 1036 583 1059 q 631 975 631 1011 l 359 79 z "},"8":{"ha":865,"x_min":68,"x_max":798,"o":"m 484 1059 q 694 972 607 1059 q 783 761 783 884 q 695 548 783 621 q 798 314 798 469 q 705 92 798 184 q 484 0 614 0 l 382 0 q 160 92 252 0 q 68 314 68 184 q 171 548 68 469 q 83 761 83 621 q 171 972 83 884 q 382 1059 258 1059 l 484 1059 m 484 166 q 588 209 545 166 q 631 314 631 252 q 588 419 631 376 q 484 463 545 463 l 382 463 q 277 419 321 463 q 234 314 234 376 q 277 209 234 252 q 382 166 321 166 l 484 166 m 484 629 q 577 667 538 629 q 616 761 616 705 q 577 854 616 816 q 484 894 538 894 l 382 894 q 288 854 328 894 q 250 761 250 816 q 288 667 250 705 q 382 629 327 629 l 484 629 z "},"9":{"ha":853,"x_min":68,"x_max":785,"o":"m 619 597 l 619 745 q 576 850 619 807 q 471 894 532 894 l 382 894 q 277 850 321 894 q 234 745 234 807 q 277 640 234 684 q 382 597 321 597 l 619 597 m 471 1059 q 693 967 601 1059 q 785 745 785 876 l 785 314 q 693 92 785 184 q 471 0 601 0 l 205 0 q 146 24 171 0 q 123 82 123 48 l 123 83 q 146 142 123 117 q 205 166 171 166 l 471 166 q 576 209 532 166 q 618 314 618 252 l 619 431 l 382 431 q 160 524 252 431 q 68 745 68 616 q 160 967 68 876 q 382 1059 252 1059 l 471 1059 z "},"\u0000":{"ha":176,"x_min":0,"x_max":0,"o":""},"\u001d":{"ha":176,"x_min":0,"x_max":0,"o":""}," ":{"ha":414,"x_min":0,"x_max":0,"o":""}," ":{"ha":414,"x_min":0,"x_max":0,"o":""},"!":{"ha":326,"x_min":68,"x_max":258,"o":"m 245 575 l 222 267 l 103 267 l 79 575 l 79 977 q 104 1036 79 1011 q 161 1059 128 1059 l 163 1059 q 221 1036 197 1059 q 245 977 245 1011 l 245 575 m 163 0 q 96 28 123 0 q 68 95 68 56 q 96 161 68 134 q 163 189 123 189 q 229 161 201 189 q 258 95 258 134 q 229 28 258 55 q 163 0 201 0 z "},"\"":{"ha":448,"x_min":34,"x_max":414,"o":"m 200 894 l 176 669 l 58 669 l 34 894 l 34 978 q 58 1036 34 1012 q 116 1060 83 1060 l 118 1060 q 176 1036 151 1060 q 200 978 200 1012 l 200 894 m 414 894 l 390 669 l 273 669 l 248 894 l 248 978 q 273 1036 248 1012 q 330 1060 297 1060 l 332 1060 q 390 1036 366 1060 q 414 978 414 1012 l 414 894 z "},"#":{"ha":958,"x_min":10,"x_max":947,"o":"m 226 448 l 258 606 l 139 606 q 86 628 109 606 q 64 681 64 650 l 64 682 q 86 735 64 713 q 139 758 109 758 l 288 758 l 322 924 q 355 972 328 955 q 396 984 374 984 q 413 983 404 984 l 414 982 q 460 951 441 977 q 472 910 472 932 q 471 894 472 902 l 444 758 l 597 758 l 631 924 q 663 972 637 955 q 704 984 682 984 q 720 983 712 984 l 722 982 q 768 951 751 977 q 781 910 781 932 q 779 894 781 902 l 752 758 l 873 758 q 925 735 904 758 q 947 682 947 713 l 947 681 q 925 628 947 650 q 873 606 904 606 l 722 606 l 690 448 l 819 448 q 871 425 850 448 q 894 372 894 403 l 894 370 q 871 318 894 340 q 819 296 850 296 l 659 296 l 623 116 q 591 68 617 85 q 550 56 572 56 q 534 58 542 56 l 532 58 q 486 90 503 64 q 473 130 473 109 q 475 146 473 138 l 504 296 l 351 296 l 314 116 q 282 68 309 85 q 240 56 263 56 q 223 58 232 56 l 222 58 q 177 90 195 64 q 164 130 164 109 q 166 146 164 138 l 195 296 l 85 296 q 32 318 54 296 q 10 370 10 340 l 10 372 q 32 425 10 403 q 85 448 54 448 l 226 448 m 413 606 l 381 448 l 534 448 l 566 606 l 413 606 z "},"$":{"ha":706,"x_min":41,"x_max":665,"o":"m 440 180 q 475 220 451 184 q 499 301 499 257 q 440 417 499 393 l 440 180 m 264 880 q 231 840 254 876 q 207 760 207 804 q 264 644 207 668 l 264 880 m 379 1161 q 397 1164 387 1164 q 440 1108 440 1164 l 440 1060 q 568 986 507 1044 q 653 846 630 927 q 656 824 656 834 q 641 779 656 800 q 580 749 618 749 l 566 749 q 492 802 509 749 q 440 881 473 867 l 440 591 q 589 517 536 566 q 665 301 665 444 q 596 106 665 191 q 440 1 529 22 l 440 -47 q 397 -103 440 -103 q 379 -100 387 -103 l 379 1161 m 327 -100 q 308 -103 319 -103 q 264 -47 264 -103 l 264 1 q 137 75 198 18 q 53 215 75 134 q 50 238 50 227 q 65 281 50 261 q 126 312 88 312 l 140 312 q 214 258 197 312 q 264 180 233 195 l 264 471 q 117 545 168 495 q 41 760 41 617 q 109 955 41 869 q 264 1060 176 1038 l 264 1108 q 308 1164 264 1164 q 327 1160 319 1164 l 327 -100 z "},"%":{"ha":1025,"x_min":68,"x_max":957,"o":"m 787 1059 l 382 0 l 237 0 l 643 1059 l 787 1059 m 756 296 q 701 273 724 296 q 679 218 679 250 l 679 204 q 701 149 679 172 q 756 126 724 126 q 811 149 788 126 q 834 204 834 172 l 834 218 q 811 273 834 250 q 756 296 788 296 m 756 422 q 898 363 839 422 q 957 221 957 304 l 957 201 q 898 59 957 118 q 756 0 839 0 q 614 59 674 0 q 555 201 555 118 l 555 221 q 614 363 555 304 q 756 422 674 422 m 269 933 q 214 911 236 933 q 191 856 191 888 l 191 842 q 214 787 191 810 q 269 764 237 764 q 323 787 300 764 q 346 842 346 809 l 346 856 q 323 911 346 888 q 269 933 300 933 m 269 1059 q 410 1000 351 1059 q 469 859 469 941 l 469 838 q 410 696 469 755 q 269 637 351 637 q 127 696 186 637 q 68 838 68 755 l 68 859 q 127 1000 68 941 q 269 1059 186 1059 z "},"&":{"ha":909,"x_min":68,"x_max":892,"o":"m 588 463 l 382 463 q 277 419 321 463 q 234 314 234 376 q 277 209 234 252 q 382 166 321 166 l 439 166 q 544 209 500 166 q 587 334 587 252 l 588 334 l 588 463 m 817 619 q 870 597 849 619 q 892 544 892 574 l 892 542 q 870 489 892 511 q 817 467 848 467 l 741 467 l 741 199 q 754 166 741 180 q 788 153 768 153 l 817 153 q 871 130 848 153 q 892 77 892 108 l 892 75 q 871 22 892 45 q 817 0 848 0 l 802 0 q 641 72 690 0 q 439 0 566 0 l 382 0 q 160 92 252 0 q 68 314 68 184 q 171 548 68 469 q 83 761 83 621 q 171 972 83 884 q 382 1059 258 1059 l 484 1059 q 682 985 585 1059 l 585 849 q 484 894 531 894 l 382 894 q 288 854 328 894 q 250 754 250 816 q 288 653 250 692 q 382 615 327 615 l 588 615 l 588 774 l 741 835 l 741 619 l 817 619 z "},"'":{"ha":302,"x_min":68,"x_max":234,"o":"m 234 894 l 210 669 l 92 669 l 68 894 l 68 978 q 92 1036 68 1012 q 150 1060 117 1060 l 152 1060 q 210 1036 185 1060 q 234 978 234 1012 l 234 894 z "},"(":{"ha":479,"x_min":68,"x_max":456,"o":"m 355 -277 q 151 -149 231 -249 q 68 82 68 -48 l 68 698 q 151 929 68 828 q 355 1057 231 1029 q 376 1059 366 1059 q 425 1040 403 1059 q 456 976 456 1017 l 456 970 q 438 918 456 941 q 391 890 420 896 q 275 820 321 874 q 228 694 228 764 l 228 86 q 275 -40 228 16 q 391 -110 321 -94 q 438 -138 420 -116 q 456 -191 456 -161 l 456 -197 q 425 -261 456 -236 q 375 -279 402 -279 q 355 -277 365 -279 z "},")":{"ha":479,"x_min":23,"x_max":412,"o":"m 124 -277 q 103 -279 113 -279 q 54 -261 77 -279 q 23 -197 23 -236 l 23 -191 q 41 -138 23 -161 q 88 -110 59 -116 q 204 -40 158 -94 q 252 86 252 16 l 252 694 q 204 820 252 764 q 88 890 158 874 q 41 918 59 896 q 23 970 23 941 l 23 976 q 54 1040 23 1017 q 104 1059 77 1059 q 124 1057 113 1059 q 329 929 248 1029 q 412 698 412 828 l 412 82 q 329 -149 412 -48 q 124 -277 248 -249 z "},"*":{"ha":663,"x_min":72,"x_max":590,"o":"m 332 945 q 385 923 363 945 q 407 870 407 901 l 407 782 l 491 808 q 516 812 503 812 q 549 805 532 812 q 585 762 576 790 l 586 760 q 590 736 590 748 q 582 703 590 719 q 538 665 568 675 l 454 637 l 507 566 q 520 523 520 546 q 519 511 520 517 q 491 462 515 479 l 490 460 q 444 446 468 446 q 433 446 438 446 q 383 477 401 451 l 331 548 l 279 477 q 231 446 261 451 q 220 446 225 446 q 170 463 195 446 l 170 464 q 143 511 148 479 q 142 523 142 517 q 157 566 142 547 l 208 637 l 124 665 q 81 702 95 675 q 72 736 72 719 q 76 760 72 748 l 77 762 q 114 805 85 790 q 148 813 131 813 q 171 810 159 813 l 255 782 l 255 870 q 277 923 255 901 q 330 945 300 945 l 332 945 z "},"+":{"ha":781,"x_min":34,"x_max":747,"o":"m 474 613 l 665 613 q 723 589 699 613 q 747 530 747 564 l 747 529 q 723 471 747 494 q 665 447 699 447 l 474 447 l 474 256 q 450 198 474 222 q 391 174 425 174 l 390 174 q 332 198 355 174 q 308 256 308 222 l 308 447 l 116 447 q 58 471 81 447 q 34 529 34 494 l 34 530 q 58 589 34 564 q 116 613 81 613 l 308 613 l 308 805 q 332 863 308 840 q 390 887 355 887 l 391 887 q 450 863 425 887 q 474 805 474 840 l 474 613 z "},",":{"ha":299,"x_min":16,"x_max":241,"o":"m 195 163 q 234 142 220 163 q 241 118 241 130 q 237 98 241 108 l 149 -97 q 107 -125 137 -125 l 62 -125 q 25 -106 39 -125 q 16 -79 16 -94 q 18 -66 16 -73 l 71 128 q 115 163 79 163 l 195 163 z "},"-":{"ha":591,"x_min":34,"x_max":557,"o":"m 557 529 q 533 471 557 494 q 475 447 509 447 l 116 447 q 58 471 81 447 q 34 529 34 494 l 34 530 q 58 589 34 564 q 116 613 81 613 l 475 613 q 533 589 509 613 q 557 530 557 564 l 557 529 z "},"­":{"ha":591,"x_min":34,"x_max":557,"o":"m 557 529 q 533 471 557 494 q 475 447 509 447 l 116 447 q 58 471 81 447 q 34 529 34 494 l 34 530 q 58 589 34 564 q 116 613 81 613 l 475 613 q 533 589 509 613 q 557 530 557 564 l 557 529 z "},".":{"ha":1049,"x_min":68,"x_max":973,"o":"m 68 -191 l 68 968 l 973 968 l 973 -191 l 68 -191 m 92 -164 l 949 -164 l 949 948 l 92 948 l 92 -164 m 492 319 l 494 319 l 501 319 l 501 307 q 503 221 503 259 l 498 220 l 494 220 q 492 313 492 268 l 492 315 l 492 319 m 830 319 l 831 319 l 840 319 q 840 310 840 313 q 842 221 840 273 l 834 220 l 831 220 q 829 307 830 259 q 830 319 830 315 m 536 316 l 538 316 q 543 308 538 315 q 541 288 541 296 l 541 275 q 551 236 541 245 l 551 236 q 575 315 566 236 l 576 315 q 585 313 585 313 q 581 254 581 273 q 589 233 581 233 q 591 220 591 222 l 585 220 q 572 241 576 220 l 571 241 q 553 222 564 222 l 549 222 q 531 264 536 222 q 530 279 530 267 l 530 286 q 536 316 530 303 m 742 316 l 746 316 q 765 297 754 316 q 773 267 773 282 l 773 261 q 746 222 773 236 q 736 220 741 220 l 732 220 q 708 249 711 220 l 708 255 q 735 315 708 289 q 742 316 741 316 m 169 313 l 175 313 q 194 286 194 310 q 172 253 194 263 q 153 248 163 250 l 153 223 l 153 223 q 143 225 149 223 l 143 248 l 140 248 l 136 249 q 140 262 136 256 l 143 262 l 143 262 q 139 290 143 290 q 135 297 135 294 q 169 313 147 313 m 718 255 l 718 250 q 735 233 718 235 q 760 252 750 233 q 764 264 764 257 l 764 266 q 746 302 764 284 q 744 303 744 302 q 720 269 732 303 q 718 255 718 262 m 152 295 q 153 263 153 271 q 153 262 153 263 q 178 273 173 266 q 184 286 184 280 q 174 300 184 298 l 170 300 q 152 295 152 298 m 274 297 q 293 264 287 297 q 283 261 292 264 q 274 283 279 283 q 260 233 262 277 q 261 222 261 223 q 251 221 254 221 q 242 280 242 268 q 252 281 250 281 l 252 281 q 254 268 252 278 l 255 268 q 274 297 262 297 m 364 293 q 387 271 378 293 q 388 260 388 265 l 388 258 q 364 222 388 233 q 358 221 361 221 q 340 247 340 224 q 357 291 340 281 q 364 293 358 292 m 416 293 q 441 233 429 293 q 441 228 441 233 q 433 223 436 223 q 418 277 423 265 q 406 230 412 269 q 402 223 405 230 l 397 223 q 391 262 393 223 q 390 277 390 271 q 399 279 395 279 q 401 265 401 267 l 402 265 q 416 293 407 293 m 804 293 q 827 228 814 293 q 819 223 821 223 q 802 277 808 268 q 789 227 798 269 q 787 223 787 223 l 783 223 q 776 277 778 223 q 786 279 780 279 q 787 264 787 266 l 787 264 q 804 293 792 293 m 320 292 q 332 280 332 288 l 332 279 q 326 274 332 278 l 325 274 q 316 279 322 279 q 305 271 307 279 q 325 267 305 268 q 338 244 338 260 q 325 221 338 227 l 319 220 l 316 220 q 293 235 300 220 l 293 236 q 299 243 294 238 l 300 243 q 319 233 308 233 q 328 244 328 236 q 314 254 326 254 q 295 269 295 254 l 295 271 q 320 292 295 292 m 618 292 q 632 279 627 292 l 632 279 q 623 274 625 274 q 615 279 623 278 q 604 272 607 279 l 604 271 q 623 267 604 268 q 636 243 636 261 q 620 220 636 225 l 614 220 q 591 235 599 220 l 591 236 q 597 243 596 243 l 598 243 q 616 233 606 233 q 626 244 626 236 q 615 254 626 252 q 595 262 598 254 q 593 271 593 269 q 618 292 593 292 m 847 291 l 847 291 q 857 290 856 290 q 856 272 856 277 l 856 266 q 865 242 857 242 l 865 242 q 878 288 878 251 l 878 288 l 888 288 l 888 286 q 892 226 892 233 q 872 188 892 195 q 869 188 871 188 l 865 188 q 850 201 853 188 q 849 208 849 204 l 849 208 q 851 218 849 218 l 852 218 q 860 214 858 214 l 859 208 q 865 201 859 202 l 867 201 q 882 230 882 201 q 882 244 882 233 l 881 244 q 863 228 876 228 l 863 228 q 846 260 850 228 l 846 271 q 847 291 846 278 m 224 290 q 240 275 240 288 l 240 271 q 214 247 240 258 l 207 247 q 218 236 207 239 q 233 248 226 236 l 235 248 q 241 238 241 240 q 220 223 229 223 l 216 223 q 195 254 198 223 q 217 290 195 281 l 224 290 m 462 290 l 469 290 q 488 260 488 284 q 487 236 487 245 q 488 225 487 236 q 479 220 482 220 l 479 220 l 477 227 q 462 222 469 222 l 457 222 q 442 236 442 224 l 442 241 q 464 265 442 262 q 477 261 471 264 l 477 262 q 466 279 475 279 q 454 272 460 279 l 452 272 q 446 279 450 273 l 446 281 q 462 290 454 290 m 667 290 q 683 275 683 288 q 654 247 683 255 l 650 247 l 650 245 q 661 236 654 236 q 676 248 667 236 l 677 248 q 683 240 677 248 q 669 225 683 234 q 663 223 666 223 l 658 223 q 638 253 642 223 q 659 290 638 280 l 667 290 m 350 248 q 358 235 351 235 l 360 235 q 378 259 376 240 l 378 261 q 364 279 374 279 l 363 279 q 351 257 354 279 q 350 248 350 252 m 207 261 q 229 273 220 261 l 229 275 q 223 276 224 276 q 207 263 212 276 l 207 261 m 650 261 l 652 261 q 673 274 663 261 q 667 276 669 276 l 665 276 q 650 262 654 276 l 650 261 m 452 240 l 452 238 q 459 234 452 236 q 476 245 471 234 q 463 250 471 250 q 452 240 452 248 m 419 172 q 429 149 428 172 l 429 147 l 425 146 l 424 146 q 418 161 422 161 q 413 148 414 161 q 414 145 414 146 q 415 119 414 138 q 421 121 418 121 l 423 121 l 423 111 l 416 109 q 419 62 419 70 l 412 62 q 409 106 409 98 l 408 106 q 401 104 405 104 l 401 116 q 408 117 406 116 q 406 153 406 132 q 418 172 408 172 l 419 172 m 553 172 q 564 147 562 172 l 559 146 l 557 146 l 557 147 q 553 161 557 157 q 547 151 547 157 q 549 119 547 145 q 549 119 549 119 q 556 121 553 121 l 557 121 l 557 115 l 557 111 q 549 109 557 111 l 551 106 q 553 62 551 98 l 546 62 q 543 106 546 66 q 535 104 537 104 l 535 116 l 543 117 q 541 152 541 148 q 553 172 541 172 m 481 161 l 484 161 l 488 161 l 488 155 q 490 65 488 113 l 482 65 q 481 134 481 109 l 481 161 m 498 161 l 499 161 l 505 161 l 505 140 q 507 65 505 119 l 499 65 q 497 157 497 110 l 497 159 q 498 161 497 161 m 359 159 q 366 157 364 157 q 364 129 364 138 l 366 129 l 374 130 l 374 119 q 364 117 373 119 l 367 67 l 366 66 l 360 66 q 357 117 358 85 l 348 117 l 348 127 l 355 128 l 357 128 l 357 140 q 359 159 357 159 m 674 159 q 682 157 676 159 q 680 138 680 149 l 680 129 l 682 129 l 690 130 l 690 119 l 688 119 l 680 117 l 684 67 l 680 66 l 676 66 q 674 117 674 108 l 664 117 l 665 122 l 665 127 l 672 128 l 673 128 l 673 129 q 674 159 673 143 m 773 159 q 781 157 775 159 q 780 134 780 145 l 780 129 l 781 129 l 789 130 l 789 125 l 789 119 q 780 117 789 119 l 780 113 q 783 67 780 103 l 781 66 l 775 66 l 772 117 l 764 117 l 764 127 l 771 128 l 772 128 l 773 159 m 274 157 l 281 157 q 296 141 290 157 q 292 135 292 137 l 290 135 q 276 145 284 145 q 252 127 264 145 q 246 104 246 115 l 246 101 q 262 77 246 81 q 268 77 264 77 q 289 90 289 79 l 289 97 q 281 99 286 99 l 274 99 l 274 111 q 296 104 293 111 q 298 98 298 100 q 296 79 296 81 q 299 61 296 71 q 294 58 298 61 l 293 58 q 289 73 290 58 q 269 64 285 67 l 268 64 q 239 99 242 64 l 239 102 q 269 155 239 141 l 274 157 m 587 135 q 610 109 603 135 l 610 100 q 587 66 610 77 l 583 65 q 566 79 572 65 q 565 90 565 86 l 565 93 q 578 132 565 121 q 587 135 583 135 m 640 135 q 663 71 650 135 l 662 71 q 656 68 659 68 q 640 122 646 114 q 624 68 635 117 l 623 68 l 620 68 q 614 119 616 68 l 619 121 l 621 121 q 623 98 623 110 l 623 98 q 640 135 629 135 m 330 132 q 344 119 344 130 q 345 117 345 119 q 321 93 345 102 q 311 91 317 91 l 311 90 q 322 79 311 83 l 323 79 q 338 90 330 79 l 340 90 q 345 83 340 88 l 345 83 q 325 68 335 68 l 321 68 q 302 90 308 68 l 302 100 q 320 131 302 122 q 330 132 323 132 m 734 132 l 742 132 q 758 113 753 132 q 760 101 760 102 q 758 83 760 97 q 760 68 760 81 l 755 65 l 753 65 l 751 73 q 734 66 745 66 l 732 66 q 718 79 718 68 l 718 85 q 738 106 720 106 q 752 101 746 106 l 752 103 q 740 123 752 120 l 738 123 q 726 117 734 123 l 726 117 q 722 122 725 117 l 722 123 q 734 132 728 132 m 430 131 q 437 129 431 131 q 447 79 437 79 q 466 123 460 87 q 467 131 467 127 l 467 131 q 474 129 469 131 q 472 98 472 113 l 472 90 q 475 77 472 84 q 472 70 472 73 l 471 70 q 465 87 466 73 l 464 87 q 451 68 461 77 l 445 68 q 431 119 431 68 l 431 125 l 430 131 m 572 93 q 582 77 573 77 l 583 77 q 601 94 593 77 q 603 102 603 100 q 588 123 599 123 l 585 123 q 572 93 575 123 m 310 102 q 336 117 326 102 q 329 121 335 121 l 327 121 q 310 102 314 121 m 724 83 q 732 77 726 77 l 736 77 q 751 90 745 77 q 739 95 745 95 l 738 95 q 724 83 724 93 m 344 31 q 355 28 345 31 q 352 -35 353 2 q 359 -81 352 -58 q 351 -88 351 -88 l 350 -88 q 346 -79 348 -88 l 345 -79 q 330 -90 345 -85 q 298 -62 308 -90 q 296 -43 296 -54 q 319 -3 296 -10 l 322 -3 q 342 -14 332 -3 l 342 -14 q 344 31 342 -8 m 214 26 l 224 23 q 223 -1 223 7 l 223 -11 q 233 -9 232 -9 q 235 -25 235 -22 l 233 -25 q 223 -26 227 -26 q 227 -87 225 -68 q 215 -89 218 -89 l 215 -88 q 212 -28 212 -47 l 210 -27 l 201 -27 l 201 -11 l 211 -11 l 211 -5 q 214 26 211 26 m 457 26 l 458 26 l 468 23 q 467 -7 467 4 l 467 -11 q 477 -9 476 -9 l 478 -18 l 478 -25 q 467 -26 467 -26 q 471 -87 467 -42 q 459 -89 462 -89 l 459 -88 q 456 -27 456 -37 l 444 -27 l 444 -11 l 455 -11 q 457 26 455 12 m 370 24 q 378 15 376 24 l 378 14 q 372 3 378 7 l 368 3 q 362 15 362 7 q 370 24 363 24 m 412 -3 q 439 -29 429 -3 q 441 -41 441 -37 l 441 -47 q 414 -87 441 -74 q 406 -89 412 -89 q 384 -61 387 -89 l 384 -52 q 404 -5 384 -17 q 412 -3 411 -3 m 543 -3 l 546 -3 q 553 -5 553 -3 l 553 -7 q 566 -3 559 -3 q 589 -33 583 -3 q 589 -43 589 -41 q 568 -86 587 -78 l 563 -87 l 556 -87 l 557 -92 q 557 -119 557 -96 l 546 -119 q 543 -3 543 -30 m 621 -3 q 647 -27 636 -3 q 650 -43 650 -36 q 624 -87 650 -73 q 614 -89 618 -89 q 593 -71 600 -89 q 592 -55 592 -62 q 612 -5 592 -18 q 621 -3 620 -3 m 758 -3 q 784 -27 774 -3 q 787 -40 787 -33 l 787 -45 q 760 -87 787 -75 q 751 -89 758 -89 q 730 -61 732 -89 l 730 -52 q 750 -5 730 -17 q 758 -3 757 -3 m 821 -3 q 840 -43 833 -3 l 840 -43 q 859 -3 846 -3 l 859 -3 q 886 -83 876 -3 l 885 -83 q 876 -87 878 -87 l 876 -87 q 859 -20 863 -20 q 847 -76 852 -35 q 840 -83 845 -83 q 833 -73 835 -83 q 820 -21 824 -21 q 809 -84 809 -60 q 798 -87 802 -87 l 798 -86 l 789 -16 q 801 -12 798 -12 q 804 -33 802 -17 l 805 -33 q 821 -3 811 -3 m 175 -4 q 191 -18 191 -7 l 191 -19 q 183 -25 191 -20 l 181 -25 q 172 -20 181 -20 l 172 -20 q 158 -26 163 -20 l 158 -29 q 179 -33 158 -33 q 197 -59 197 -41 l 197 -62 q 182 -88 197 -81 q 176 -90 179 -90 l 170 -90 q 143 -73 154 -90 q 151 -62 143 -70 l 153 -62 q 173 -75 158 -75 q 185 -61 185 -75 q 171 -49 185 -51 q 149 -41 153 -49 q 146 -33 146 -35 l 146 -27 q 175 -4 146 -4 m 484 -5 q 494 -7 492 -7 q 493 -31 493 -23 l 493 -35 q 501 -64 493 -57 l 505 -64 q 519 -16 519 -52 l 519 -9 l 531 -9 l 531 -9 q 536 -79 536 -70 l 536 -86 q 517 -127 536 -116 q 507 -130 511 -130 q 487 -116 492 -130 q 486 -110 486 -113 l 486 -104 q 488 -94 486 -94 l 498 -98 l 497 -104 l 497 -106 q 505 -113 497 -112 l 507 -113 q 524 -91 521 -113 q 525 -83 525 -88 l 525 -69 l 524 -60 l 524 -60 q 504 -81 517 -81 l 503 -81 q 482 -47 487 -81 q 481 -33 481 -41 l 481 -27 q 484 -5 481 -5 m 701 -5 l 706 -5 q 716 -12 710 -5 q 724 -24 724 -20 q 715 -33 716 -33 l 715 -33 q 703 -22 708 -22 l 702 -22 q 690 -41 694 -26 l 687 -56 q 696 -72 687 -71 l 699 -72 q 722 -61 706 -72 l 722 -61 q 726 -76 726 -75 q 694 -88 709 -88 q 675 -57 679 -88 q 688 -14 675 -34 q 701 -5 696 -5 m 364 -7 l 372 -7 l 376 -7 q 376 -13 376 -9 q 378 -87 376 -58 l 366 -87 l 366 -81 q 364 -7 364 -35 m 237 -7 q 249 -12 249 -11 l 249 -25 q 257 -71 249 -71 l 260 -71 q 277 -33 272 -58 q 281 -7 280 -26 l 282 -7 q 292 -12 292 -9 q 290 -52 290 -40 l 290 -58 q 294 -72 290 -65 q 287 -84 294 -76 l 287 -84 q 279 -67 279 -76 l 278 -67 q 259 -87 271 -87 l 257 -87 q 237 -24 237 -87 l 237 -7 m 308 -45 q 328 -73 308 -68 l 330 -73 q 340 -55 338 -73 l 340 -53 q 326 -20 340 -28 l 322 -20 l 321 -20 q 308 -43 309 -20 l 308 -45 m 395 -56 q 406 -73 395 -71 l 408 -73 q 428 -53 418 -73 q 429 -47 429 -50 l 429 -41 q 413 -20 425 -20 l 412 -20 q 395 -56 397 -20 m 553 -25 q 555 -71 553 -27 l 560 -71 q 578 -43 575 -71 q 566 -20 576 -20 l 566 -20 q 553 -25 559 -20 m 604 -56 l 604 -59 q 614 -73 604 -71 l 615 -73 q 635 -55 626 -73 q 638 -43 638 -50 q 619 -20 634 -20 q 604 -56 606 -20 m 741 -56 q 752 -73 741 -73 l 754 -73 q 774 -52 764 -73 q 775 -45 775 -48 l 775 -41 q 758 -20 770 -20 l 758 -20 q 741 -56 744 -20 m 663 -65 q 671 -75 669 -65 l 671 -78 q 663 -87 669 -87 q 655 -77 656 -87 q 663 -65 656 -65 m 486 928 l 486 764 l 309 764 q 239 738 273 764 l 239 745 q 486 928 339 928 m 543 928 l 549 928 q 739 827 639 928 q 777 764 777 781 l 543 764 l 543 928 m 290 707 l 486 707 l 486 643 q 435 656 463 656 l 290 656 q 277 669 277 656 l 277 694 q 290 707 279 707 m 543 707 l 802 707 l 808 643 l 808 631 q 720 429 808 505 l 606 429 q 543 492 543 437 l 543 707 m 220 656 l 227 656 q 321 599 227 607 l 441 599 q 486 555 486 599 l 486 485 q 416 429 486 429 l 309 429 q 220 618 220 510 l 220 656 m 511 410 l 517 410 q 644 372 559 372 l 644 365 q 517 340 571 340 l 511 340 q 385 365 457 340 l 385 372 q 511 410 474 372 z "},"/":{"ha":471,"x_min":0,"x_max":471,"o":"m 471 1059 l 159 0 l 0 0 l 314 1059 l 471 1059 z "},":":{"ha":326,"x_min":68,"x_max":258,"o":"m 163 0 q 96 28 123 0 q 68 95 68 56 q 96 161 68 134 q 163 189 123 189 q 229 161 201 189 q 258 95 258 134 q 229 28 258 55 q 163 0 201 0 m 163 592 q 96 620 123 592 q 68 687 68 648 q 96 753 68 726 q 163 781 123 781 q 229 753 201 781 q 258 687 258 726 q 229 620 258 647 q 163 592 201 592 z "},";":{"ha":326,"x_min":16,"x_max":258,"o":"m 195 163 q 234 142 220 163 q 241 118 241 130 q 237 98 241 108 l 149 -97 q 107 -125 137 -125 l 62 -125 q 25 -106 39 -125 q 16 -79 16 -94 q 18 -66 16 -73 l 71 128 q 115 163 79 163 l 195 163 m 163 592 q 96 620 123 592 q 68 687 68 648 q 96 753 68 726 q 163 781 123 781 q 229 753 201 781 q 258 687 258 726 q 229 620 258 647 q 163 592 201 592 z "},";":{"ha":326,"x_min":16,"x_max":258,"o":"m 195 163 q 234 142 220 163 q 241 118 241 130 q 237 98 241 108 l 149 -97 q 107 -125 137 -125 l 62 -125 q 25 -106 39 -125 q 16 -79 16 -94 q 18 -66 16 -73 l 71 128 q 115 163 79 163 l 195 163 m 163 592 q 96 620 123 592 q 68 687 68 648 q 96 753 68 726 q 163 781 123 781 q 229 753 201 781 q 258 687 258 726 q 229 620 258 647 q 163 592 201 592 z "},"<":{"ha":807,"x_min":34,"x_max":773,"o":"m 70 408 q 34 461 34 422 l 34 584 q 70 637 34 623 l 695 880 q 718 885 707 885 q 748 875 734 885 q 773 827 773 858 l 773 782 q 737 729 773 744 l 212 523 l 737 316 q 773 263 773 302 l 773 218 q 748 170 773 187 q 718 160 734 160 q 695 165 707 160 l 70 408 z "},"=":{"ha":781,"x_min":34,"x_max":747,"o":"m 747 376 q 723 319 747 342 q 665 294 699 294 l 116 294 q 58 319 81 294 q 34 376 34 342 l 34 378 q 58 436 34 412 q 116 460 81 460 l 665 460 q 723 436 699 460 q 747 378 747 412 l 747 376 m 747 671 q 723 614 747 637 q 665 589 699 589 l 116 589 q 58 614 81 589 q 34 671 34 637 l 34 673 q 58 731 34 707 q 116 755 81 755 l 665 755 q 723 731 699 755 q 747 673 747 707 l 747 671 z "},">":{"ha":807,"x_min":34,"x_max":773,"o":"m 112 165 q 90 160 100 160 q 59 170 73 160 q 34 218 34 187 l 34 263 q 70 316 34 302 l 595 523 l 70 729 q 34 782 34 744 l 34 827 q 59 875 34 858 q 90 885 73 885 q 112 880 100 885 l 737 637 q 773 584 773 623 l 773 461 q 737 408 773 422 l 112 165 z "},"?":{"ha":753,"x_min":56,"x_max":692,"o":"m 369 1048 q 597 954 503 1048 q 692 726 692 859 q 620 523 692 611 q 449 412 550 435 l 449 324 q 425 268 449 292 q 368 244 401 244 l 366 244 q 309 268 333 244 q 286 326 286 292 l 286 485 q 309 542 286 518 q 366 566 332 566 l 369 566 q 481 612 435 566 q 528 726 528 659 q 481 839 528 792 q 369 885 435 885 q 273 853 315 885 q 216 772 232 822 q 187 731 209 747 q 139 715 166 715 l 137 715 q 72 748 96 715 q 56 795 56 770 q 60 820 56 807 q 175 984 90 920 q 369 1048 261 1048 m 367 -1 q 300 27 328 -1 q 272 94 272 55 q 300 161 272 133 q 367 189 328 189 q 433 161 406 189 q 462 94 462 134 q 433 27 462 54 q 367 -1 406 -1 z "},"@":{"ha":1495,"x_min":68,"x_max":1428,"o":"m 1069 -196 q 748 -277 907 -277 l 747 -277 q 267 -77 465 -277 q 68 399 68 119 q 267 874 68 678 q 748 1074 465 1074 q 1229 874 1030 1074 q 1428 399 1428 678 q 1339 100 1428 229 q 1139 -34 1251 -28 l 1127 -34 q 1014 10 1059 -34 q 952 229 952 68 l 952 242 l 954 393 q 886 557 954 498 q 785 604 846 593 q 737 608 760 608 q 665 597 701 608 q 525 393 525 554 q 640 201 525 260 q 741 177 687 177 q 753 178 747 177 q 882 229 812 182 l 948 79 q 769 20 857 26 q 741 19 755 19 q 561 62 648 19 q 413 198 466 111 q 359 393 359 286 q 477 671 359 568 q 739 767 585 767 q 1001 671 892 767 q 1120 393 1120 568 l 1119 241 l 1119 224 q 1131 124 1119 134 q 1207 198 1164 126 q 1261 399 1261 288 q 1109 766 1261 614 q 748 916 959 916 q 385 764 536 916 q 234 399 234 614 q 387 31 234 183 q 747 -119 537 -119 l 748 -119 q 1005 -49 870 -119 l 1069 -196 z "},"A":{"ha":851,"x_min":75,"x_max":777,"o":"m 777 82 q 752 24 777 47 q 694 0 728 0 l 692 0 q 635 24 659 0 q 610 82 610 47 l 610 385 l 241 385 l 241 82 q 216 24 241 47 q 159 0 192 0 l 157 0 q 99 24 123 0 q 75 82 75 47 l 75 709 q 178 957 75 854 q 425 1059 281 1059 q 673 957 570 1059 q 777 709 777 854 l 777 82 m 610 550 l 610 709 q 557 840 610 785 q 425 894 503 894 q 294 840 349 894 q 241 709 241 785 l 241 550 l 610 550 z "},"B":{"ha":789,"x_min":75,"x_max":742,"o":"m 241 628 l 427 629 q 522 667 483 629 q 560 761 560 705 q 522 854 560 816 q 427 894 482 894 l 266 894 q 248 886 255 894 q 241 868 241 879 l 241 628 m 75 868 q 131 1004 75 947 q 266 1059 187 1059 l 427 1059 q 639 972 551 1059 q 726 761 726 884 q 639 548 726 621 q 742 314 742 469 q 650 92 742 184 q 427 0 557 0 l 266 0 q 131 56 187 0 q 75 191 75 113 l 75 868 m 427 166 q 532 209 489 166 q 575 314 575 252 q 532 419 575 376 q 427 463 489 463 l 241 463 l 241 191 q 248 173 241 180 q 266 166 255 166 l 427 166 z "},"C":{"ha":815,"x_min":51,"x_max":774,"o":"m 581 1059 q 712 1043 648 1059 q 774 964 774 1027 l 774 962 q 742 897 774 922 q 694 880 720 880 q 672 882 684 880 q 581 894 627 894 q 323 787 430 894 q 217 530 217 681 q 323 272 217 378 q 581 166 430 166 q 672 177 627 166 q 694 180 684 180 q 742 163 720 180 q 774 98 774 138 l 774 96 q 712 16 774 33 q 581 0 648 0 q 206 155 361 0 q 51 530 51 311 q 206 904 51 749 q 581 1059 361 1059 z "},"D":{"ha":939,"x_min":75,"x_max":898,"o":"m 241 191 q 248 173 241 180 q 266 166 255 166 l 368 166 q 626 272 519 166 q 732 530 732 378 q 626 787 732 681 q 368 894 519 894 l 266 894 q 248 886 255 894 q 241 868 241 879 l 241 191 m 368 1059 q 743 904 587 1059 q 898 530 898 749 q 743 155 898 311 q 368 0 587 0 l 266 0 q 131 56 187 0 q 75 191 75 113 l 75 868 q 131 1004 75 947 q 266 1059 187 1059 l 368 1059 z "},"E":{"ha":684,"x_min":75,"x_max":646,"o":"m 241 612 l 564 612 q 622 589 597 612 q 646 530 646 564 l 646 529 q 622 471 646 495 q 564 447 597 447 l 241 447 l 241 248 q 264 190 241 214 q 322 166 288 166 l 564 166 q 622 142 597 166 q 646 83 646 117 l 646 82 q 622 24 646 47 q 564 0 597 0 l 322 0 q 147 73 220 0 q 75 248 75 145 l 75 812 q 147 987 75 914 q 322 1059 220 1059 l 564 1059 q 622 1035 597 1059 q 646 977 646 1012 l 646 976 q 622 918 646 942 q 564 893 597 893 l 322 893 q 264 869 288 893 q 241 812 241 846 l 241 612 z "},"F":{"ha":633,"x_min":75,"x_max":612,"o":"m 241 612 l 524 612 q 581 589 557 612 q 606 530 606 564 l 606 529 q 581 471 606 494 q 524 447 557 447 l 241 447 l 241 82 q 216 24 241 47 q 159 0 192 0 l 157 0 q 99 24 123 0 q 75 82 75 47 l 75 812 q 147 987 75 914 q 322 1059 220 1059 l 530 1059 q 588 1036 564 1059 q 612 977 612 1011 l 612 976 q 588 918 612 942 q 530 894 564 894 l 322 894 q 264 870 288 894 q 241 812 241 846 l 241 612 z "},"G":{"ha":1168,"x_min":54,"x_max":1114,"o":"m 584 1059 q 974 888 817 1059 q 996 833 996 864 q 996 824 996 828 q 962 767 991 787 l 961 766 q 913 749 939 749 q 904 750 909 749 q 852 777 873 753 q 584 894 744 894 q 327 787 433 894 q 220 530 220 681 q 327 272 220 378 q 584 166 433 166 q 821 254 719 166 q 939 447 922 340 l 601 447 q 543 471 567 447 q 519 529 519 495 l 519 530 q 543 589 519 564 q 601 612 567 612 l 1031 612 q 1090 589 1065 612 q 1114 530 1114 564 l 1114 530 q 959 155 1114 311 q 584 0 803 0 q 210 155 365 0 q 54 530 54 311 q 210 904 54 749 q 584 1059 365 1059 z "},"H":{"ha":857,"x_min":75,"x_max":783,"o":"m 159 1059 q 216 1036 192 1059 q 241 977 241 1011 l 241 612 l 616 612 l 616 977 q 641 1036 616 1011 q 699 1059 665 1059 l 701 1059 q 758 1036 734 1059 q 783 977 783 1011 l 783 82 q 758 24 783 47 q 701 0 734 0 l 699 0 q 641 24 665 0 q 616 82 616 47 l 616 447 l 241 447 l 241 82 q 216 24 241 47 q 159 0 192 0 l 157 0 q 99 24 123 0 q 75 82 75 47 l 75 977 q 99 1036 75 1011 q 157 1059 123 1059 l 159 1059 z "},"I":{"ha":356,"x_min":95,"x_max":261,"o":"m 179 1059 q 237 1036 212 1059 q 261 977 261 1011 l 261 82 q 237 24 261 47 q 179 0 212 0 l 177 0 q 119 24 144 0 q 95 82 95 47 l 95 977 q 119 1036 95 1011 q 177 1059 144 1059 l 179 1059 z "},"J":{"ha":543,"x_min":7,"x_max":462,"o":"m 296 977 q 320 1036 296 1011 q 378 1059 345 1059 l 380 1059 q 438 1036 414 1059 q 462 977 462 1011 l 462 248 q 389 73 462 145 q 214 0 317 0 l 89 0 q 31 24 56 0 q 7 82 7 47 l 7 83 q 31 142 7 117 q 89 166 56 166 l 214 166 q 273 190 249 166 q 296 248 296 214 l 296 977 z "},"K":{"ha":785,"x_min":75,"x_max":731,"o":"m 159 1059 q 216 1036 192 1059 q 241 977 241 1011 l 241 646 l 311 646 q 469 711 404 646 q 536 869 535 777 l 536 977 q 560 1036 536 1011 q 618 1059 584 1059 l 620 1059 q 677 1036 653 1059 q 702 977 702 1011 l 702 869 q 569 574 702 673 q 680 450 629 538 q 731 256 731 360 l 731 82 q 707 24 731 48 q 649 0 683 0 l 648 0 q 589 24 614 0 q 566 82 566 48 l 566 256 q 499 414 565 348 q 340 479 433 479 l 241 479 l 241 82 q 216 24 241 47 q 159 0 192 0 l 157 0 q 99 24 123 0 q 75 82 75 47 l 75 977 q 99 1036 75 1011 q 157 1059 123 1059 l 159 1059 z "},"L":{"ha":616,"x_min":81,"x_max":609,"o":"m 248 248 q 271 190 248 214 q 329 166 295 166 l 526 166 q 585 142 560 166 q 609 83 609 117 l 609 82 q 585 24 609 47 q 526 0 560 0 l 329 0 q 154 73 227 0 q 81 248 81 145 l 81 977 q 106 1036 81 1011 q 163 1059 130 1059 l 165 1059 q 223 1036 199 1059 q 248 977 248 1011 l 248 248 z "},"M":{"ha":1288,"x_min":75,"x_max":1213,"o":"m 241 82 q 216 24 241 47 q 159 0 192 0 l 157 0 q 99 24 123 0 q 75 82 75 47 l 75 733 q 170 964 75 868 q 401 1059 266 1059 q 644 952 562 1059 q 887 1059 726 1059 q 1118 964 1022 1059 q 1213 733 1213 868 l 1213 82 q 1190 24 1213 48 q 1131 0 1165 0 l 1130 0 q 1072 24 1095 0 q 1048 82 1048 47 l 1048 733 q 1001 847 1048 800 q 887 894 954 894 q 774 847 821 894 q 727 733 727 800 l 727 82 q 703 24 727 47 q 645 0 680 0 l 644 0 q 585 24 610 0 q 561 82 561 47 l 561 733 q 514 847 561 800 q 401 894 467 894 q 288 847 334 894 q 241 733 241 800 l 241 82 z "},"N":{"ha":851,"x_min":75,"x_max":777,"o":"m 777 82 q 752 24 777 47 q 694 0 728 0 l 692 0 q 635 24 659 0 q 610 82 610 47 l 610 709 q 557 840 610 785 q 425 894 503 894 q 294 840 349 894 q 241 709 241 785 l 241 82 q 216 24 241 47 q 159 0 192 0 l 157 0 q 99 24 123 0 q 75 82 75 47 l 75 709 q 178 957 75 854 q 425 1059 281 1059 q 673 957 570 1059 q 777 709 777 854 l 777 82 z "},"O":{"ha":1168,"x_min":54,"x_max":1114,"o":"m 584 1059 q 959 904 803 1059 q 1114 530 1114 749 q 959 155 1114 311 q 584 0 803 0 q 210 155 365 0 q 54 530 54 311 q 210 904 54 749 q 584 1059 365 1059 m 584 894 q 327 787 433 894 q 220 530 220 681 q 327 272 220 378 q 584 166 433 166 q 842 272 735 166 q 948 530 948 378 q 842 787 948 681 q 584 894 735 894 z "},"P":{"ha":842,"x_min":75,"x_max":795,"o":"m 241 505 l 435 505 q 572 562 515 505 q 629 699 629 618 q 572 837 629 780 q 435 894 515 894 q 297 837 354 894 q 241 699 241 780 l 241 505 m 241 339 l 241 82 q 216 24 241 47 q 159 0 192 0 l 157 0 q 99 24 123 0 q 75 82 75 47 l 75 699 q 180 954 75 848 q 435 1059 286 1059 q 689 954 584 1059 q 795 699 795 848 q 689 445 795 551 q 435 339 584 339 l 241 339 z "},"Q":{"ha":1168,"x_min":54,"x_max":1114,"o":"m 584 1059 q 959 904 803 1059 q 1114 530 1114 749 q 979 178 1114 328 q 667 6 847 28 l 667 -100 q 643 -159 667 -134 q 585 -182 618 -182 l 583 -182 q 526 -159 549 -182 q 501 -100 501 -134 l 501 6 q 189 178 321 28 q 54 530 54 328 q 210 904 54 749 q 584 1059 365 1059 m 585 401 q 643 376 618 401 q 667 319 667 352 l 667 174 q 861 293 774 192 q 948 530 948 395 q 842 787 948 681 q 584 894 735 894 q 327 787 433 894 q 220 530 220 681 q 308 294 220 395 q 501 174 395 192 l 501 319 q 526 376 501 352 q 583 401 549 401 l 585 401 z "},"R":{"ha":807,"x_min":75,"x_max":766,"o":"m 427 547 q 550 597 499 547 q 601 720 601 648 q 550 843 601 792 q 427 893 499 893 l 349 893 q 270 865 298 893 q 241 812 248 843 q 240 789 240 805 l 240 547 l 427 547 m 601 208 q 550 330 601 279 q 440 380 504 377 l 240 380 l 240 82 q 216 24 240 48 q 158 0 192 0 l 157 0 q 99 24 122 0 q 75 82 75 47 l 75 795 q 152 981 75 904 q 339 1059 230 1059 l 427 1059 q 667 960 568 1059 q 766 720 766 860 q 667 480 766 580 l 651 464 l 667 447 q 766 208 766 348 l 766 82 q 742 24 766 47 q 684 0 718 0 l 683 0 q 625 24 650 0 q 601 82 601 47 l 601 208 z "},"S":{"ha":743,"x_min":47,"x_max":696,"o":"m 359 895 q 260 854 301 895 q 220 755 220 814 q 283 650 220 686 q 446 595 311 635 q 616 512 562 561 q 696 308 696 439 q 605 90 696 180 q 388 0 515 0 l 130 0 q 72 24 96 0 q 47 82 47 49 l 47 86 q 72 144 47 119 q 130 168 96 168 l 395 168 q 494 209 452 168 q 534 308 534 250 q 471 414 534 376 q 307 473 441 431 q 138 559 191 511 q 58 755 58 631 q 149 973 58 883 q 366 1063 239 1063 l 549 1063 q 607 1039 583 1063 q 631 981 631 1015 l 631 977 q 607 920 631 944 q 549 895 583 895 l 359 895 z "},"T":{"ha":715,"x_min":27,"x_max":688,"o":"m 688 976 q 663 918 688 942 q 606 894 640 894 l 440 894 l 440 82 q 416 24 440 48 q 358 0 392 0 l 357 0 q 298 24 323 0 q 275 82 275 48 l 275 894 l 109 894 q 52 918 76 894 q 27 976 27 942 l 27 977 q 52 1036 27 1011 q 109 1059 76 1059 l 606 1059 q 663 1036 640 1059 q 688 977 688 1011 l 688 976 z "},"U":{"ha":851,"x_min":75,"x_max":777,"o":"m 777 351 q 673 103 777 205 q 425 0 570 0 q 178 103 281 0 q 75 351 75 205 l 75 977 q 99 1036 75 1011 q 157 1059 123 1059 l 159 1059 q 216 1036 192 1059 q 241 977 241 1011 l 241 351 q 294 220 241 274 q 425 166 349 166 q 557 220 503 166 q 610 351 610 274 l 610 977 q 635 1036 610 1011 q 692 1059 659 1059 l 694 1059 q 752 1036 728 1059 q 777 977 777 1011 l 777 351 z "},"V":{"ha":825,"x_min":14,"x_max":812,"o":"m 413 239 l 646 1004 q 724 1059 665 1059 l 728 1059 q 795 1025 771 1059 q 812 979 812 1003 q 806 950 812 965 l 528 79 q 412 0 497 0 q 296 79 328 0 l 19 950 q 14 979 14 965 q 29 1025 14 1004 q 96 1059 54 1059 l 101 1059 q 179 1004 160 1059 l 413 239 z "},"W":{"ha":1288,"x_min":75,"x_max":1213,"o":"m 241 326 q 288 213 241 260 q 401 166 334 166 q 514 213 467 166 q 561 326 561 260 l 561 977 q 585 1036 561 1011 q 644 1059 610 1059 l 645 1059 q 703 1036 679 1059 q 727 977 727 1011 l 727 326 q 774 213 727 260 q 887 166 821 166 q 1001 213 954 166 q 1048 326 1048 260 l 1048 977 q 1072 1036 1048 1011 q 1130 1059 1096 1059 l 1131 1059 q 1190 1036 1165 1059 q 1213 977 1213 1011 l 1213 326 q 1118 96 1213 191 q 887 0 1022 0 q 644 107 726 0 q 401 0 562 0 q 170 96 266 0 q 75 326 75 191 l 75 977 q 99 1036 75 1011 q 157 1059 123 1059 l 159 1059 q 216 1036 192 1059 q 241 977 241 1011 l 241 326 z "},"X":{"ha":838,"x_min":68,"x_max":770,"o":"m 770 82 q 745 24 770 47 q 688 0 721 0 l 686 0 q 628 24 652 0 q 604 82 604 47 l 604 288 q 550 418 604 364 q 418 473 496 473 q 288 418 342 473 q 234 288 234 364 l 234 82 q 210 24 234 47 q 152 0 185 0 l 150 0 q 92 24 117 0 q 68 82 68 47 l 68 288 q 191 555 68 467 q 68 823 68 644 l 68 977 q 92 1036 68 1011 q 150 1059 117 1059 l 152 1059 q 210 1036 185 1059 q 234 977 234 1011 l 234 823 q 288 692 234 747 q 418 638 342 638 q 550 692 496 638 q 604 823 604 747 l 604 977 q 628 1036 604 1011 q 686 1059 652 1059 l 688 1059 q 745 1036 721 1059 q 770 977 770 1011 l 770 823 q 647 555 770 644 q 770 288 770 467 l 770 82 z "},"Y":{"ha":838,"x_min":68,"x_max":770,"o":"m 770 676 q 688 451 770 549 q 502 334 608 355 l 502 82 q 477 24 502 47 q 420 0 453 0 l 418 0 q 360 24 385 0 q 336 82 336 47 l 336 334 q 149 451 230 355 q 68 676 68 549 l 68 977 q 92 1036 68 1011 q 150 1059 117 1059 l 152 1059 q 210 1036 185 1059 q 234 977 234 1011 l 234 676 q 288 545 234 599 q 418 491 342 491 q 550 545 496 491 q 604 676 604 599 l 604 977 q 628 1036 604 1011 q 686 1059 652 1059 l 688 1059 q 745 1036 721 1059 q 770 977 770 1011 l 770 676 z "},"Z":{"ha":741,"x_min":27,"x_max":714,"o":"m 57 977 q 81 1036 57 1011 q 139 1059 105 1059 l 559 1059 q 660 1016 618 1059 q 702 914 702 973 q 678 833 702 870 l 212 166 l 632 166 q 690 142 667 166 q 714 83 714 117 l 714 82 q 690 24 714 47 q 632 0 667 0 l 159 0 q 65 47 103 5 q 27 146 27 89 q 45 217 27 183 l 518 894 l 139 894 q 81 918 105 894 q 57 976 57 942 l 57 977 z "},"[":{"ha":482,"x_min":68,"x_max":414,"o":"m 68 1059 l 414 1059 l 414 930 l 234 930 l 234 -149 l 414 -149 l 414 -279 l 68 -279 l 68 1059 z "},"\\":{"ha":471,"x_min":0,"x_max":471,"o":"m 158 1059 l 471 0 l 313 0 l 0 1059 l 158 1059 z "},"]":{"ha":482,"x_min":68,"x_max":414,"o":"m 414 -279 l 68 -279 l 68 -149 l 248 -149 l 248 930 l 68 930 l 68 1059 l 414 1059 l 414 -279 z "},"^":{"ha":928,"x_min":168,"x_max":760,"o":"m 356 1022 q 412 1059 370 1059 l 516 1059 q 572 1022 557 1059 l 755 637 q 760 614 760 625 q 749 581 760 597 q 700 555 732 555 l 651 555 q 595 592 610 555 l 464 880 l 332 592 q 277 555 317 555 l 228 555 q 178 581 195 555 q 168 614 168 597 q 172 637 168 625 l 356 1022 z "},"_":{"ha":683,"x_min":-7,"x_max":690,"o":"m -7 -167 l -7 -1 l 690 -1 l 690 -167 l -7 -167 z "},"`":{"ha":462,"x_min":7,"x_max":326,"o":"m 20 1031 q 7 1058 7 1043 q 14 1081 7 1069 q 55 1107 26 1107 l 160 1107 q 197 1088 184 1107 l 315 919 q 326 891 326 905 q 320 870 326 881 q 279 845 307 845 l 227 845 q 192 861 209 845 l 20 1031 z "},"a":{"ha":917,"x_min":68,"x_max":849,"o":"m 458 781 q 734 667 620 781 q 849 391 849 552 l 849 82 q 825 24 849 47 q 767 0 800 0 l 765 0 q 707 24 732 0 q 683 82 683 47 q 458 0 606 0 q 182 115 297 0 q 68 391 68 229 q 182 667 68 552 q 458 781 297 781 m 458 615 q 299 549 365 615 q 234 391 234 484 q 299 231 234 297 q 458 166 365 166 q 617 231 552 166 q 683 391 683 297 q 617 549 683 484 q 458 615 551 615 z "},"b":{"ha":897,"x_min":68,"x_max":849,"o":"m 458 614 q 299 548 365 614 q 234 389 234 482 q 299 230 234 296 q 458 164 365 164 q 617 230 551 164 q 683 389 683 296 q 617 548 683 482 q 458 614 551 614 m 152 1059 q 210 1036 185 1059 q 234 977 234 1011 l 234 713 q 458 781 311 781 q 734 667 620 781 q 849 391 849 552 q 734 115 849 229 q 458 0 620 0 q 183 114 297 0 q 68 389 68 227 l 68 977 q 92 1036 68 1011 q 150 1059 117 1059 l 152 1059 z "},"c":{"ha":661,"x_min":47,"x_max":614,"o":"m 438 781 q 556 763 499 781 q 614 684 614 745 l 614 681 q 581 615 614 640 q 533 599 557 599 q 507 603 520 599 q 438 614 473 614 q 279 548 345 614 q 214 389 214 482 q 279 230 214 296 q 438 164 345 164 q 507 175 473 164 q 532 179 519 179 q 581 163 557 179 q 614 96 614 138 q 556 18 614 37 q 438 0 499 0 q 162 115 277 0 q 47 391 47 229 q 162 667 47 552 q 438 781 277 781 z "},"d":{"ha":897,"x_min":47,"x_max":829,"o":"m 438 614 q 279 548 345 614 q 214 389 214 482 q 279 230 214 296 q 438 164 345 164 q 597 230 531 164 q 663 389 663 296 q 597 548 663 482 q 438 614 531 614 m 747 1059 q 804 1036 780 1059 q 829 977 829 1011 l 829 389 q 713 114 828 227 q 438 0 599 0 q 162 115 277 0 q 47 391 47 229 q 162 667 47 552 q 438 781 277 781 q 663 713 585 781 l 663 977 q 687 1036 663 1011 q 745 1059 711 1059 l 747 1059 z "},"e":{"ha":866,"x_min":47,"x_max":812,"o":"m 438 614 q 279 548 345 614 q 214 389 214 482 l 214 384 l 593 554 q 438 614 543 614 m 793 553 q 801 519 801 536 q 795 490 801 505 q 752 444 784 458 q 503 332 657 401 q 277 229 311 245 q 438 164 329 164 q 570 207 511 164 q 650 315 627 249 q 729 371 670 371 q 796 336 771 371 q 812 290 812 314 q 806 261 812 276 q 666 74 766 145 q 438 0 564 0 q 162 115 277 0 q 47 391 47 229 q 162 667 47 552 q 438 781 277 781 q 651 718 555 781 q 793 553 747 655 z "},"f":{"ha":515,"x_min":68,"x_max":488,"o":"m 406 1059 q 464 1036 439 1059 q 488 977 488 1011 l 488 976 q 464 918 488 942 q 406 894 439 894 l 367 894 q 273 855 311 894 q 234 781 235 817 l 406 781 q 464 756 439 781 q 488 699 488 732 l 488 697 q 464 639 488 663 q 406 614 439 614 l 234 614 l 234 82 q 210 24 234 47 q 152 0 185 0 l 150 0 q 92 24 117 0 q 68 82 68 47 l 68 761 q 155 972 69 885 q 367 1059 243 1059 l 406 1059 z "},"g":{"ha":897,"x_min":47,"x_max":829,"o":"m 235 -10 q 438 -113 302 -113 q 591 -46 523 -113 q 663 112 663 22 q 438 0 585 0 q 162 115 277 0 q 47 391 47 229 q 162 667 47 552 q 438 781 277 781 q 713 667 599 781 q 829 392 828 554 l 829 112 q 706 -165 829 -47 q 438 -279 587 -279 q 96 -101 210 -279 q 82 -58 82 -80 q 87 -31 82 -44 q 137 21 99 7 l 139 22 q 172 28 156 28 q 235 -10 210 28 m 663 395 q 595 551 661 486 q 438 615 530 615 q 279 549 345 615 q 214 391 214 484 q 279 231 214 297 q 438 166 345 166 q 597 231 532 166 q 663 391 663 297 l 663 395 z "},"h":{"ha":791,"x_min":68,"x_max":724,"o":"m 152 1059 q 210 1036 185 1059 q 234 977 234 1011 l 234 741 q 396 781 288 781 q 627 685 531 781 q 724 453 724 589 l 724 82 q 699 24 724 47 q 642 0 676 0 l 640 0 q 582 24 606 0 q 557 82 557 47 l 557 453 q 511 568 557 520 q 396 615 463 615 q 281 568 328 615 q 234 453 234 520 l 234 82 q 210 24 234 47 q 152 0 185 0 l 150 0 q 92 24 117 0 q 68 82 68 47 l 68 977 q 92 1036 68 1011 q 150 1059 117 1059 l 152 1059 z "},"i":{"ha":353,"x_min":81,"x_max":271,"o":"m 177 781 q 235 757 212 781 q 259 699 259 732 l 259 82 q 235 24 259 47 q 177 0 212 0 l 176 0 q 117 24 142 0 q 93 82 93 47 l 93 699 q 117 757 93 732 q 176 781 142 781 l 177 781 m 176 869 q 109 897 137 869 q 81 964 81 925 q 109 1031 81 1003 q 176 1059 137 1059 q 243 1031 215 1059 q 271 964 271 1004 q 243 897 271 924 q 176 869 215 869 z "},"j":{"ha":359,"x_min":-142,"x_max":289,"o":"m -60 -279 q -118 -254 -94 -279 q -142 -197 -142 -230 l -142 -195 q -118 -137 -142 -161 q -60 -113 -94 -113 l -21 -113 q 73 -74 34 -113 q 112 20 111 -35 l 112 699 q 136 757 112 732 q 194 781 160 781 l 195 781 q 254 757 229 781 q 277 699 277 732 l 277 20 q 190 -191 276 -104 q -21 -279 104 -279 l -60 -279 m 194 871 q 127 899 155 871 q 99 966 99 926 q 127 1032 99 1004 q 194 1060 155 1060 q 260 1032 233 1060 q 289 966 289 1005 q 260 899 289 926 q 194 871 233 871 z "},"k":{"ha":728,"x_min":68,"x_max":680,"o":"m 152 1059 q 210 1036 185 1059 q 234 977 234 1011 l 234 507 l 260 507 q 411 565 347 507 q 483 707 474 623 q 510 760 487 739 q 565 781 533 781 l 567 781 q 627 754 603 781 q 649 699 649 730 q 648 690 649 695 q 518 435 632 520 q 628 311 578 399 q 680 117 680 221 l 680 82 q 656 24 680 47 q 598 0 631 0 l 596 0 q 538 24 563 0 q 514 82 514 47 l 514 117 q 448 275 513 209 q 290 340 382 340 l 234 340 l 234 82 q 210 24 234 47 q 152 0 185 0 l 150 0 q 92 24 117 0 q 68 82 68 47 l 68 977 q 92 1036 68 1011 q 150 1059 117 1059 l 152 1059 z "},"l":{"ha":356,"x_min":95,"x_max":261,"o":"m 179 1059 q 237 1036 212 1059 q 261 977 261 1011 l 261 82 q 237 24 261 47 q 179 0 212 0 l 177 0 q 119 24 144 0 q 95 82 95 47 l 95 977 q 119 1036 95 1011 q 177 1059 144 1059 l 179 1059 z "},"m":{"ha":1274,"x_min":68,"x_max":1206,"o":"m 234 82 q 210 24 234 47 q 152 0 185 0 l 150 0 q 92 24 117 0 q 68 82 68 47 l 68 455 q 163 686 68 589 q 394 781 259 781 q 637 674 555 781 q 880 781 719 781 q 1111 686 1015 781 q 1206 455 1206 589 l 1206 82 q 1183 24 1206 48 q 1124 0 1158 0 l 1123 0 q 1065 24 1088 0 q 1041 82 1041 47 l 1041 455 q 994 568 1041 522 q 880 615 947 615 q 767 568 814 615 q 720 455 720 522 l 720 82 q 696 24 720 47 q 638 0 673 0 l 637 0 q 578 24 603 0 q 554 82 554 47 l 554 455 q 507 568 554 522 q 394 615 460 615 q 281 568 328 615 q 234 455 234 522 l 234 82 z "},"n":{"ha":791,"x_min":68,"x_max":724,"o":"m 234 82 q 210 24 234 47 q 152 0 185 0 l 150 0 q 92 24 117 0 q 68 82 68 47 l 68 453 q 164 685 68 589 q 396 781 260 781 q 627 685 531 781 q 724 453 724 589 l 724 82 q 699 24 724 47 q 642 0 676 0 l 640 0 q 582 24 606 0 q 557 82 557 47 l 557 453 q 511 568 557 520 q 396 615 463 615 q 281 568 328 615 q 234 453 234 520 l 234 82 z "},"o":{"ha":876,"x_min":47,"x_max":829,"o":"m 438 614 q 279 548 345 614 q 214 389 214 482 q 279 230 214 296 q 438 164 345 164 q 597 230 531 164 q 663 389 663 296 q 597 548 663 482 q 438 614 531 614 m 438 781 q 714 667 600 781 q 829 391 829 552 q 714 115 829 229 q 438 0 600 0 q 162 115 277 0 q 47 391 47 229 q 162 667 47 552 q 438 781 277 781 z "},"p":{"ha":897,"x_min":68,"x_max":849,"o":"m 458 168 q 617 233 551 168 q 683 392 683 299 q 617 551 683 486 q 458 616 552 616 q 299 551 365 616 q 234 392 234 486 q 299 233 234 299 q 458 168 365 168 m 150 -279 q 92 -254 117 -279 q 68 -197 68 -230 l 68 392 q 183 667 68 554 q 458 781 297 781 q 734 667 620 781 q 849 391 849 552 q 734 115 849 229 q 458 0 620 0 q 234 68 311 0 l 234 -197 q 210 -254 234 -230 q 152 -279 185 -279 l 150 -279 z "},"q":{"ha":897,"x_min":47,"x_max":829,"o":"m 438 168 q 597 233 531 168 q 663 392 663 299 q 597 551 663 486 q 438 616 532 616 q 279 551 345 616 q 214 392 214 486 q 279 233 214 299 q 438 168 345 168 m 745 -279 q 687 -254 711 -279 q 663 -197 663 -230 l 663 68 q 438 0 585 0 q 162 115 277 0 q 47 391 47 229 q 162 667 47 552 q 438 781 277 781 q 713 667 599 781 q 829 392 828 553 l 829 -197 q 804 -254 829 -230 q 747 -279 780 -279 l 745 -279 z "},"r":{"ha":494,"x_min":68,"x_max":488,"o":"m 406 781 q 464 757 439 781 q 488 699 488 732 l 488 697 q 464 640 488 663 q 406 615 439 615 l 367 615 q 273 576 311 615 q 234 482 235 538 l 234 82 q 210 24 234 47 q 152 0 185 0 l 150 0 q 92 24 117 0 q 68 82 68 47 l 68 482 q 155 694 69 606 q 367 781 243 781 l 406 781 z "},"s":{"ha":577,"x_min":41,"x_max":536,"o":"m 278 615 q 228 595 248 615 q 208 545 208 574 q 247 484 208 504 q 360 450 260 476 q 480 389 441 427 q 536 237 536 336 q 467 69 536 139 q 300 0 397 0 l 123 0 q 65 24 90 0 q 41 82 41 47 l 41 83 q 65 142 41 117 q 123 166 90 166 l 307 166 q 357 186 336 166 q 377 237 377 207 q 338 293 377 274 q 224 327 328 298 q 104 389 144 351 q 48 545 48 444 q 117 711 48 642 q 285 781 187 781 l 410 781 q 468 757 444 781 q 492 699 492 732 l 492 697 q 468 640 492 663 q 410 615 444 615 l 278 615 z "},"t":{"ha":445,"x_min":68,"x_max":418,"o":"m 152 1059 q 210 1036 185 1059 q 234 977 234 1011 l 234 781 l 336 781 q 393 757 369 781 q 418 699 418 732 l 418 697 q 393 640 418 663 q 336 615 369 615 l 234 615 l 234 213 q 248 180 234 193 q 281 166 261 166 l 336 166 q 393 142 369 166 q 418 83 418 117 l 418 82 q 393 24 418 47 q 336 0 369 0 l 281 0 q 130 62 193 0 q 68 213 68 125 l 68 977 q 92 1036 68 1011 q 150 1059 117 1059 l 152 1059 z "},"u":{"ha":791,"x_min":68,"x_max":724,"o":"m 234 328 q 281 213 234 260 q 396 166 328 166 q 511 213 463 166 q 557 328 557 260 l 557 699 q 582 757 557 732 q 640 781 606 781 l 642 781 q 699 757 676 781 q 724 699 724 732 l 724 328 q 627 96 724 193 q 396 0 531 0 q 164 96 260 0 q 68 328 68 193 l 68 699 q 92 757 68 732 q 150 781 117 781 l 152 781 q 210 757 185 781 q 234 699 234 732 l 234 328 z "},"v":{"ha":778,"x_min":14,"x_max":764,"o":"m 389 230 l 604 731 q 680 781 625 781 l 681 781 q 749 744 725 781 q 764 700 764 723 q 756 667 764 684 l 505 79 q 389 0 473 0 q 273 79 304 0 l 21 667 q 14 699 14 684 q 28 744 14 722 q 97 781 53 781 l 99 781 q 174 731 153 781 q 361 294 336 352 q 389 230 361 292 z "},"w":{"ha":1274,"x_min":68,"x_max":1206,"o":"m 234 326 q 281 213 234 260 q 394 166 328 166 q 507 213 460 166 q 554 326 554 260 l 554 699 q 578 757 554 732 q 637 781 603 781 l 638 781 q 696 757 673 781 q 720 699 720 732 l 720 326 q 767 213 720 260 q 880 166 814 166 q 994 213 947 166 q 1041 326 1041 260 l 1041 699 q 1065 757 1041 732 q 1123 781 1088 781 l 1124 781 q 1183 757 1158 781 q 1206 699 1206 732 l 1206 326 q 1111 96 1206 191 q 880 0 1015 0 q 637 107 719 0 q 394 0 555 0 q 163 96 259 0 q 68 326 68 191 l 68 699 q 92 757 68 732 q 150 781 117 781 l 152 781 q 210 757 185 781 q 234 699 234 732 l 234 326 z "},"x":{"ha":771,"x_min":58,"x_max":713,"o":"m 224 639 q 271 524 224 572 q 386 477 318 477 q 500 524 453 477 q 547 639 547 572 l 547 699 q 572 757 547 732 q 630 781 596 781 l 631 781 q 689 757 666 781 q 713 699 713 732 l 713 639 q 605 394 713 476 q 713 149 713 311 l 713 82 q 689 24 713 47 q 631 0 666 0 l 630 0 q 572 24 596 0 q 547 82 547 47 l 547 149 q 500 264 547 216 q 386 311 453 311 q 271 264 318 311 q 224 149 224 216 l 224 82 q 199 24 224 47 q 142 0 175 0 l 140 0 q 82 24 106 0 q 58 82 58 47 l 58 149 q 166 394 58 311 q 58 639 58 476 l 58 699 q 82 757 58 732 q 140 781 106 781 l 142 781 q 199 757 175 781 q 224 699 224 732 l 224 639 z "},"y":{"ha":791,"x_min":68,"x_max":724,"o":"m 234 342 q 281 228 234 275 q 396 180 328 180 q 510 228 463 180 q 557 342 557 275 l 557 699 q 582 757 557 732 q 640 781 606 781 l 642 781 q 699 757 676 781 q 724 699 724 732 l 724 50 q 623 -182 724 -85 q 396 -279 524 -279 q 211 -229 294 -279 q 87 -98 130 -180 q 78 -61 78 -79 q 85 -30 78 -45 q 132 17 98 5 l 135 18 q 164 23 150 23 q 193 18 179 23 q 235 -21 221 6 q 300 -87 257 -62 q 396 -113 345 -113 q 509 -65 460 -113 q 557 50 557 -16 l 557 55 q 396 15 504 15 q 164 111 260 15 q 68 342 68 207 l 68 699 q 92 757 68 732 q 150 781 117 781 l 152 781 q 210 757 185 781 q 234 699 234 732 l 234 342 z "},"z":{"ha":734,"x_min":44,"x_max":693,"o":"m 268 168 l 611 168 q 669 144 645 168 q 693 85 693 119 l 693 84 q 669 26 693 50 q 611 2 645 2 l 168 2 q 56 77 88 2 q 44 131 44 105 q 83 215 44 176 q 285 427 149 284 q 467 617 404 551 l 153 617 q 95 642 119 617 q 71 699 71 666 l 71 701 q 95 759 71 734 q 153 783 119 783 l 563 783 q 677 708 645 783 q 690 654 690 680 q 651 570 690 608 q 268 168 431 340 z "},"{":{"ha":500,"x_min":34,"x_max":466,"o":"m 92 469 q 127 487 113 475 q 164 549 155 510 q 176 698 176 601 q 178 856 176 825 q 203 954 185 917 q 249 1016 221 993 q 319 1052 277 1040 q 398 1059 345 1059 q 446 1040 426 1059 q 466 991 466 1019 l 466 978 q 448 932 466 951 q 404 911 430 913 q 347 893 361 908 q 328 750 330 873 q 322 566 325 583 q 239 389 297 416 q 324 183 303 362 q 330 43 330 129 q 332 -72 330 -58 q 351 -123 336 -110 q 403 -136 364 -133 q 448 -156 429 -136 q 466 -203 466 -176 l 466 -216 q 446 -264 466 -245 q 398 -283 426 -283 q 304 -271 336 -283 q 224 -215 256 -254 q 182 -117 193 -176 q 174 60 174 -65 l 174 72 q 163 225 174 176 q 126 288 153 265 q 92 306 111 300 q 34 385 34 324 l 34 391 q 92 469 34 452 z "},"|":{"ha":437,"x_min":136,"x_max":299,"o":"m 136 1059 l 299 1059 l 299 -282 l 136 -282 l 136 1059 z "},"}":{"ha":500,"x_min":34,"x_max":466,"o":"m 408 469 q 466 391 466 452 l 466 385 q 408 306 466 324 q 374 288 389 300 q 338 225 347 266 q 326 60 326 173 q 317 -117 326 -65 q 276 -215 308 -176 q 195 -271 244 -254 q 102 -283 164 -283 q 54 -264 74 -283 q 34 -216 34 -245 l 34 -203 q 52 -156 34 -176 q 97 -136 71 -136 q 149 -123 136 -133 q 169 -72 164 -110 q 170 43 170 -58 q 176 183 170 129 q 261 389 197 362 q 178 566 203 416 q 172 750 175 583 q 152 893 170 873 q 97 911 140 908 q 52 932 70 913 q 34 978 34 951 l 34 991 q 54 1040 34 1019 q 102 1059 74 1059 q 181 1052 155 1059 q 251 1016 224 1040 q 297 954 279 993 q 321 856 315 917 q 324 698 324 825 q 336 549 324 602 q 373 487 345 510 q 408 469 388 475 z "},"~":{"ha":715,"x_min":25,"x_max":690,"o":"m 43 518 q 209 591 106 586 q 225 592 217 592 q 298 583 260 592 q 377 558 328 576 q 447 534 429 540 q 501 526 477 526 l 510 526 q 591 559 549 528 q 626 570 608 570 q 654 564 640 570 q 680 537 671 555 q 690 504 687 524 q 690 492 690 498 q 688 470 690 480 q 670 439 682 451 q 596 390 635 406 q 507 370 556 373 q 490 370 498 370 q 410 380 451 370 q 321 412 381 388 q 215 436 258 436 l 207 436 q 124 406 163 434 q 94 393 111 395 l 91 393 q 62 399 76 393 q 37 424 46 407 q 26 455 28 437 q 25 470 25 463 q 27 488 25 479 q 43 518 31 507 z "},"¡":{"ha":326,"x_min":27,"x_max":217,"o":"m 39 165 l 63 473 l 182 473 l 205 165 l 205 -237 q 181 -295 205 -271 q 123 -319 157 -319 l 121 -319 q 64 -295 88 -319 q 39 -237 39 -271 l 39 165 m 122 741 q 189 713 161 741 q 217 646 217 685 q 189 579 217 607 q 122 551 161 551 q 56 579 83 551 q 27 646 27 606 q 56 713 27 686 q 122 741 83 741 z "},"¢":{"ha":768,"x_min":33,"x_max":749,"o":"m 277 208 l 387 637 q 263 566 316 633 q 205 392 205 487 q 269 218 205 301 q 277 208 275 211 m 513 586 l 401 146 l 408 146 q 591 282 518 146 l 749 247 q 622 53 701 118 q 397 -18 527 -18 q 360 -16 369 -18 l 294 -277 l 153 -277 l 232 30 q 146 103 193 52 q 33 392 33 227 q 139 681 33 561 q 397 802 245 802 q 429 801 422 802 l 490 1041 l 630 1041 l 559 764 q 610 732 578 755 q 739 534 692 665 l 572 505 q 513 586 544 555 z "},"£":{"ha":828,"x_min":68,"x_max":760,"o":"m 583 785 q 532 863 570 832 q 441 894 492 894 q 336 850 380 894 q 293 745 293 807 l 293 564 l 488 564 q 547 539 522 564 q 570 481 570 515 l 570 479 q 547 422 570 446 q 488 397 522 397 l 293 397 l 293 166 l 677 166 q 736 142 711 166 q 760 83 760 117 l 760 82 q 736 24 760 47 q 677 0 711 0 l 209 0 q 151 24 176 0 q 127 82 127 47 l 127 397 l 127 397 q 85 415 103 397 q 68 458 68 433 l 68 503 q 85 546 68 528 q 127 564 103 564 l 127 564 l 127 745 q 219 967 127 876 q 441 1059 311 1059 q 633 994 548 1059 q 744 829 716 930 q 747 806 747 817 q 730 758 747 780 q 665 725 706 725 l 663 725 q 583 785 600 725 z "},"¤":{"ha":838,"x_min":26,"x_max":812,"o":"m 418 718 q 291 665 344 718 q 237 536 237 612 q 291 408 237 460 q 418 355 344 355 q 547 408 494 355 q 600 536 600 460 q 547 665 600 612 q 418 718 494 718 m 134 707 l 26 815 l 139 928 l 247 821 q 419 868 314 868 q 592 821 524 868 l 699 928 l 812 817 l 704 709 q 751 536 751 641 q 704 363 751 431 l 812 256 l 699 144 l 591 251 q 419 204 524 204 q 247 251 314 204 l 140 144 l 26 256 l 134 363 q 87 536 87 432 q 134 707 87 640 z "},"¥":{"ha":824,"x_min":-6,"x_max":831,"o":"m 486 153 l 486 0 l 326 0 l 326 153 l 133 153 l 133 277 l 326 277 l 326 354 l 133 354 l 133 485 l 307 485 l -6 1102 l 165 1102 l 406 603 l 665 1102 l 831 1102 l 506 485 l 691 485 l 691 354 l 486 354 l 486 277 l 691 277 l 691 153 l 486 153 z "},"¦":{"ha":368,"x_min":102,"x_max":267,"o":"m 102 1101 l 267 1101 l 267 488 l 102 488 l 102 1101 m 102 299 l 267 299 l 267 -314 l 102 -314 l 102 299 z "},"§":{"ha":770,"x_min":47,"x_max":739,"o":"m 616 170 q 697 96 659 149 q 730 26 720 64 q 739 -45 739 -7 l 739 -59 q 674 -222 736 -151 q 530 -317 619 -286 q 408 -338 469 -338 l 397 -338 q 47 -35 106 -330 l 201 -8 q 317 -179 230 -136 q 393 -197 348 -193 q 410 -197 402 -197 q 540 -147 488 -197 q 576 -87 567 -121 q 581 -52 581 -68 q 566 1 581 -22 q 486 62 544 36 q 376 99 436 82 q 158 198 218 145 q 81 387 81 267 q 187 610 81 532 q 199 619 199 618 q 199 620 199 620 q 193 617 198 620 q 158 645 185 621 q 81 833 81 714 q 187 1057 81 979 q 329 1115 246 1100 q 397 1120 362 1120 l 412 1120 q 620 1053 543 1116 q 726 840 700 989 l 568 817 q 473 963 545 928 q 399 978 442 978 q 293 945 338 978 q 243 852 245 909 l 243 848 q 252 795 243 819 q 277 756 260 773 q 345 714 306 727 q 462 680 384 701 q 697 543 636 628 q 730 473 720 511 q 739 402 739 440 l 739 388 q 674 224 736 296 q 616 170 635 180 m 401 250 l 413 250 q 540 300 488 250 q 576 359 567 326 q 581 395 581 378 q 566 448 581 425 q 486 509 544 483 q 433 528 460 519 q 399 531 418 531 q 293 498 338 531 q 243 406 245 463 l 243 401 q 252 349 243 372 q 277 309 260 326 q 342 269 306 280 q 401 250 367 260 z "},"¨":{"ha":572,"x_min":68,"x_max":504,"o":"m 163 802 q 96 830 123 802 q 68 897 68 858 q 96 964 68 936 q 163 991 123 991 q 229 964 201 991 q 258 897 258 937 q 229 830 258 857 q 163 802 201 802 m 409 802 q 342 830 370 802 q 314 897 314 858 q 342 964 314 936 q 409 991 370 991 q 475 964 448 991 q 504 897 504 937 q 475 830 504 857 q 409 802 448 802 z "},"©":{"ha":1246,"x_min":75,"x_max":1167,"o":"m 804 637 q 753 734 791 698 q 631 782 704 782 q 495 724 551 782 q 439 584 439 667 l 439 463 q 495 324 439 381 q 631 265 551 265 q 751 311 702 265 q 808 433 799 356 l 903 424 q 812 242 887 311 q 631 171 736 171 q 424 258 509 171 q 340 467 340 345 l 340 580 q 424 789 340 703 q 631 877 509 877 q 812 805 736 877 q 896 655 876 747 l 804 637 m 621 1060 q 890 989 759 1060 q 1094 787 1021 919 q 1167 513 1167 656 q 1095 242 1167 372 q 893 39 1023 111 q 621 -33 763 -33 q 350 39 479 -33 q 147 242 220 111 q 75 513 75 372 q 148 787 75 656 q 353 989 222 919 q 621 1060 484 1060 m 621 970 q 397 911 506 970 q 227 742 288 852 q 165 513 165 632 q 225 287 165 395 q 395 118 286 179 q 621 58 503 58 q 848 118 739 58 q 1017 287 956 179 q 1077 513 1077 395 q 1016 742 1077 632 q 845 911 954 852 q 621 970 736 970 z "},"ª":{"ha":665,"x_min":68,"x_max":597,"o":"m 332 1059 q 519 989 442 1059 q 597 817 597 918 l 597 631 q 578 591 597 608 q 536 574 560 574 l 535 574 q 492 591 511 574 q 474 631 474 608 q 332 574 431 574 q 146 645 223 574 q 68 817 68 716 q 146 989 68 918 q 332 1059 223 1059 m 332 943 q 231 905 273 943 q 191 817 191 869 q 231 728 191 764 q 332 690 273 690 q 433 728 391 690 q 474 817 474 764 q 433 905 474 869 q 332 943 391 943 z "},"«":{"ha":768,"x_min":20,"x_max":781,"o":"m 298 781 l 514 781 l 203 509 l 514 237 l 298 237 l 39 466 q 20 509 20 483 q 39 552 20 535 l 298 781 m 566 781 l 781 781 l 470 509 l 781 237 l 566 237 l 307 466 q 288 509 288 483 q 307 552 288 535 l 566 781 z "},"¬":{"ha":751,"x_min":88,"x_max":663,"o":"m 88 594 l 663 594 l 663 237 l 532 237 l 532 471 l 88 471 l 88 594 z "},"®":{"ha":1228,"x_min":68,"x_max":1160,"o":"m 614 1060 q 883 989 752 1060 q 1087 787 1014 919 q 1160 513 1160 656 q 1088 242 1160 372 q 886 39 1017 111 q 614 -33 756 -33 q 343 39 473 -33 q 140 242 213 111 q 68 513 68 372 q 141 787 68 656 q 346 989 215 919 q 614 1060 477 1060 m 614 970 q 390 911 499 970 q 220 742 281 852 q 158 513 158 632 q 219 287 158 395 q 388 118 279 179 q 614 58 496 58 q 841 118 732 58 q 1010 287 949 179 q 1070 513 1070 395 q 1009 742 1070 632 q 838 911 947 852 q 614 970 729 970 m 417 839 l 677 838 q 807 783 753 838 q 861 653 861 729 q 794 510 861 566 q 657 467 751 467 l 659 467 l 867 143 l 775 143 l 566 467 l 503 467 l 503 143 l 417 143 l 417 839 m 677 547 q 750 579 720 548 q 780 653 780 610 q 750 726 780 696 q 677 758 720 757 l 503 758 l 503 547 l 677 547 z "},"¯":{"ha":646,"x_min":34,"x_max":557,"o":"m 557 964 q 533 906 557 929 q 475 882 509 882 l 116 882 q 58 906 81 882 q 34 964 34 929 l 34 965 q 58 1023 34 999 q 116 1048 81 1048 l 475 1048 q 533 1023 509 1048 q 557 965 557 999 l 557 964 z "},"°":{"ha":612,"x_min":68,"x_max":544,"o":"m 210 842 q 236 779 210 806 q 298 753 262 753 l 313 753 q 376 779 349 753 q 402 842 402 806 q 376 905 402 878 q 313 930 350 930 l 298 930 q 236 905 262 930 q 210 842 210 878 m 68 842 q 134 1001 68 935 q 294 1067 201 1067 l 317 1067 q 477 1001 410 1067 q 544 842 544 935 q 477 682 544 749 q 317 616 410 616 l 294 616 q 134 682 201 616 q 68 842 68 749 z "},"±":{"ha":781,"x_min":34,"x_max":747,"o":"m 474 735 l 665 735 q 723 711 699 735 q 747 652 747 686 l 747 651 q 723 593 747 616 q 665 569 699 569 l 474 569 l 474 378 q 450 320 474 345 q 391 296 425 296 l 390 296 q 332 320 355 296 q 308 378 308 345 l 308 569 l 116 569 q 58 593 81 569 q 34 651 34 616 l 34 652 q 58 711 34 686 q 116 735 81 735 l 308 735 l 308 927 q 332 985 308 962 q 390 1009 355 1009 l 391 1009 q 450 985 425 1009 q 474 927 474 962 l 474 735 m 747 143 q 723 85 747 109 q 665 61 699 61 l 116 61 q 58 85 81 61 q 34 143 34 109 l 34 144 q 58 203 34 178 q 116 227 81 227 l 665 227 q 723 203 699 227 q 747 144 747 178 l 747 143 z "},"´":{"ha":462,"x_min":123,"x_max":442,"o":"m 258 861 q 222 845 241 845 l 170 845 q 129 871 141 845 q 123 891 123 881 q 133 918 123 905 l 252 1088 q 290 1107 265 1107 l 394 1107 q 435 1081 423 1107 q 442 1059 442 1069 q 429 1031 442 1044 l 258 861 z "},"µ":{"ha":805,"x_min":75,"x_max":730,"o":"m 241 38 l 241 -197 q 216 -254 241 -231 q 159 -279 192 -279 l 157 -279 q 99 -254 123 -279 q 75 -197 75 -231 l 75 699 q 99 757 75 732 q 157 781 123 781 l 159 781 q 216 756 192 781 q 241 698 241 732 l 241 327 q 288 212 241 260 q 403 165 335 165 q 517 212 470 165 q 564 327 564 260 l 564 699 q 589 757 564 732 q 646 781 613 781 l 648 781 q 706 757 682 781 q 730 699 730 732 l 730 7 q 706 -51 730 -28 q 648 -75 682 -75 l 646 -75 q 589 -51 613 -75 q 564 7 564 -28 l 564 38 q 403 -1 539 -1 q 241 38 266 -1 z "},"¶":{"ha":765,"x_min":68,"x_max":727,"o":"m 727 959 l 668 959 l 668 0 l 526 0 l 526 959 l 484 959 l 484 0 l 336 0 l 336 479 q 144 585 220 497 q 68 787 68 672 q 144 989 68 901 q 355 1101 224 1090 l 727 1101 l 727 959 z "},"·":{"ha":414,"x_min":68,"x_max":838,"o":"m 68 286 l 68 1272 l 837 1272 l 837 286 l 68 286 m 88 309 l 817 309 l 817 1255 l 88 1255 l 88 309 m 428 720 l 430 720 l 436 720 l 436 709 q 437 637 437 669 l 433 636 l 430 636 q 428 715 428 677 l 428 717 l 428 720 m 716 720 l 716 720 l 724 720 q 724 712 724 715 q 726 637 724 681 l 719 636 l 717 636 q 715 710 716 669 q 716 720 716 717 m 466 718 l 468 718 q 472 711 468 716 q 470 693 470 700 l 470 683 q 478 650 470 658 l 479 650 q 499 717 491 650 l 500 717 q 508 715 507 715 q 504 665 504 681 q 511 647 504 647 q 512 636 512 638 l 508 636 q 496 654 500 636 l 496 654 q 480 638 489 638 l 477 638 q 462 673 466 638 q 461 686 461 675 l 461 692 q 466 718 461 707 m 641 718 l 644 718 q 660 701 651 718 q 667 676 667 689 l 667 671 q 644 637 667 650 q 636 636 640 636 l 632 636 q 612 660 615 636 l 612 666 q 635 716 612 695 q 641 718 640 718 m 154 715 l 159 715 q 175 692 175 712 q 156 664 175 673 q 140 660 149 661 l 140 639 l 140 639 q 132 640 137 639 l 132 660 l 129 660 l 126 660 q 129 671 126 667 l 132 671 l 132 671 q 128 695 132 695 q 125 701 125 699 q 154 715 135 715 m 621 666 l 621 661 q 635 647 621 649 q 656 663 648 647 q 659 673 659 667 l 659 675 q 644 705 659 690 q 643 707 643 705 q 622 678 633 707 q 621 666 621 671 m 139 700 q 140 673 140 680 q 140 671 140 673 q 162 681 157 675 q 166 692 166 687 q 158 704 166 702 l 154 704 q 139 700 139 702 m 243 701 q 259 673 254 701 q 251 671 259 673 q 243 690 247 690 q 232 647 233 685 q 232 638 232 639 q 223 637 226 637 q 216 687 216 677 q 225 688 223 688 l 225 688 q 226 677 225 685 l 227 677 q 243 701 233 701 m 320 698 q 339 680 331 698 q 340 670 340 674 l 340 668 q 320 637 340 647 q 315 637 317 637 q 299 659 299 639 q 313 696 299 688 q 320 698 315 697 m 364 698 q 385 647 375 698 q 385 643 385 647 q 379 639 381 639 q 365 685 370 674 q 355 644 360 677 q 352 639 354 644 l 348 639 q 343 671 344 639 q 342 685 342 680 q 350 686 346 686 q 351 674 351 676 l 352 674 q 364 698 356 698 m 693 698 q 713 643 702 698 q 706 639 708 639 q 692 685 697 677 q 681 642 689 678 q 679 639 679 639 l 675 639 q 670 685 671 639 q 678 686 673 686 q 679 673 679 675 l 679 673 q 693 698 683 698 m 282 697 q 293 687 293 694 l 293 686 q 287 682 293 685 l 286 682 q 279 686 284 686 q 270 680 271 686 q 286 676 270 677 q 298 656 298 670 q 286 637 298 642 l 282 636 l 279 636 q 259 649 265 636 l 259 650 q 264 656 260 651 l 265 656 q 281 647 272 647 q 289 656 289 650 q 277 665 287 665 q 261 678 261 665 l 261 680 q 282 697 261 697 m 536 697 q 547 686 543 697 l 547 686 q 539 682 541 682 q 533 686 539 685 q 523 680 526 686 l 523 680 q 540 676 523 677 q 551 655 551 671 q 537 636 551 640 l 532 636 q 512 649 519 636 l 512 650 q 518 656 517 656 l 519 656 q 534 647 525 647 q 542 656 542 650 q 533 665 542 663 q 516 671 519 665 q 515 680 515 678 q 536 697 515 697 m 730 696 l 730 696 q 738 695 738 695 q 738 680 738 685 l 738 675 q 745 655 739 655 l 746 655 q 756 693 756 662 l 756 693 l 765 693 l 765 692 q 769 641 769 647 q 751 609 769 614 q 749 609 750 609 l 746 609 q 732 620 735 609 q 732 625 732 622 l 732 625 q 734 634 732 634 l 734 634 q 741 631 739 631 l 741 625 q 746 620 741 621 l 747 620 q 760 644 760 620 q 760 656 760 647 l 759 656 q 744 643 754 643 l 743 643 q 729 670 732 643 l 729 680 q 730 696 729 685 m 201 696 q 214 683 214 693 l 214 680 q 192 659 214 668 l 186 659 q 196 650 186 652 q 208 660 202 650 l 210 660 q 215 651 215 653 q 198 639 205 639 l 193 639 q 176 665 178 639 q 195 695 176 688 l 201 696 m 403 696 l 409 696 q 425 670 425 690 q 424 650 424 658 q 425 640 424 650 q 418 636 420 636 l 417 636 l 416 642 q 403 637 409 637 l 399 637 q 386 650 386 639 l 386 654 q 404 674 386 671 q 416 671 411 674 l 416 671 q 406 686 414 686 q 396 680 401 686 l 394 680 q 389 686 393 681 l 389 688 q 403 696 396 696 m 577 696 q 591 682 591 693 q 566 659 591 666 l 562 659 l 562 658 q 572 650 566 650 q 585 660 577 650 l 585 660 q 591 653 586 660 q 579 640 591 648 q 573 639 576 639 l 569 639 q 553 664 555 639 q 570 695 553 687 l 577 696 m 308 659 q 315 649 309 649 l 316 649 q 331 669 330 653 l 331 671 q 320 686 328 686 l 319 686 q 308 667 311 686 q 308 659 308 663 m 186 671 q 205 681 197 671 l 205 682 q 200 684 201 684 q 186 673 191 684 l 186 671 m 562 671 l 564 671 q 582 682 574 671 q 577 684 579 684 l 575 684 q 562 671 566 684 l 562 671 m 395 653 l 395 651 q 400 648 395 650 q 415 658 410 648 q 404 662 410 662 q 395 653 395 660 m 366 595 q 375 576 374 595 l 375 574 l 372 573 l 370 573 q 366 586 369 586 q 361 575 362 586 q 362 572 362 573 q 363 550 362 567 q 368 552 366 552 l 370 552 l 370 543 l 364 541 q 366 501 366 508 l 360 501 q 358 539 358 533 l 357 539 q 351 538 354 538 l 351 548 q 357 549 355 548 q 355 579 355 561 q 365 595 357 595 l 366 595 m 481 595 q 490 574 487 595 l 485 573 l 484 573 l 484 574 q 480 586 484 583 q 475 577 475 583 q 477 550 475 572 q 477 550 477 550 q 483 552 480 552 l 483 552 l 484 547 l 484 543 q 477 541 483 543 l 478 539 q 481 501 478 533 l 474 501 q 472 539 474 505 q 465 538 467 538 l 465 548 l 471 548 q 470 578 470 575 q 481 595 470 595 m 419 586 l 421 586 l 425 586 l 425 580 q 426 504 425 545 l 420 504 q 419 563 419 542 l 419 586 m 434 586 l 434 586 l 439 586 l 439 568 q 441 504 439 550 l 434 504 q 433 583 433 542 l 433 584 q 434 586 433 586 m 315 584 q 321 583 320 583 q 320 558 320 566 l 321 558 l 328 560 l 328 550 q 320 549 327 550 l 322 506 l 321 505 l 316 505 q 313 548 315 522 l 306 548 l 306 557 l 312 558 l 313 558 l 313 568 q 315 584 313 584 m 583 584 q 590 583 585 584 q 588 566 588 575 l 588 558 l 590 558 l 597 560 l 597 550 l 595 550 l 588 549 l 591 506 l 588 505 l 585 505 q 583 548 583 541 l 574 548 l 575 553 l 575 557 l 581 558 l 582 558 l 582 558 q 583 584 582 571 m 667 584 q 674 583 669 584 q 673 563 673 572 l 673 558 l 674 558 l 681 560 l 681 555 l 681 550 q 673 549 681 550 l 673 545 q 675 506 673 537 l 674 505 l 669 505 l 667 548 l 659 548 l 659 557 l 666 558 l 666 558 l 667 584 m 243 582 l 249 582 q 262 569 257 582 q 259 564 259 565 l 257 564 q 245 572 252 572 q 225 557 235 572 q 219 538 219 546 l 219 535 q 233 515 219 518 q 238 514 234 514 q 256 526 256 516 l 256 531 q 249 533 253 533 l 243 533 l 243 543 q 262 538 259 543 q 263 533 263 534 q 262 516 262 518 q 264 501 262 509 q 260 498 264 501 l 259 498 q 256 511 257 498 q 239 504 252 506 l 238 504 q 213 533 216 504 l 213 535 q 239 581 213 569 l 243 582 m 509 564 q 529 542 523 564 l 529 534 q 509 505 529 514 l 505 504 q 491 516 496 504 q 490 526 490 522 l 490 528 q 501 561 490 552 q 509 564 506 564 m 554 564 q 573 509 562 564 l 573 509 q 568 507 570 507 q 554 553 559 546 q 540 507 550 549 l 539 507 l 537 507 q 532 550 534 507 l 536 552 l 538 552 q 539 533 539 542 l 540 533 q 554 564 545 564 m 291 561 q 302 550 302 559 q 303 549 303 550 q 283 528 303 535 q 274 526 280 526 l 274 526 q 284 516 274 519 l 285 516 q 298 525 290 516 l 300 525 q 303 520 300 524 l 303 519 q 286 507 295 507 l 283 507 q 267 525 272 507 l 267 534 q 282 560 267 553 q 291 561 285 561 m 634 561 l 641 561 q 655 545 650 561 q 656 535 656 536 q 655 520 656 531 q 656 507 656 518 l 652 504 l 651 504 l 649 511 q 634 505 643 505 l 632 505 q 620 516 620 507 l 620 521 q 637 539 622 539 q 649 535 644 539 l 649 537 q 639 553 649 551 l 637 553 q 628 549 634 553 l 627 549 q 623 553 626 549 l 623 554 q 634 561 629 561 m 376 560 q 382 558 377 560 q 390 516 382 516 q 406 554 401 523 q 407 560 407 557 l 407 560 q 413 558 409 560 q 411 533 411 545 l 411 526 q 414 515 411 520 q 411 508 411 511 l 410 508 q 406 523 406 511 l 404 523 q 393 507 402 515 l 388 507 q 377 550 377 507 l 377 556 l 376 560 m 496 528 q 505 515 497 515 l 505 515 q 521 529 515 515 q 523 535 523 534 q 510 553 519 553 l 508 553 q 496 528 499 553 m 274 535 q 296 548 287 535 q 290 552 295 552 l 288 552 q 274 535 277 552 m 626 519 q 632 515 628 515 l 636 515 q 648 525 644 515 q 638 530 643 530 l 637 530 q 626 519 626 528 m 302 475 q 312 473 303 475 q 309 420 310 451 q 315 380 309 400 q 308 374 309 374 l 308 374 q 304 382 306 374 l 303 382 q 291 372 303 377 q 264 396 272 372 q 262 413 262 403 q 282 446 262 440 l 284 446 q 301 437 292 446 l 301 437 q 302 475 301 442 m 192 471 l 201 469 q 200 448 200 455 l 200 440 q 208 441 207 441 q 210 428 210 430 l 208 428 q 200 427 203 427 q 203 375 202 391 q 193 373 196 373 l 193 374 q 190 425 190 409 l 189 426 l 181 426 l 181 440 l 189 440 l 189 445 q 192 471 189 471 m 399 471 l 399 471 l 408 469 q 407 443 407 452 l 407 440 q 416 441 415 441 l 417 433 l 417 428 q 407 426 407 427 q 410 375 407 413 q 400 373 403 373 l 400 374 q 398 426 398 417 l 387 426 l 387 440 l 397 440 q 399 471 397 459 m 325 470 q 331 462 330 470 l 331 461 q 327 452 331 455 l 323 452 q 318 462 318 455 q 325 470 319 470 m 360 446 q 384 424 374 446 q 385 414 385 418 l 385 409 q 362 375 385 386 q 355 373 360 373 q 336 397 339 373 l 336 405 q 354 445 336 435 q 360 446 359 446 m 471 446 l 474 446 q 481 444 481 446 l 481 443 q 491 446 486 446 q 511 421 506 446 q 511 413 511 414 q 493 376 509 383 l 489 375 l 483 375 l 483 371 q 484 347 483 367 l 474 347 q 471 446 471 424 m 538 446 q 560 426 551 446 q 562 412 562 418 q 540 375 562 387 q 532 373 536 373 q 515 389 520 373 q 513 402 513 396 q 531 445 513 433 q 538 446 537 446 m 654 446 q 677 426 668 446 q 679 415 679 421 l 679 410 q 656 375 679 386 q 649 373 654 373 q 630 397 633 373 l 630 405 q 648 445 630 435 q 654 446 653 446 m 708 446 q 724 413 718 446 l 724 413 q 740 446 729 446 l 741 446 q 764 378 754 446 l 762 378 q 755 375 756 375 l 754 375 q 740 432 743 432 q 730 384 734 419 q 724 379 728 379 q 718 387 720 379 q 707 431 711 431 q 698 377 698 398 q 688 375 692 375 l 688 376 l 681 436 q 691 439 689 439 q 693 421 692 435 l 694 421 q 708 446 700 446 m 159 445 q 173 433 173 443 l 173 433 q 166 428 172 432 l 164 428 q 157 432 164 432 l 156 432 q 144 426 149 432 l 144 424 q 162 421 144 421 q 178 399 178 414 l 178 396 q 165 374 178 380 q 159 372 162 372 l 154 372 q 132 387 141 372 q 138 396 132 390 l 140 396 q 157 386 144 386 q 168 397 168 386 q 155 407 168 406 q 137 414 140 407 q 135 421 135 419 l 135 426 q 159 445 135 445 m 421 445 q 430 443 428 443 q 429 423 429 429 l 429 420 q 436 394 429 401 l 439 394 q 452 436 452 405 l 452 441 l 462 441 l 462 441 q 466 382 466 390 l 466 376 q 450 341 466 350 q 441 339 444 339 q 424 350 428 339 q 423 356 423 353 l 423 361 q 425 369 423 369 l 433 365 l 433 361 l 433 358 q 439 353 433 354 l 441 353 q 456 372 453 353 q 456 379 456 374 l 456 390 l 456 398 l 455 398 q 438 380 449 380 l 437 380 q 420 409 424 380 q 419 421 419 414 l 419 426 q 421 445 419 445 m 606 444 l 610 444 q 619 439 614 444 q 625 429 625 432 q 618 421 619 421 l 618 421 q 608 430 612 430 l 607 430 q 596 414 600 427 l 594 402 q 602 388 594 389 l 604 388 q 623 397 610 388 l 624 397 q 628 384 628 386 q 600 374 613 374 q 584 401 587 374 q 595 437 584 420 q 606 444 602 444 m 320 443 l 327 443 l 330 443 q 330 438 330 441 q 332 375 330 399 l 321 375 l 321 380 q 320 443 320 419 m 212 443 q 222 439 222 440 l 222 428 q 229 389 222 389 l 232 389 q 245 421 241 400 q 249 443 248 426 l 250 443 q 259 439 259 441 q 257 405 257 415 l 257 399 q 260 388 257 394 q 254 377 260 384 l 254 377 q 247 392 247 384 l 247 392 q 230 375 240 375 l 229 375 q 212 429 212 375 l 212 443 m 272 410 q 289 387 272 391 l 291 387 q 300 402 298 387 l 300 404 q 287 432 300 425 l 284 432 l 283 432 q 272 412 273 432 l 272 410 m 346 402 q 355 387 346 389 l 357 387 q 374 404 366 387 q 375 409 375 406 l 375 414 q 361 432 371 432 l 360 432 q 346 402 348 432 m 481 428 q 482 389 481 426 l 486 388 q 501 413 499 388 q 491 432 500 432 l 491 432 q 481 428 485 432 m 523 402 l 523 399 q 532 387 523 389 l 533 387 q 550 402 542 387 q 553 413 553 407 q 536 432 549 432 q 523 402 525 432 m 640 402 q 649 387 640 387 l 651 387 q 668 405 659 387 q 669 410 669 408 l 669 414 q 655 432 664 432 l 654 432 q 640 402 643 432 m 573 394 q 580 386 579 394 l 580 383 q 573 375 579 375 q 567 384 568 375 q 573 394 568 394 m 423 1237 l 423 1098 l 273 1098 q 214 1076 242 1098 l 214 1082 q 423 1237 298 1237 m 471 1237 l 477 1237 q 638 1152 553 1237 q 670 1098 670 1112 l 471 1098 l 471 1237 m 257 1050 l 423 1050 l 423 995 q 380 1006 403 1006 l 257 1006 q 246 1017 246 1006 l 246 1039 q 257 1050 248 1050 m 471 1050 l 692 1050 l 697 995 l 697 985 q 622 813 697 878 l 525 813 q 471 867 471 820 l 471 1050 m 198 1006 l 203 1006 q 283 958 203 965 l 385 958 q 423 920 423 958 l 423 861 q 364 813 423 813 l 273 813 q 198 974 198 882 l 198 1006 m 445 797 l 450 797 q 558 765 485 765 l 558 759 q 450 738 496 738 l 445 738 q 337 759 399 738 l 337 765 q 445 797 413 765 z "},"∙":{"ha":414,"x_min":68,"x_max":838,"o":"m 68 286 l 68 1272 l 837 1272 l 837 286 l 68 286 m 88 309 l 817 309 l 817 1255 l 88 1255 l 88 309 m 428 720 l 430 720 l 436 720 l 436 709 q 437 637 437 669 l 433 636 l 430 636 q 428 715 428 677 l 428 717 l 428 720 m 716 720 l 716 720 l 724 720 q 724 712 724 715 q 726 637 724 681 l 719 636 l 717 636 q 715 710 716 669 q 716 720 716 717 m 466 718 l 468 718 q 472 711 468 716 q 470 693 470 700 l 470 683 q 478 650 470 658 l 479 650 q 499 717 491 650 l 500 717 q 508 715 507 715 q 504 665 504 681 q 511 647 504 647 q 512 636 512 638 l 508 636 q 496 654 500 636 l 496 654 q 480 638 489 638 l 477 638 q 462 673 466 638 q 461 686 461 675 l 461 692 q 466 718 461 707 m 641 718 l 644 718 q 660 701 651 718 q 667 676 667 689 l 667 671 q 644 637 667 650 q 636 636 640 636 l 632 636 q 612 660 615 636 l 612 666 q 635 716 612 695 q 641 718 640 718 m 154 715 l 159 715 q 175 692 175 712 q 156 664 175 673 q 140 660 149 661 l 140 639 l 140 639 q 132 640 137 639 l 132 660 l 129 660 l 126 660 q 129 671 126 667 l 132 671 l 132 671 q 128 695 132 695 q 125 701 125 699 q 154 715 135 715 m 621 666 l 621 661 q 635 647 621 649 q 656 663 648 647 q 659 673 659 667 l 659 675 q 644 705 659 690 q 643 707 643 705 q 622 678 633 707 q 621 666 621 671 m 139 700 q 140 673 140 680 q 140 671 140 673 q 162 681 157 675 q 166 692 166 687 q 158 704 166 702 l 154 704 q 139 700 139 702 m 243 701 q 259 673 254 701 q 251 671 259 673 q 243 690 247 690 q 232 647 233 685 q 232 638 232 639 q 223 637 226 637 q 216 687 216 677 q 225 688 223 688 l 225 688 q 226 677 225 685 l 227 677 q 243 701 233 701 m 320 698 q 339 680 331 698 q 340 670 340 674 l 340 668 q 320 637 340 647 q 315 637 317 637 q 299 659 299 639 q 313 696 299 688 q 320 698 315 697 m 364 698 q 385 647 375 698 q 385 643 385 647 q 379 639 381 639 q 365 685 370 674 q 355 644 360 677 q 352 639 354 644 l 348 639 q 343 671 344 639 q 342 685 342 680 q 350 686 346 686 q 351 674 351 676 l 352 674 q 364 698 356 698 m 693 698 q 713 643 702 698 q 706 639 708 639 q 692 685 697 677 q 681 642 689 678 q 679 639 679 639 l 675 639 q 670 685 671 639 q 678 686 673 686 q 679 673 679 675 l 679 673 q 693 698 683 698 m 282 697 q 293 687 293 694 l 293 686 q 287 682 293 685 l 286 682 q 279 686 284 686 q 270 680 271 686 q 286 676 270 677 q 298 656 298 670 q 286 637 298 642 l 282 636 l 279 636 q 259 649 265 636 l 259 650 q 264 656 260 651 l 265 656 q 281 647 272 647 q 289 656 289 650 q 277 665 287 665 q 261 678 261 665 l 261 680 q 282 697 261 697 m 536 697 q 547 686 543 697 l 547 686 q 539 682 541 682 q 533 686 539 685 q 523 680 526 686 l 523 680 q 540 676 523 677 q 551 655 551 671 q 537 636 551 640 l 532 636 q 512 649 519 636 l 512 650 q 518 656 517 656 l 519 656 q 534 647 525 647 q 542 656 542 650 q 533 665 542 663 q 516 671 519 665 q 515 680 515 678 q 536 697 515 697 m 730 696 l 730 696 q 738 695 738 695 q 738 680 738 685 l 738 675 q 745 655 739 655 l 746 655 q 756 693 756 662 l 756 693 l 765 693 l 765 692 q 769 641 769 647 q 751 609 769 614 q 749 609 750 609 l 746 609 q 732 620 735 609 q 732 625 732 622 l 732 625 q 734 634 732 634 l 734 634 q 741 631 739 631 l 741 625 q 746 620 741 621 l 747 620 q 760 644 760 620 q 760 656 760 647 l 759 656 q 744 643 754 643 l 743 643 q 729 670 732 643 l 729 680 q 730 696 729 685 m 201 696 q 214 683 214 693 l 214 680 q 192 659 214 668 l 186 659 q 196 650 186 652 q 208 660 202 650 l 210 660 q 215 651 215 653 q 198 639 205 639 l 193 639 q 176 665 178 639 q 195 695 176 688 l 201 696 m 403 696 l 409 696 q 425 670 425 690 q 424 650 424 658 q 425 640 424 650 q 418 636 420 636 l 417 636 l 416 642 q 403 637 409 637 l 399 637 q 386 650 386 639 l 386 654 q 404 674 386 671 q 416 671 411 674 l 416 671 q 406 686 414 686 q 396 680 401 686 l 394 680 q 389 686 393 681 l 389 688 q 403 696 396 696 m 577 696 q 591 682 591 693 q 566 659 591 666 l 562 659 l 562 658 q 572 650 566 650 q 585 660 577 650 l 585 660 q 591 653 586 660 q 579 640 591 648 q 573 639 576 639 l 569 639 q 553 664 555 639 q 570 695 553 687 l 577 696 m 308 659 q 315 649 309 649 l 316 649 q 331 669 330 653 l 331 671 q 320 686 328 686 l 319 686 q 308 667 311 686 q 308 659 308 663 m 186 671 q 205 681 197 671 l 205 682 q 200 684 201 684 q 186 673 191 684 l 186 671 m 562 671 l 564 671 q 582 682 574 671 q 577 684 579 684 l 575 684 q 562 671 566 684 l 562 671 m 395 653 l 395 651 q 400 648 395 650 q 415 658 410 648 q 404 662 410 662 q 395 653 395 660 m 366 595 q 375 576 374 595 l 375 574 l 372 573 l 370 573 q 366 586 369 586 q 361 575 362 586 q 362 572 362 573 q 363 550 362 567 q 368 552 366 552 l 370 552 l 370 543 l 364 541 q 366 501 366 508 l 360 501 q 358 539 358 533 l 357 539 q 351 538 354 538 l 351 548 q 357 549 355 548 q 355 579 355 561 q 365 595 357 595 l 366 595 m 481 595 q 490 574 487 595 l 485 573 l 484 573 l 484 574 q 480 586 484 583 q 475 577 475 583 q 477 550 475 572 q 477 550 477 550 q 483 552 480 552 l 483 552 l 484 547 l 484 543 q 477 541 483 543 l 478 539 q 481 501 478 533 l 474 501 q 472 539 474 505 q 465 538 467 538 l 465 548 l 471 548 q 470 578 470 575 q 481 595 470 595 m 419 586 l 421 586 l 425 586 l 425 580 q 426 504 425 545 l 420 504 q 419 563 419 542 l 419 586 m 434 586 l 434 586 l 439 586 l 439 568 q 441 504 439 550 l 434 504 q 433 583 433 542 l 433 584 q 434 586 433 586 m 315 584 q 321 583 320 583 q 320 558 320 566 l 321 558 l 328 560 l 328 550 q 320 549 327 550 l 322 506 l 321 505 l 316 505 q 313 548 315 522 l 306 548 l 306 557 l 312 558 l 313 558 l 313 568 q 315 584 313 584 m 583 584 q 590 583 585 584 q 588 566 588 575 l 588 558 l 590 558 l 597 560 l 597 550 l 595 550 l 588 549 l 591 506 l 588 505 l 585 505 q 583 548 583 541 l 574 548 l 575 553 l 575 557 l 581 558 l 582 558 l 582 558 q 583 584 582 571 m 667 584 q 674 583 669 584 q 673 563 673 572 l 673 558 l 674 558 l 681 560 l 681 555 l 681 550 q 673 549 681 550 l 673 545 q 675 506 673 537 l 674 505 l 669 505 l 667 548 l 659 548 l 659 557 l 666 558 l 666 558 l 667 584 m 243 582 l 249 582 q 262 569 257 582 q 259 564 259 565 l 257 564 q 245 572 252 572 q 225 557 235 572 q 219 538 219 546 l 219 535 q 233 515 219 518 q 238 514 234 514 q 256 526 256 516 l 256 531 q 249 533 253 533 l 243 533 l 243 543 q 262 538 259 543 q 263 533 263 534 q 262 516 262 518 q 264 501 262 509 q 260 498 264 501 l 259 498 q 256 511 257 498 q 239 504 252 506 l 238 504 q 213 533 216 504 l 213 535 q 239 581 213 569 l 243 582 m 509 564 q 529 542 523 564 l 529 534 q 509 505 529 514 l 505 504 q 491 516 496 504 q 490 526 490 522 l 490 528 q 501 561 490 552 q 509 564 506 564 m 554 564 q 573 509 562 564 l 573 509 q 568 507 570 507 q 554 553 559 546 q 540 507 550 549 l 539 507 l 537 507 q 532 550 534 507 l 536 552 l 538 552 q 539 533 539 542 l 540 533 q 554 564 545 564 m 291 561 q 302 550 302 559 q 303 549 303 550 q 283 528 303 535 q 274 526 280 526 l 274 526 q 284 516 274 519 l 285 516 q 298 525 290 516 l 300 525 q 303 520 300 524 l 303 519 q 286 507 295 507 l 283 507 q 267 525 272 507 l 267 534 q 282 560 267 553 q 291 561 285 561 m 634 561 l 641 561 q 655 545 650 561 q 656 535 656 536 q 655 520 656 531 q 656 507 656 518 l 652 504 l 651 504 l 649 511 q 634 505 643 505 l 632 505 q 620 516 620 507 l 620 521 q 637 539 622 539 q 649 535 644 539 l 649 537 q 639 553 649 551 l 637 553 q 628 549 634 553 l 627 549 q 623 553 626 549 l 623 554 q 634 561 629 561 m 376 560 q 382 558 377 560 q 390 516 382 516 q 406 554 401 523 q 407 560 407 557 l 407 560 q 413 558 409 560 q 411 533 411 545 l 411 526 q 414 515 411 520 q 411 508 411 511 l 410 508 q 406 523 406 511 l 404 523 q 393 507 402 515 l 388 507 q 377 550 377 507 l 377 556 l 376 560 m 496 528 q 505 515 497 515 l 505 515 q 521 529 515 515 q 523 535 523 534 q 510 553 519 553 l 508 553 q 496 528 499 553 m 274 535 q 296 548 287 535 q 290 552 295 552 l 288 552 q 274 535 277 552 m 626 519 q 632 515 628 515 l 636 515 q 648 525 644 515 q 638 530 643 530 l 637 530 q 626 519 626 528 m 302 475 q 312 473 303 475 q 309 420 310 451 q 315 380 309 400 q 308 374 309 374 l 308 374 q 304 382 306 374 l 303 382 q 291 372 303 377 q 264 396 272 372 q 262 413 262 403 q 282 446 262 440 l 284 446 q 301 437 292 446 l 301 437 q 302 475 301 442 m 192 471 l 201 469 q 200 448 200 455 l 200 440 q 208 441 207 441 q 210 428 210 430 l 208 428 q 200 427 203 427 q 203 375 202 391 q 193 373 196 373 l 193 374 q 190 425 190 409 l 189 426 l 181 426 l 181 440 l 189 440 l 189 445 q 192 471 189 471 m 399 471 l 399 471 l 408 469 q 407 443 407 452 l 407 440 q 416 441 415 441 l 417 433 l 417 428 q 407 426 407 427 q 410 375 407 413 q 400 373 403 373 l 400 374 q 398 426 398 417 l 387 426 l 387 440 l 397 440 q 399 471 397 459 m 325 470 q 331 462 330 470 l 331 461 q 327 452 331 455 l 323 452 q 318 462 318 455 q 325 470 319 470 m 360 446 q 384 424 374 446 q 385 414 385 418 l 385 409 q 362 375 385 386 q 355 373 360 373 q 336 397 339 373 l 336 405 q 354 445 336 435 q 360 446 359 446 m 471 446 l 474 446 q 481 444 481 446 l 481 443 q 491 446 486 446 q 511 421 506 446 q 511 413 511 414 q 493 376 509 383 l 489 375 l 483 375 l 483 371 q 484 347 483 367 l 474 347 q 471 446 471 424 m 538 446 q 560 426 551 446 q 562 412 562 418 q 540 375 562 387 q 532 373 536 373 q 515 389 520 373 q 513 402 513 396 q 531 445 513 433 q 538 446 537 446 m 654 446 q 677 426 668 446 q 679 415 679 421 l 679 410 q 656 375 679 386 q 649 373 654 373 q 630 397 633 373 l 630 405 q 648 445 630 435 q 654 446 653 446 m 708 446 q 724 413 718 446 l 724 413 q 740 446 729 446 l 741 446 q 764 378 754 446 l 762 378 q 755 375 756 375 l 754 375 q 740 432 743 432 q 730 384 734 419 q 724 379 728 379 q 718 387 720 379 q 707 431 711 431 q 698 377 698 398 q 688 375 692 375 l 688 376 l 681 436 q 691 439 689 439 q 693 421 692 435 l 694 421 q 708 446 700 446 m 159 445 q 173 433 173 443 l 173 433 q 166 428 172 432 l 164 428 q 157 432 164 432 l 156 432 q 144 426 149 432 l 144 424 q 162 421 144 421 q 178 399 178 414 l 178 396 q 165 374 178 380 q 159 372 162 372 l 154 372 q 132 387 141 372 q 138 396 132 390 l 140 396 q 157 386 144 386 q 168 397 168 386 q 155 407 168 406 q 137 414 140 407 q 135 421 135 419 l 135 426 q 159 445 135 445 m 421 445 q 430 443 428 443 q 429 423 429 429 l 429 420 q 436 394 429 401 l 439 394 q 452 436 452 405 l 452 441 l 462 441 l 462 441 q 466 382 466 390 l 466 376 q 450 341 466 350 q 441 339 444 339 q 424 350 428 339 q 423 356 423 353 l 423 361 q 425 369 423 369 l 433 365 l 433 361 l 433 358 q 439 353 433 354 l 441 353 q 456 372 453 353 q 456 379 456 374 l 456 390 l 456 398 l 455 398 q 438 380 449 380 l 437 380 q 420 409 424 380 q 419 421 419 414 l 419 426 q 421 445 419 445 m 606 444 l 610 444 q 619 439 614 444 q 625 429 625 432 q 618 421 619 421 l 618 421 q 608 430 612 430 l 607 430 q 596 414 600 427 l 594 402 q 602 388 594 389 l 604 388 q 623 397 610 388 l 624 397 q 628 384 628 386 q 600 374 613 374 q 584 401 587 374 q 595 437 584 420 q 606 444 602 444 m 320 443 l 327 443 l 330 443 q 330 438 330 441 q 332 375 330 399 l 321 375 l 321 380 q 320 443 320 419 m 212 443 q 222 439 222 440 l 222 428 q 229 389 222 389 l 232 389 q 245 421 241 400 q 249 443 248 426 l 250 443 q 259 439 259 441 q 257 405 257 415 l 257 399 q 260 388 257 394 q 254 377 260 384 l 254 377 q 247 392 247 384 l 247 392 q 230 375 240 375 l 229 375 q 212 429 212 375 l 212 443 m 272 410 q 289 387 272 391 l 291 387 q 300 402 298 387 l 300 404 q 287 432 300 425 l 284 432 l 283 432 q 272 412 273 432 l 272 410 m 346 402 q 355 387 346 389 l 357 387 q 374 404 366 387 q 375 409 375 406 l 375 414 q 361 432 371 432 l 360 432 q 346 402 348 432 m 481 428 q 482 389 481 426 l 486 388 q 501 413 499 388 q 491 432 500 432 l 491 432 q 481 428 485 432 m 523 402 l 523 399 q 532 387 523 389 l 533 387 q 550 402 542 387 q 553 413 553 407 q 536 432 549 432 q 523 402 525 432 m 640 402 q 649 387 640 387 l 651 387 q 668 405 659 387 q 669 410 669 408 l 669 414 q 655 432 664 432 l 654 432 q 640 402 643 432 m 573 394 q 580 386 579 394 l 580 383 q 573 375 579 375 q 567 384 568 375 q 573 394 568 394 m 423 1237 l 423 1098 l 273 1098 q 214 1076 242 1098 l 214 1082 q 423 1237 298 1237 m 471 1237 l 477 1237 q 638 1152 553 1237 q 670 1098 670 1112 l 471 1098 l 471 1237 m 257 1050 l 423 1050 l 423 995 q 380 1006 403 1006 l 257 1006 q 246 1017 246 1006 l 246 1039 q 257 1050 248 1050 m 471 1050 l 692 1050 l 697 995 l 697 985 q 622 813 697 878 l 525 813 q 471 867 471 820 l 471 1050 m 198 1006 l 203 1006 q 283 958 203 965 l 385 958 q 423 920 423 958 l 423 861 q 364 813 423 813 l 273 813 q 198 974 198 882 l 198 1006 m 445 797 l 450 797 q 558 765 485 765 l 558 759 q 450 738 496 738 l 445 738 q 337 759 399 738 l 337 765 q 445 797 413 765 z "},"¸":{"ha":475,"x_min":73,"x_max":423,"o":"m 180 7 l 320 7 l 305 -71 q 387 -111 351 -75 q 423 -191 423 -146 q 365 -300 423 -254 q 199 -344 309 -344 l 135 -344 q 90 -323 108 -344 q 73 -282 73 -307 l 73 -277 l 74 -271 q 94 -231 76 -248 q 136 -215 111 -215 q 172 -216 157 -216 q 254 -201 232 -216 q 265 -184 265 -193 q 262 -174 265 -178 q 242 -164 257 -169 q 218 -160 233 -161 q 176 -136 191 -157 q 163 -98 163 -119 q 163 -88 163 -94 l 180 7 z "},"»":{"ha":774,"x_min":-14,"x_max":754,"o":"m 461 552 q 480 509 480 535 q 461 466 480 483 l 202 237 l -14 237 l 298 509 l -14 781 l 202 781 l 461 552 m 735 552 q 754 509 754 535 q 735 466 754 483 l 476 237 l 260 237 l 572 509 l 260 781 l 476 781 l 735 552 z "},"¼":{"ha":1207,"x_min":27,"x_max":1180,"o":"m 310 451 q 286 400 310 422 q 232 380 264 380 l 231 380 q 177 400 198 380 q 153 451 153 422 l 153 917 l 105 917 q 50 937 74 917 q 27 987 27 958 l 27 988 q 50 1038 27 1017 q 105 1059 74 1059 l 232 1059 q 288 1038 264 1059 q 310 988 310 1017 l 310 451 m 740 1107 l 388 -84 l 263 -84 l 616 1107 l 740 1107 m 863 642 q 932 679 885 679 l 998 679 q 1053 658 1029 679 q 1076 608 1076 637 l 1076 261 l 1102 261 q 1158 239 1135 261 q 1180 190 1180 218 l 1180 189 q 1156 138 1180 160 q 1102 118 1134 118 l 1076 118 l 1076 71 q 1053 20 1076 41 q 998 0 1029 0 l 997 0 q 941 20 965 0 q 918 71 918 41 l 918 118 l 697 118 q 642 139 665 118 q 619 189 619 159 l 619 217 q 628 251 619 235 l 863 642 m 918 261 l 918 435 l 814 261 l 918 261 z "},"½":{"ha":1147,"x_min":27,"x_max":1120,"o":"m 310 451 q 286 400 310 422 q 232 380 264 380 l 231 380 q 177 400 198 380 q 153 451 153 422 l 153 917 l 105 917 q 50 937 74 917 q 27 987 27 958 l 27 988 q 50 1038 27 1017 q 105 1059 74 1059 l 232 1059 q 288 1038 264 1059 q 310 988 310 1017 l 310 451 m 740 1107 l 388 -84 l 263 -84 l 616 1107 l 740 1107 m 897 679 q 1050 621 988 679 q 1116 478 1116 561 q 1053 345 1116 404 q 930 262 1017 312 q 821 191 849 216 q 780 143 780 153 l 1042 143 q 1098 121 1075 143 q 1120 72 1120 100 l 1120 71 q 1097 21 1120 41 q 1042 0 1075 0 l 697 0 q 642 21 665 0 q 619 71 619 41 l 619 109 q 681 258 619 192 q 806 352 722 302 q 919 421 903 410 q 958 478 958 452 q 940 519 958 503 q 897 536 922 536 l 720 536 q 664 557 687 536 q 641 607 641 578 l 641 608 q 664 658 641 637 q 720 679 686 679 l 897 679 z "},"¾":{"ha":1355,"x_min":27,"x_max":1328,"o":"m 229 1059 q 384 1000 319 1059 q 448 859 448 941 q 404 732 448 765 q 458 591 458 694 q 389 441 458 504 q 229 380 324 380 l 105 380 q 50 401 73 380 q 27 451 27 421 l 27 452 q 51 503 27 481 q 105 524 73 524 l 229 524 q 279 543 258 524 q 300 591 300 562 q 279 639 300 619 q 229 658 258 658 l 125 658 q 70 678 92 658 q 47 729 47 700 l 47 730 q 68 779 47 758 q 125 800 92 800 l 229 801 q 272 817 254 801 q 290 859 290 834 q 271 900 290 883 q 229 917 254 917 l 105 917 q 50 937 74 917 q 27 987 27 958 l 27 988 q 50 1038 27 1017 q 105 1059 74 1059 l 229 1059 m 888 1107 l 536 -84 l 411 -84 l 764 1107 l 888 1107 m 1010 642 q 1080 679 1033 679 l 1145 679 q 1201 658 1177 679 q 1224 608 1224 637 l 1224 261 l 1250 261 q 1306 239 1282 261 q 1328 190 1328 218 l 1328 189 q 1304 138 1328 160 q 1250 118 1282 118 l 1224 118 l 1224 71 q 1201 20 1224 41 q 1145 0 1177 0 l 1145 0 q 1089 20 1113 0 q 1066 71 1066 41 l 1066 118 l 845 118 q 790 139 812 118 q 767 189 767 159 l 767 217 q 776 251 767 235 l 1010 642 m 1066 261 l 1066 435 l 962 261 l 1066 261 z "},"¿":{"ha":753,"x_min":9,"x_max":646,"o":"m 332 -309 q 104 -214 199 -309 q 9 14 9 -119 q 81 217 9 129 q 252 328 151 304 l 252 416 q 276 472 252 448 q 333 496 300 496 l 335 496 q 392 472 368 496 q 416 414 416 448 l 416 255 q 392 198 416 222 q 336 174 369 174 l 332 174 q 220 127 266 174 q 173 14 173 81 q 220 -99 173 -52 q 332 -145 266 -145 q 428 -113 386 -145 q 485 -33 469 -82 q 514 9 492 -7 q 562 24 535 24 l 564 24 q 629 -8 605 24 q 646 -55 646 -30 q 642 -80 646 -67 q 526 -244 611 -180 q 332 -309 440 -309 m 334 741 q 401 713 374 741 q 429 646 429 685 q 401 579 429 607 q 334 551 374 551 q 268 579 296 551 q 239 646 239 606 q 268 713 239 686 q 334 741 296 741 z "},"À":{"ha":851,"x_min":75,"x_max":777,"o":"m 777 82 q 752 24 777 47 q 694 0 728 0 l 692 0 q 635 24 659 0 q 610 82 610 47 l 610 385 l 241 385 l 241 82 q 216 24 241 47 q 159 0 192 0 l 157 0 q 99 24 123 0 q 75 82 75 47 l 75 709 q 178 957 75 854 q 425 1059 281 1059 q 673 957 570 1059 q 777 709 777 854 l 777 82 m 610 550 l 610 709 q 557 840 610 785 q 425 894 503 894 q 294 840 349 894 q 241 709 241 785 l 241 550 l 610 550 m 233 1309 q 220 1336 220 1321 q 227 1359 220 1347 q 268 1385 239 1385 l 373 1385 q 410 1367 397 1385 l 528 1197 q 538 1169 538 1183 q 533 1148 538 1159 q 492 1123 520 1123 l 440 1123 q 405 1139 422 1123 l 233 1309 z "},"Á":{"ha":851,"x_min":75,"x_max":777,"o":"m 777 82 q 752 24 777 47 q 694 0 728 0 l 692 0 q 635 24 659 0 q 610 82 610 47 l 610 385 l 241 385 l 241 82 q 216 24 241 47 q 159 0 192 0 l 157 0 q 99 24 123 0 q 75 82 75 47 l 75 709 q 178 957 75 854 q 425 1059 281 1059 q 673 957 570 1059 q 777 709 777 854 l 777 82 m 610 550 l 610 709 q 557 840 610 785 q 425 894 503 894 q 294 840 349 894 q 241 709 241 785 l 241 550 l 610 550 m 447 1139 q 412 1123 430 1123 l 359 1123 q 318 1149 330 1123 q 313 1169 313 1159 q 322 1196 313 1183 l 441 1367 q 479 1385 454 1385 l 583 1385 q 625 1359 612 1385 q 631 1337 631 1347 q 618 1309 631 1322 l 447 1139 z "},"Â":{"ha":851,"x_min":75,"x_max":777,"o":"m 777 82 q 752 24 777 47 q 694 0 728 0 l 692 0 q 635 24 659 0 q 610 82 610 47 l 610 385 l 241 385 l 241 82 q 216 24 241 47 q 159 0 192 0 l 157 0 q 99 24 123 0 q 75 82 75 47 l 75 709 q 178 957 75 854 q 425 1059 281 1059 q 673 957 570 1059 q 777 709 777 854 l 777 82 m 610 550 l 610 709 q 557 840 610 785 q 425 894 503 894 q 294 840 349 894 q 241 709 241 785 l 241 550 l 610 550 m 426 1234 l 312 1122 q 277 1106 296 1106 l 225 1106 q 184 1132 196 1106 q 178 1154 178 1143 q 189 1181 178 1168 l 322 1351 q 359 1369 336 1369 l 492 1369 q 528 1350 515 1369 l 663 1181 q 673 1153 673 1168 q 668 1132 673 1143 q 627 1106 656 1106 l 574 1106 q 539 1122 555 1106 l 426 1234 z "},"Ã":{"ha":851,"x_min":75,"x_max":777,"o":"m 777 82 q 752 24 777 47 q 694 0 728 0 l 692 0 q 635 24 659 0 q 610 82 610 47 l 610 385 l 241 385 l 241 82 q 216 24 241 47 q 159 0 192 0 l 157 0 q 99 24 123 0 q 75 82 75 47 l 75 709 q 178 957 75 854 q 425 1059 281 1059 q 673 957 570 1059 q 777 709 777 854 l 777 82 m 610 550 l 610 709 q 557 840 610 785 q 425 894 503 894 q 294 840 349 894 q 241 709 241 785 l 241 550 l 610 550 m 168 1163 q 221 1260 178 1224 q 333 1298 266 1298 q 463 1263 388 1298 q 513 1251 487 1251 l 519 1251 q 557 1267 546 1252 q 606 1304 581 1304 l 634 1304 q 672 1287 658 1304 q 684 1256 684 1273 q 684 1247 684 1252 q 526 1110 661 1110 q 397 1148 470 1110 q 337 1164 368 1164 q 303 1144 310 1163 q 248 1106 286 1109 l 218 1106 q 180 1123 195 1106 q 167 1155 167 1137 q 168 1163 167 1159 z "},"Ä":{"ha":851,"x_min":75,"x_max":777,"o":"m 777 82 q 752 24 777 47 q 694 0 728 0 l 692 0 q 635 24 659 0 q 610 82 610 47 l 610 385 l 241 385 l 241 82 q 216 24 241 47 q 159 0 192 0 l 157 0 q 99 24 123 0 q 75 82 75 47 l 75 709 q 178 957 75 854 q 425 1059 281 1059 q 673 957 570 1059 q 777 709 777 854 l 777 82 m 610 550 l 610 709 q 557 840 610 785 q 425 894 503 894 q 294 840 349 894 q 241 709 241 785 l 241 550 l 610 550 m 302 1080 q 235 1108 263 1080 q 208 1175 208 1136 q 235 1242 208 1214 q 302 1270 263 1270 q 369 1242 341 1270 q 397 1175 397 1215 q 369 1108 397 1135 q 302 1080 341 1080 m 549 1080 q 481 1108 509 1080 q 454 1175 454 1136 q 481 1242 454 1214 q 549 1270 509 1270 q 615 1242 587 1270 q 644 1175 644 1215 q 615 1108 644 1135 q 549 1080 587 1080 z "},"Å":{"ha":851,"x_min":75,"x_max":777,"o":"m 777 82 q 752 24 777 47 q 694 0 728 0 l 692 0 q 635 24 659 0 q 610 82 610 47 l 610 385 l 241 385 l 241 82 q 216 24 241 47 q 159 0 192 0 l 157 0 q 99 24 123 0 q 75 82 75 47 l 75 709 q 178 957 75 854 q 425 1059 281 1059 q 673 957 570 1059 q 777 709 777 854 l 777 82 m 610 550 l 610 709 q 557 840 610 785 q 425 894 503 894 q 294 840 349 894 q 241 709 241 785 l 241 550 l 610 550 m 378 1236 q 391 1206 378 1219 q 421 1193 404 1193 l 430 1193 q 460 1206 448 1193 q 473 1236 473 1219 q 460 1267 473 1254 q 430 1279 448 1279 l 421 1279 q 391 1267 404 1279 q 378 1236 378 1254 m 254 1236 q 302 1352 254 1303 q 418 1400 350 1400 l 434 1400 q 550 1352 501 1400 q 598 1236 598 1303 q 550 1120 598 1168 q 434 1072 501 1072 l 418 1072 q 302 1120 350 1072 q 254 1236 254 1168 z "},"Æ":{"ha":1234,"x_min":75,"x_max":1183,"o":"m 610 550 l 610 709 q 557 840 610 785 q 425 894 503 894 q 294 840 349 894 q 241 709 241 785 l 241 550 l 610 550 m 611 309 q 610 319 610 313 l 610 385 l 241 385 l 241 82 q 216 24 241 47 q 159 0 192 0 l 157 0 q 99 24 123 0 q 75 82 75 47 l 75 709 q 178 957 75 854 q 425 1059 281 1059 q 664 966 570 1059 q 684 987 664 967 q 859 1059 756 1059 l 1100 1059 q 1158 1035 1134 1059 q 1183 977 1183 1010 l 1183 975 q 1158 918 1183 942 q 1100 893 1134 893 l 859 893 q 800 869 824 893 q 777 812 777 846 l 777 612 l 1100 612 q 1158 588 1134 612 q 1183 530 1183 564 l 1183 528 q 1158 471 1183 495 q 1100 446 1134 446 l 777 446 l 777 248 q 800 189 777 213 q 859 165 824 165 l 1100 165 q 1158 142 1134 165 q 1183 83 1183 117 l 1183 82 q 1158 24 1183 48 q 1100 0 1134 0 l 859 0 q 684 73 756 0 q 611 248 611 145 l 611 309 z "},"Ç":{"ha":815,"x_min":51,"x_max":774,"o":"m 581 1059 q 712 1043 648 1059 q 774 964 774 1027 l 774 962 q 742 897 774 922 q 694 880 720 880 q 672 882 684 880 q 581 894 627 894 q 323 787 430 894 q 217 530 217 681 q 323 272 217 378 q 581 166 430 166 q 672 177 627 166 q 694 180 684 180 q 742 163 720 180 q 774 98 774 138 l 774 96 q 712 16 774 33 q 581 0 648 0 q 206 155 361 0 q 51 530 51 311 q 206 904 51 749 q 581 1059 361 1059 m 530 24 l 669 24 l 654 -54 q 736 -94 700 -58 q 772 -174 772 -129 q 714 -283 772 -237 q 549 -327 658 -327 l 484 -327 q 439 -307 457 -327 q 422 -265 422 -290 l 422 -260 l 423 -254 q 444 -214 425 -231 q 486 -198 460 -198 q 521 -199 507 -199 q 603 -184 581 -199 q 614 -167 614 -176 q 611 -157 614 -161 q 591 -147 606 -152 q 568 -143 583 -144 q 525 -119 540 -140 q 512 -81 512 -102 q 513 -71 512 -77 l 530 24 z "},"È":{"ha":684,"x_min":75,"x_max":646,"o":"m 241 612 l 564 612 q 622 589 597 612 q 646 530 646 564 l 646 529 q 622 471 646 495 q 564 447 597 447 l 241 447 l 241 248 q 264 190 241 214 q 322 166 288 166 l 564 166 q 622 142 597 166 q 646 83 646 117 l 646 82 q 622 24 646 47 q 564 0 597 0 l 322 0 q 147 73 220 0 q 75 248 75 145 l 75 812 q 147 987 75 914 q 322 1059 220 1059 l 564 1059 q 622 1035 597 1059 q 646 977 646 1012 l 646 976 q 622 918 646 942 q 564 893 597 893 l 322 893 q 264 869 288 893 q 241 812 241 846 l 241 612 m 168 1309 q 155 1336 155 1321 q 161 1359 155 1347 q 203 1385 174 1385 l 308 1385 q 345 1367 332 1385 l 463 1197 q 473 1169 473 1183 q 468 1148 473 1159 q 427 1123 455 1123 l 375 1123 q 340 1139 357 1123 l 168 1309 z "},"É":{"ha":684,"x_min":75,"x_max":646,"o":"m 241 612 l 564 612 q 622 589 597 612 q 646 530 646 564 l 646 529 q 622 471 646 495 q 564 447 597 447 l 241 447 l 241 248 q 264 190 241 214 q 322 166 288 166 l 564 166 q 622 142 597 166 q 646 83 646 117 l 646 82 q 622 24 646 47 q 564 0 597 0 l 322 0 q 147 73 220 0 q 75 248 75 145 l 75 812 q 147 987 75 914 q 322 1059 220 1059 l 564 1059 q 622 1035 597 1059 q 646 977 646 1012 l 646 976 q 622 918 646 942 q 564 893 597 893 l 322 893 q 264 869 288 893 q 241 812 241 846 l 241 612 m 382 1139 q 347 1123 365 1123 l 294 1123 q 253 1149 265 1123 q 248 1169 248 1159 q 257 1196 248 1183 l 376 1367 q 414 1385 389 1385 l 518 1385 q 559 1359 547 1385 q 566 1337 566 1347 q 553 1309 566 1322 l 382 1139 z "},"Ê":{"ha":684,"x_min":75,"x_max":646,"o":"m 241 612 l 564 612 q 622 589 597 612 q 646 530 646 564 l 646 529 q 622 471 646 495 q 564 447 597 447 l 241 447 l 241 248 q 264 190 241 214 q 322 166 288 166 l 564 166 q 622 142 597 166 q 646 83 646 117 l 646 82 q 622 24 646 47 q 564 0 597 0 l 322 0 q 147 73 220 0 q 75 248 75 145 l 75 812 q 147 987 75 914 q 322 1059 220 1059 l 564 1059 q 622 1035 597 1059 q 646 977 646 1012 l 646 976 q 622 918 646 942 q 564 893 597 893 l 322 893 q 264 869 288 893 q 241 812 241 846 l 241 612 m 395 1234 l 281 1122 q 246 1106 264 1106 l 194 1106 q 153 1132 165 1106 q 146 1154 146 1143 q 157 1181 146 1168 l 291 1351 q 328 1369 305 1369 l 461 1369 q 497 1350 484 1369 l 631 1181 q 642 1153 642 1168 q 637 1132 642 1143 q 595 1106 625 1106 l 543 1106 q 508 1122 524 1106 l 395 1234 z "},"Ë":{"ha":684,"x_min":75,"x_max":646,"o":"m 241 612 l 564 612 q 622 589 597 612 q 646 530 646 564 l 646 529 q 622 471 646 495 q 564 447 597 447 l 241 447 l 241 248 q 264 190 241 214 q 322 166 288 166 l 564 166 q 622 142 597 166 q 646 83 646 117 l 646 82 q 622 24 646 47 q 564 0 597 0 l 322 0 q 147 73 220 0 q 75 248 75 145 l 75 812 q 147 987 75 914 q 322 1059 220 1059 l 564 1059 q 622 1035 597 1059 q 646 977 646 1012 l 646 976 q 622 918 646 942 q 564 893 597 893 l 322 893 q 264 869 288 893 q 241 812 241 846 l 241 612 m 264 1080 q 197 1108 225 1080 q 170 1175 170 1136 q 197 1242 170 1214 q 264 1270 225 1270 q 331 1242 303 1270 q 359 1175 359 1215 q 331 1108 359 1135 q 264 1080 303 1080 m 511 1080 q 444 1108 471 1080 q 416 1175 416 1136 q 444 1242 416 1214 q 511 1270 471 1270 q 577 1242 549 1270 q 606 1175 606 1215 q 577 1108 606 1135 q 511 1080 549 1080 z "},"Ì":{"ha":356,"x_min":-34,"x_max":284,"o":"m 179 1059 q 237 1036 212 1059 q 261 977 261 1011 l 261 82 q 237 24 261 47 q 179 0 212 0 l 177 0 q 119 24 144 0 q 95 82 95 47 l 95 977 q 119 1036 95 1011 q 177 1059 144 1059 l 179 1059 m -22 1309 q -34 1336 -34 1321 q -28 1359 -34 1347 q 14 1385 -15 1385 l 119 1385 q 155 1367 143 1385 l 274 1197 q 284 1169 284 1183 q 279 1148 284 1159 q 237 1123 266 1123 l 186 1123 q 151 1139 168 1123 l -22 1309 z "},"Í":{"ha":356,"x_min":72,"x_max":391,"o":"m 179 1059 q 237 1036 212 1059 q 261 977 261 1011 l 261 82 q 237 24 261 47 q 179 0 212 0 l 177 0 q 119 24 144 0 q 95 82 95 47 l 95 977 q 119 1036 95 1011 q 177 1059 144 1059 l 179 1059 m 206 1139 q 171 1123 189 1123 l 119 1123 q 77 1149 90 1123 q 72 1169 72 1159 q 81 1196 72 1183 l 201 1367 q 238 1385 214 1385 l 342 1385 q 384 1359 372 1385 q 391 1337 391 1347 q 378 1309 391 1322 l 206 1139 z "},"Î":{"ha":356,"x_min":-70,"x_max":426,"o":"m 179 1059 q 237 1036 212 1059 q 261 977 261 1011 l 261 82 q 237 24 261 47 q 179 0 212 0 l 177 0 q 119 24 144 0 q 95 82 95 47 l 95 977 q 119 1036 95 1011 q 177 1059 144 1059 l 179 1059 m 178 1234 l 64 1122 q 30 1106 48 1106 l -22 1106 q -64 1132 -52 1106 q -70 1154 -70 1143 q -59 1181 -70 1168 l 75 1351 q 111 1369 89 1369 l 245 1369 q 281 1350 268 1369 l 415 1181 q 426 1153 426 1168 q 420 1132 426 1143 q 379 1106 408 1106 l 327 1106 q 292 1122 308 1106 l 178 1234 z "},"Ï":{"ha":356,"x_min":-40,"x_max":396,"o":"m 179 1059 q 237 1036 212 1059 q 261 977 261 1011 l 261 82 q 237 24 261 47 q 179 0 212 0 l 177 0 q 119 24 144 0 q 95 82 95 47 l 95 977 q 119 1036 95 1011 q 177 1059 144 1059 l 179 1059 m 55 1080 q -12 1108 16 1080 q -40 1175 -40 1136 q -12 1242 -40 1214 q 55 1270 16 1270 q 121 1242 94 1270 q 150 1175 150 1215 q 121 1108 150 1135 q 55 1080 94 1080 m 301 1080 q 234 1108 262 1080 q 206 1175 206 1136 q 234 1242 206 1214 q 301 1270 262 1270 q 368 1242 340 1270 q 396 1175 396 1215 q 368 1108 396 1135 q 301 1080 340 1080 z "},"Ð":{"ha":959,"x_min":7,"x_max":911,"o":"m 88 613 l 88 868 q 144 1004 88 947 q 279 1059 201 1059 l 382 1059 q 756 904 601 1059 q 911 530 911 749 q 756 155 911 311 q 382 0 601 0 l 279 0 q 144 56 201 0 q 88 191 88 113 l 88 447 l 7 447 l 7 613 l 88 613 m 254 613 l 461 613 l 461 447 l 254 447 l 254 191 q 261 173 254 180 q 279 166 269 166 l 382 166 q 640 272 533 166 q 746 530 746 378 q 640 787 746 681 q 382 894 533 894 l 279 894 q 261 886 269 894 q 254 868 254 879 l 254 613 z "},"Ñ":{"ha":851,"x_min":75,"x_max":777,"o":"m 777 82 q 752 24 777 47 q 694 0 728 0 l 692 0 q 635 24 659 0 q 610 82 610 47 l 610 709 q 557 840 610 785 q 425 894 503 894 q 294 840 349 894 q 241 709 241 785 l 241 82 q 216 24 241 47 q 159 0 192 0 l 157 0 q 99 24 123 0 q 75 82 75 47 l 75 709 q 178 957 75 854 q 425 1059 281 1059 q 673 957 570 1059 q 777 709 777 854 l 777 82 m 168 1163 q 221 1260 178 1224 q 333 1298 266 1298 q 463 1263 388 1298 q 513 1251 487 1251 l 519 1251 q 557 1267 546 1252 q 606 1304 581 1304 l 634 1304 q 672 1287 658 1304 q 684 1256 684 1273 q 684 1247 684 1252 q 526 1110 661 1110 q 397 1148 470 1110 q 337 1164 368 1164 q 303 1144 310 1163 q 248 1106 286 1109 l 218 1106 q 180 1123 195 1106 q 167 1155 167 1137 q 168 1163 167 1159 z "},"Ò":{"ha":1168,"x_min":54,"x_max":1114,"o":"m 584 1059 q 959 904 803 1059 q 1114 530 1114 749 q 959 155 1114 311 q 584 0 803 0 q 210 155 365 0 q 54 530 54 311 q 210 904 54 749 q 584 1059 365 1059 m 584 894 q 327 787 433 894 q 220 530 220 681 q 327 272 220 378 q 584 166 433 166 q 842 272 735 166 q 948 530 948 378 q 842 787 948 681 q 584 894 735 894 m 391 1309 q 379 1336 379 1321 q 385 1359 379 1347 q 427 1385 398 1385 l 532 1385 q 568 1367 556 1385 l 687 1197 q 697 1169 697 1183 q 692 1148 697 1159 q 650 1123 679 1123 l 599 1123 q 564 1139 581 1123 l 391 1309 z "},"Ó":{"ha":1168,"x_min":54,"x_max":1114,"o":"m 584 1059 q 959 904 803 1059 q 1114 530 1114 749 q 959 155 1114 311 q 584 0 803 0 q 210 155 365 0 q 54 530 54 311 q 210 904 54 749 q 584 1059 365 1059 m 584 894 q 327 787 433 894 q 220 530 220 681 q 327 272 220 378 q 584 166 433 166 q 842 272 735 166 q 948 530 948 378 q 842 787 948 681 q 584 894 735 894 m 606 1139 q 570 1123 589 1123 l 518 1123 q 477 1149 489 1123 q 471 1169 471 1159 q 481 1196 471 1183 l 600 1367 q 637 1385 613 1385 l 742 1385 q 783 1359 771 1385 q 790 1337 790 1347 q 777 1309 790 1322 l 606 1139 z "},"Ô":{"ha":1168,"x_min":54,"x_max":1114,"o":"m 584 1059 q 959 904 803 1059 q 1114 530 1114 749 q 959 155 1114 311 q 584 0 803 0 q 210 155 365 0 q 54 530 54 311 q 210 904 54 749 q 584 1059 365 1059 m 584 894 q 327 787 433 894 q 220 530 220 681 q 327 272 220 378 q 584 166 433 166 q 842 272 735 166 q 948 530 948 378 q 842 787 948 681 q 584 894 735 894 m 585 1234 l 471 1122 q 436 1106 454 1106 l 384 1106 q 342 1132 355 1106 q 336 1154 336 1143 q 347 1181 336 1168 l 481 1351 q 517 1369 495 1369 l 651 1369 q 687 1350 674 1369 l 821 1181 q 832 1153 832 1168 q 827 1132 832 1143 q 785 1106 814 1106 l 733 1106 q 698 1122 714 1106 l 585 1234 z "},"Õ":{"ha":1168,"x_min":54,"x_max":1114,"o":"m 584 1059 q 959 904 803 1059 q 1114 530 1114 749 q 959 155 1114 311 q 584 0 803 0 q 210 155 365 0 q 54 530 54 311 q 210 904 54 749 q 584 1059 365 1059 m 584 894 q 327 787 433 894 q 220 530 220 681 q 327 272 220 378 q 584 166 433 166 q 842 272 735 166 q 948 530 948 378 q 842 787 948 681 q 584 894 735 894 m 326 1163 q 380 1260 336 1224 q 492 1298 425 1298 q 621 1263 547 1298 q 672 1251 646 1251 l 677 1251 q 715 1267 705 1252 q 765 1304 740 1304 l 793 1304 q 831 1287 817 1304 q 843 1256 843 1273 q 842 1247 843 1252 q 684 1110 820 1110 q 556 1148 629 1110 q 496 1164 526 1164 q 462 1144 469 1163 q 406 1106 444 1109 l 376 1106 q 338 1123 354 1106 q 326 1155 326 1137 q 326 1163 326 1159 z "},"Ö":{"ha":1168,"x_min":54,"x_max":1114,"o":"m 584 1059 q 959 904 803 1059 q 1114 530 1114 749 q 959 155 1114 311 q 584 0 803 0 q 210 155 365 0 q 54 530 54 311 q 210 904 54 749 q 584 1059 365 1059 m 584 894 q 327 787 433 894 q 220 530 220 681 q 327 272 220 378 q 584 166 433 166 q 842 272 735 166 q 948 530 948 378 q 842 787 948 681 q 584 894 735 894 m 461 1080 q 394 1108 422 1080 q 366 1175 366 1136 q 394 1242 366 1214 q 461 1270 422 1270 q 528 1242 500 1270 q 556 1175 556 1215 q 528 1108 556 1135 q 461 1080 500 1080 m 707 1080 q 640 1108 668 1080 q 612 1175 612 1136 q 640 1242 612 1214 q 707 1270 668 1270 q 774 1242 746 1270 q 802 1175 802 1215 q 774 1108 802 1135 q 707 1080 746 1080 z "},"×":{"ha":622,"x_min":35,"x_max":588,"o":"m 311 648 l 446 783 q 505 807 471 807 q 566 781 539 807 l 566 779 q 588 724 588 757 q 564 665 588 690 l 429 530 l 564 395 q 588 337 588 371 q 562 276 588 303 l 560 275 q 505 254 538 254 q 446 278 471 254 l 311 413 l 176 277 q 119 254 152 254 l 115 254 q 60 277 83 254 l 59 278 q 35 336 35 302 l 35 338 q 58 395 35 371 l 194 530 l 58 666 q 35 722 35 690 l 35 726 q 58 782 35 758 l 59 783 q 117 807 83 807 l 119 807 q 176 783 152 807 l 311 648 z "},"Ø":{"ha":1168,"x_min":54,"x_max":1114,"o":"m 664 886 q 584 894 638 894 q 327 787 433 894 q 220 530 220 681 q 327 272 220 378 q 374 231 359 241 l 664 886 m 508 173 q 584 166 532 166 q 842 272 735 166 q 948 530 948 378 q 842 787 948 681 q 797 827 811 817 l 508 173 m 865 980 q 959 904 907 955 q 1114 530 1114 749 q 959 155 1114 311 q 584 0 803 0 q 440 18 498 0 l 367 -147 l 206 -147 l 306 77 q 210 155 262 103 q 54 530 54 311 q 210 904 54 749 q 584 1059 365 1059 q 732 1040 672 1059 l 779 1147 l 939 1147 l 865 980 z "},"Ù":{"ha":851,"x_min":75,"x_max":777,"o":"m 777 351 q 673 103 777 205 q 425 0 570 0 q 178 103 281 0 q 75 351 75 205 l 75 977 q 99 1036 75 1011 q 157 1059 123 1059 l 159 1059 q 216 1036 192 1059 q 241 977 241 1011 l 241 351 q 294 220 241 274 q 425 166 349 166 q 557 220 503 166 q 610 351 610 274 l 610 977 q 635 1036 610 1011 q 692 1059 659 1059 l 694 1059 q 752 1036 728 1059 q 777 977 777 1011 l 777 351 m 233 1309 q 220 1336 220 1321 q 227 1359 220 1347 q 268 1385 239 1385 l 373 1385 q 410 1367 397 1385 l 528 1197 q 538 1169 538 1183 q 533 1148 538 1159 q 492 1123 520 1123 l 440 1123 q 405 1139 422 1123 l 233 1309 z "},"Ú":{"ha":851,"x_min":75,"x_max":777,"o":"m 777 351 q 673 103 777 205 q 425 0 570 0 q 178 103 281 0 q 75 351 75 205 l 75 977 q 99 1036 75 1011 q 157 1059 123 1059 l 159 1059 q 216 1036 192 1059 q 241 977 241 1011 l 241 351 q 294 220 241 274 q 425 166 349 166 q 557 220 503 166 q 610 351 610 274 l 610 977 q 635 1036 610 1011 q 692 1059 659 1059 l 694 1059 q 752 1036 728 1059 q 777 977 777 1011 l 777 351 m 447 1139 q 412 1123 430 1123 l 359 1123 q 318 1149 330 1123 q 313 1169 313 1159 q 322 1196 313 1183 l 441 1367 q 479 1385 454 1385 l 583 1385 q 625 1359 612 1385 q 631 1337 631 1347 q 618 1309 631 1322 l 447 1139 z "},"Û":{"ha":851,"x_min":75,"x_max":777,"o":"m 777 351 q 673 103 777 205 q 425 0 570 0 q 178 103 281 0 q 75 351 75 205 l 75 977 q 99 1036 75 1011 q 157 1059 123 1059 l 159 1059 q 216 1036 192 1059 q 241 977 241 1011 l 241 351 q 294 220 241 274 q 425 166 349 166 q 557 220 503 166 q 610 351 610 274 l 610 977 q 635 1036 610 1011 q 692 1059 659 1059 l 694 1059 q 752 1036 728 1059 q 777 977 777 1011 l 777 351 m 426 1234 l 312 1122 q 277 1106 296 1106 l 225 1106 q 184 1132 196 1106 q 178 1154 178 1143 q 189 1181 178 1168 l 322 1351 q 359 1369 336 1369 l 492 1369 q 528 1350 515 1369 l 663 1181 q 673 1153 673 1168 q 668 1132 673 1143 q 627 1106 656 1106 l 574 1106 q 539 1122 555 1106 l 426 1234 z "},"Ü":{"ha":851,"x_min":75,"x_max":777,"o":"m 777 351 q 673 103 777 205 q 425 0 570 0 q 178 103 281 0 q 75 351 75 205 l 75 977 q 99 1036 75 1011 q 157 1059 123 1059 l 159 1059 q 216 1036 192 1059 q 241 977 241 1011 l 241 351 q 294 220 241 274 q 425 166 349 166 q 557 220 503 166 q 610 351 610 274 l 610 977 q 635 1036 610 1011 q 692 1059 659 1059 l 694 1059 q 752 1036 728 1059 q 777 977 777 1011 l 777 351 m 302 1080 q 235 1108 263 1080 q 208 1175 208 1136 q 235 1242 208 1214 q 302 1270 263 1270 q 369 1242 341 1270 q 397 1175 397 1215 q 369 1108 397 1135 q 302 1080 341 1080 m 549 1080 q 481 1108 509 1080 q 454 1175 454 1136 q 481 1242 454 1214 q 549 1270 509 1270 q 615 1242 587 1270 q 644 1175 644 1215 q 615 1108 644 1135 q 549 1080 587 1080 z "},"Ý":{"ha":838,"x_min":68,"x_max":770,"o":"m 770 676 q 688 451 770 549 q 502 334 608 355 l 502 82 q 477 24 502 47 q 420 0 453 0 l 418 0 q 360 24 385 0 q 336 82 336 47 l 336 334 q 149 451 230 355 q 68 676 68 549 l 68 977 q 92 1036 68 1011 q 150 1059 117 1059 l 152 1059 q 210 1036 185 1059 q 234 977 234 1011 l 234 676 q 288 545 234 599 q 418 491 342 491 q 550 545 496 491 q 604 676 604 599 l 604 977 q 628 1036 604 1011 q 686 1059 652 1059 l 688 1059 q 745 1036 721 1059 q 770 977 770 1011 l 770 676 m 440 1139 q 405 1123 423 1123 l 353 1123 q 311 1149 323 1123 q 306 1169 306 1159 q 315 1196 306 1183 l 435 1367 q 472 1385 448 1385 l 576 1385 q 618 1359 606 1385 q 625 1337 625 1347 q 612 1309 625 1322 l 440 1139 z "},"Þ":{"ha":868,"x_min":95,"x_max":817,"o":"m 261 202 l 261 82 q 237 24 261 47 q 179 0 212 0 l 177 0 q 119 24 144 0 q 95 82 95 47 l 95 977 q 119 1036 95 1011 q 177 1059 144 1059 l 179 1059 q 237 1036 212 1059 q 261 977 261 1011 l 261 858 l 489 858 q 721 762 625 858 q 817 530 817 665 q 721 298 817 395 q 489 202 625 202 l 261 202 m 261 692 l 261 368 l 489 368 q 604 415 556 368 q 651 530 651 463 q 604 645 651 597 q 489 692 556 692 l 261 692 z "},"ß":{"ha":803,"x_min":68,"x_max":735,"o":"m 234 82 q 210 24 234 47 q 152 0 185 0 l 150 0 q 92 24 117 0 q 68 82 68 47 l 68 868 q 124 1004 68 947 q 259 1059 180 1059 l 420 1059 q 632 972 545 1059 q 720 761 720 884 q 632 548 720 621 q 735 314 735 469 q 643 92 735 184 q 420 0 551 0 l 379 0 q 321 24 345 0 q 297 82 297 48 l 297 83 q 321 142 297 117 q 379 166 345 166 l 420 166 q 526 209 482 166 q 568 314 568 252 q 526 419 568 376 q 420 463 482 463 l 382 463 q 323 487 348 463 q 300 545 300 511 l 300 546 q 323 604 300 580 q 382 628 348 628 l 420 629 q 515 667 476 629 q 553 761 553 705 q 515 854 553 816 q 420 894 475 894 l 259 894 q 241 886 248 894 q 234 868 234 879 l 234 82 z "},"à":{"ha":917,"x_min":68,"x_max":849,"o":"m 458 781 q 734 667 620 781 q 849 391 849 552 l 849 82 q 825 24 849 47 q 767 0 800 0 l 765 0 q 707 24 732 0 q 683 82 683 47 q 458 0 606 0 q 182 115 297 0 q 68 391 68 229 q 182 667 68 552 q 458 781 297 781 m 458 615 q 299 549 365 615 q 234 391 234 484 q 299 231 234 297 q 458 166 365 166 q 617 231 552 166 q 683 391 683 297 q 617 549 683 484 q 458 615 551 615 m 265 1031 q 253 1058 253 1043 q 259 1081 253 1069 q 300 1107 272 1107 l 406 1107 q 442 1088 430 1107 l 561 919 q 571 891 571 905 q 566 870 571 881 q 524 845 553 845 l 473 845 q 437 861 454 845 l 265 1031 z "},"á":{"ha":917,"x_min":68,"x_max":849,"o":"m 458 781 q 734 667 620 781 q 849 391 849 552 l 849 82 q 825 24 849 47 q 767 0 800 0 l 765 0 q 707 24 732 0 q 683 82 683 47 q 458 0 606 0 q 182 115 297 0 q 68 391 68 229 q 182 667 68 552 q 458 781 297 781 m 458 615 q 299 549 365 615 q 234 391 234 484 q 299 231 234 297 q 458 166 365 166 q 617 231 552 166 q 683 391 683 297 q 617 549 683 484 q 458 615 551 615 m 479 861 q 444 845 463 845 l 392 845 q 351 871 363 845 q 345 891 345 881 q 355 918 345 905 l 474 1088 q 511 1107 487 1107 l 616 1107 q 657 1081 645 1107 q 664 1059 664 1069 q 651 1031 664 1044 l 479 861 z "},"â":{"ha":917,"x_min":68,"x_max":849,"o":"m 458 781 q 734 667 620 781 q 849 391 849 552 l 849 82 q 825 24 849 47 q 767 0 800 0 l 765 0 q 707 24 732 0 q 683 82 683 47 q 458 0 606 0 q 182 115 297 0 q 68 391 68 229 q 182 667 68 552 q 458 781 297 781 m 458 615 q 299 549 365 615 q 234 391 234 484 q 299 231 234 297 q 458 166 365 166 q 617 231 552 166 q 683 391 683 297 q 617 549 683 484 q 458 615 551 615 m 458 956 l 345 844 q 310 828 328 828 l 258 828 q 216 854 229 828 q 210 876 210 865 q 221 903 210 890 l 355 1073 q 391 1090 369 1090 l 525 1090 q 561 1072 548 1090 l 695 903 q 706 875 706 890 q 701 854 706 865 q 659 828 688 828 l 607 828 q 572 844 588 828 l 458 956 z "},"ã":{"ha":917,"x_min":68,"x_max":849,"o":"m 458 781 q 734 667 620 781 q 849 391 849 552 l 849 82 q 825 24 849 47 q 767 0 800 0 l 765 0 q 707 24 732 0 q 683 82 683 47 q 458 0 606 0 q 182 115 297 0 q 68 391 68 229 q 182 667 68 552 q 458 781 297 781 m 458 615 q 299 549 365 615 q 234 391 234 484 q 299 231 234 297 q 458 166 365 166 q 617 231 552 166 q 683 391 683 297 q 617 549 683 484 q 458 615 551 615 m 200 885 q 254 982 210 946 q 366 1020 298 1020 q 495 985 420 1020 q 546 973 519 973 l 551 973 q 589 989 578 974 q 639 1026 614 1026 l 667 1026 q 705 1009 690 1026 q 717 978 717 995 q 716 969 717 974 q 558 832 694 832 q 430 870 503 832 q 370 886 400 886 q 336 866 342 885 q 280 828 318 831 l 250 828 q 212 845 228 828 q 199 877 199 859 q 200 885 199 881 z "},"ä":{"ha":917,"x_min":68,"x_max":849,"o":"m 458 781 q 734 667 620 781 q 849 391 849 552 l 849 82 q 825 24 849 47 q 767 0 800 0 l 765 0 q 707 24 732 0 q 683 82 683 47 q 458 0 606 0 q 182 115 297 0 q 68 391 68 229 q 182 667 68 552 q 458 781 297 781 m 458 615 q 299 549 365 615 q 234 391 234 484 q 299 231 234 297 q 458 166 365 166 q 617 231 552 166 q 683 391 683 297 q 617 549 683 484 q 458 615 551 615 m 335 802 q 268 830 296 802 q 240 897 240 858 q 268 964 240 936 q 335 991 296 991 q 401 964 374 991 q 430 897 430 937 q 401 830 430 857 q 335 802 374 802 m 581 802 q 514 830 542 802 q 486 897 486 858 q 514 964 486 936 q 581 991 542 991 q 648 964 620 991 q 676 897 676 937 q 648 830 676 857 q 581 802 620 802 z "},"å":{"ha":917,"x_min":68,"x_max":849,"o":"m 458 781 q 734 667 620 781 q 849 391 849 552 l 849 82 q 825 24 849 47 q 767 0 800 0 l 765 0 q 707 24 732 0 q 683 82 683 47 q 458 0 606 0 q 182 115 297 0 q 68 391 68 229 q 182 667 68 552 q 458 781 297 781 m 458 615 q 299 549 365 615 q 234 391 234 484 q 299 231 234 297 q 458 166 365 166 q 617 231 552 166 q 683 391 683 297 q 617 549 683 484 q 458 615 551 615 m 411 958 q 424 928 411 941 q 454 915 437 915 l 463 915 q 493 928 480 915 q 506 958 506 941 q 493 989 506 976 q 463 1001 481 1001 l 454 1001 q 424 989 436 1001 q 411 958 411 976 m 286 958 q 334 1074 286 1025 q 450 1122 382 1122 l 467 1122 q 583 1074 534 1122 q 631 958 631 1025 q 583 842 631 890 q 467 794 534 794 l 450 794 q 334 842 382 794 q 286 958 286 890 z "},"æ":{"ha":1522,"x_min":68,"x_max":1448,"o":"m 850 383 l 1229 554 q 1074 614 1179 614 q 915 548 981 614 q 850 389 850 482 l 850 383 m 299 549 q 234 391 234 484 q 299 231 234 297 q 458 166 365 166 q 617 231 552 166 q 683 391 683 297 q 617 549 683 484 q 458 615 551 615 q 299 549 365 615 m 849 68 l 849 82 q 825 24 849 47 q 767 0 800 0 l 765 0 q 707 24 732 0 q 683 82 683 47 l 683 68 q 458 0 606 0 q 182 115 297 0 q 68 391 68 229 q 182 667 68 552 q 458 781 297 781 q 734 667 620 781 q 766 633 762 639 q 798 667 770 639 q 1074 781 913 781 q 1287 718 1191 781 q 1429 553 1383 655 q 1437 519 1437 536 q 1432 490 1437 505 q 1388 444 1420 458 q 1139 332 1293 401 q 913 229 947 245 q 1074 164 965 164 q 1206 207 1147 164 q 1286 315 1263 249 q 1365 371 1306 371 q 1432 336 1407 371 q 1448 290 1448 314 q 1442 261 1448 276 q 1302 74 1402 145 q 1074 0 1200 0 q 849 68 925 0 z "},"ç":{"ha":661,"x_min":47,"x_max":623,"o":"m 438 781 q 556 763 499 781 q 614 684 614 745 l 614 681 q 581 615 614 640 q 533 599 557 599 q 507 603 520 599 q 438 614 473 614 q 279 548 345 614 q 214 389 214 482 q 279 230 214 296 q 438 164 345 164 q 507 175 473 164 q 532 179 519 179 q 581 163 557 179 q 614 96 614 138 q 556 18 614 37 q 438 0 499 0 q 162 115 277 0 q 47 391 47 229 q 162 667 47 552 q 438 781 277 781 m 380 13 l 520 13 l 505 -64 q 587 -105 551 -69 q 623 -184 623 -140 q 565 -294 623 -248 q 399 -338 509 -338 l 335 -338 q 290 -317 308 -338 q 273 -276 273 -300 l 273 -271 l 274 -265 q 294 -225 276 -241 q 336 -209 311 -209 q 372 -210 357 -210 q 454 -195 432 -210 q 465 -178 465 -186 q 462 -168 465 -172 q 442 -158 457 -163 q 418 -154 433 -155 q 376 -130 391 -151 q 363 -92 363 -113 q 363 -82 363 -87 l 380 13 z "},"è":{"ha":866,"x_min":47,"x_max":812,"o":"m 438 614 q 279 548 345 614 q 214 389 214 482 l 214 384 l 593 554 q 438 614 543 614 m 793 553 q 801 519 801 536 q 795 490 801 505 q 752 444 784 458 q 503 332 657 401 q 277 229 311 245 q 438 164 329 164 q 570 207 511 164 q 650 315 627 249 q 729 371 670 371 q 796 336 771 371 q 812 290 812 314 q 806 261 812 276 q 666 74 766 145 q 438 0 564 0 q 162 115 277 0 q 47 391 47 229 q 162 667 47 552 q 438 781 277 781 q 651 718 555 781 q 793 553 747 655 m 237 1031 q 224 1058 224 1043 q 231 1081 224 1069 q 272 1107 243 1107 l 377 1107 q 414 1088 401 1107 l 532 919 q 543 891 543 905 q 537 870 543 881 q 496 845 524 845 l 444 845 q 409 861 426 845 l 237 1031 z "},"é":{"ha":866,"x_min":47,"x_max":812,"o":"m 438 614 q 279 548 345 614 q 214 389 214 482 l 214 384 l 593 554 q 438 614 543 614 m 793 553 q 801 519 801 536 q 795 490 801 505 q 752 444 784 458 q 503 332 657 401 q 277 229 311 245 q 438 164 329 164 q 570 207 511 164 q 650 315 627 249 q 729 371 670 371 q 796 336 771 371 q 812 290 812 314 q 806 261 812 276 q 666 74 766 145 q 438 0 564 0 q 162 115 277 0 q 47 391 47 229 q 162 667 47 552 q 438 781 277 781 q 651 718 555 781 q 793 553 747 655 m 451 861 q 416 845 434 845 l 363 845 q 322 871 334 845 q 317 891 317 881 q 326 918 317 905 l 446 1088 q 483 1107 458 1107 l 587 1107 q 629 1081 616 1107 q 635 1059 635 1069 q 623 1031 635 1044 l 451 861 z "},"ê":{"ha":866,"x_min":47,"x_max":812,"o":"m 438 614 q 279 548 345 614 q 214 389 214 482 l 214 384 l 593 554 q 438 614 543 614 m 793 553 q 801 519 801 536 q 795 490 801 505 q 752 444 784 458 q 503 332 657 401 q 277 229 311 245 q 438 164 329 164 q 570 207 511 164 q 650 315 627 249 q 729 371 670 371 q 796 336 771 371 q 812 290 812 314 q 806 261 812 276 q 666 74 766 145 q 438 0 564 0 q 162 115 277 0 q 47 391 47 229 q 162 667 47 552 q 438 781 277 781 q 651 718 555 781 q 793 553 747 655 m 429 956 l 315 844 q 281 828 299 828 l 229 828 q 187 854 199 828 q 181 876 181 865 q 192 903 181 890 l 326 1073 q 362 1090 340 1090 l 496 1090 q 532 1072 519 1090 l 666 903 q 677 875 677 890 q 671 854 677 865 q 630 828 659 828 l 578 828 q 543 844 559 828 l 429 956 z "},"ë":{"ha":866,"x_min":47,"x_max":812,"o":"m 438 614 q 279 548 345 614 q 214 389 214 482 l 214 384 l 593 554 q 438 614 543 614 m 793 553 q 801 519 801 536 q 795 490 801 505 q 752 444 784 458 q 503 332 657 401 q 277 229 311 245 q 438 164 329 164 q 570 207 511 164 q 650 315 627 249 q 729 371 670 371 q 796 336 771 371 q 812 290 812 314 q 806 261 812 276 q 666 74 766 145 q 438 0 564 0 q 162 115 277 0 q 47 391 47 229 q 162 667 47 552 q 438 781 277 781 q 651 718 555 781 q 793 553 747 655 m 307 802 q 239 830 267 802 q 212 897 212 858 q 239 964 212 936 q 307 991 267 991 q 373 964 345 991 q 401 897 401 937 q 373 830 401 857 q 307 802 345 802 m 553 802 q 486 830 513 802 q 458 897 458 858 q 486 964 458 936 q 553 991 513 991 q 619 964 591 991 q 648 897 648 937 q 619 830 648 857 q 553 802 591 802 z "},"ì":{"ha":353,"x_min":-36,"x_max":282,"o":"m 177 781 q 235 757 212 781 q 259 699 259 732 l 259 82 q 235 24 259 47 q 177 0 212 0 l 176 0 q 117 24 142 0 q 93 82 93 47 l 93 699 q 117 757 93 732 q 176 781 142 781 l 177 781 m -24 1031 q -36 1058 -36 1043 q -30 1081 -36 1069 q 12 1107 -17 1107 l 117 1107 q 153 1088 141 1107 l 272 919 q 282 891 282 905 q 277 870 282 881 q 235 845 264 845 l 184 845 q 149 861 165 845 l -24 1031 z "},"í":{"ha":353,"x_min":70,"x_max":389,"o":"m 177 781 q 235 757 212 781 q 259 699 259 732 l 259 82 q 235 24 259 47 q 177 0 212 0 l 176 0 q 117 24 142 0 q 93 82 93 47 l 93 699 q 117 757 93 732 q 176 781 142 781 l 177 781 m 204 861 q 169 845 187 845 l 117 845 q 75 871 87 845 q 70 891 70 881 q 79 918 70 905 l 199 1088 q 236 1107 212 1107 l 340 1107 q 382 1081 370 1107 q 389 1059 389 1069 q 376 1031 389 1044 l 204 861 z "},"î":{"ha":353,"x_min":-72,"x_max":424,"o":"m 177 781 q 235 757 212 781 q 259 699 259 732 l 259 82 q 235 24 259 47 q 177 0 212 0 l 176 0 q 117 24 142 0 q 93 82 93 47 l 93 699 q 117 757 93 732 q 176 781 142 781 l 177 781 m 176 956 l 62 844 q 28 828 46 828 l -24 828 q -66 854 -54 828 q -72 876 -72 865 q -61 903 -72 890 l 73 1073 q 109 1090 87 1090 l 243 1090 q 279 1072 266 1090 l 413 903 q 424 875 424 890 q 418 854 424 865 q 377 828 406 828 l 325 828 q 290 844 306 828 l 176 956 z "},"ï":{"ha":353,"x_min":-42,"x_max":394,"o":"m 177 781 q 235 757 212 781 q 259 699 259 732 l 259 82 q 235 24 259 47 q 177 0 212 0 l 176 0 q 117 24 142 0 q 93 82 93 47 l 93 699 q 117 757 93 732 q 176 781 142 781 l 177 781 m 53 802 q -14 830 14 802 q -42 897 -42 858 q -14 964 -42 936 q 53 991 14 991 q 119 964 92 991 q 148 897 148 937 q 119 830 148 857 q 53 802 92 802 m 299 802 q 232 830 260 802 q 204 897 204 858 q 232 964 204 936 q 299 991 260 991 q 366 964 338 991 q 394 897 394 937 q 366 830 394 857 q 299 802 338 802 z "},"ð":{"ha":917,"x_min":68,"x_max":849,"o":"m 458 614 q 299 548 365 614 q 234 389 234 482 q 299 230 234 296 q 458 164 365 164 q 617 230 551 164 q 683 389 683 296 q 617 548 683 482 q 458 614 551 614 m 521 1091 l 526 1088 q 547 1053 547 1072 q 535 1023 547 1039 l 502 979 q 800 621 712 836 q 847 432 844 513 q 849 391 849 411 q 734 115 849 229 q 458 0 620 0 q 182 115 297 0 q 68 391 68 229 q 182 667 68 552 q 458 781 297 781 q 505 784 505 781 q 503 785 505 785 q 410 857 494 796 l 366 798 q 332 777 351 777 q 302 789 318 777 l 296 792 q 275 827 275 808 q 288 857 275 841 l 326 908 q 298 921 322 909 q 274 951 279 930 q 272 964 272 958 q 279 988 272 976 l 309 1031 q 344 1055 323 1055 q 366 1050 354 1055 q 414 1027 399 1035 l 456 1082 q 491 1103 471 1103 q 521 1091 505 1103 z "},"ñ":{"ha":791,"x_min":68,"x_max":724,"o":"m 234 82 q 210 24 234 47 q 152 0 185 0 l 150 0 q 92 24 117 0 q 68 82 68 47 l 68 453 q 164 685 68 589 q 396 781 260 781 q 627 685 531 781 q 724 453 724 589 l 724 82 q 699 24 724 47 q 642 0 676 0 l 640 0 q 582 24 606 0 q 557 82 557 47 l 557 453 q 511 568 557 520 q 396 615 463 615 q 281 568 328 615 q 234 453 234 520 l 234 82 m 138 885 q 191 982 148 946 q 303 1020 236 1020 q 433 985 358 1020 q 484 973 457 973 l 489 973 q 527 989 516 974 q 576 1026 551 1026 l 604 1026 q 642 1009 628 1026 q 654 978 654 995 q 654 969 654 974 q 496 832 631 832 q 368 870 440 832 q 307 886 338 886 q 273 866 280 885 q 218 828 256 831 l 188 828 q 150 845 165 828 q 137 877 137 859 q 138 885 137 881 z "},"ò":{"ha":876,"x_min":47,"x_max":829,"o":"m 438 614 q 279 548 345 614 q 214 389 214 482 q 279 230 214 296 q 438 164 345 164 q 597 230 531 164 q 663 389 663 296 q 597 548 663 482 q 438 614 531 614 m 438 781 q 714 667 600 781 q 829 391 829 552 q 714 115 829 229 q 438 0 600 0 q 162 115 277 0 q 47 391 47 229 q 162 667 47 552 q 438 781 277 781 m 245 1031 q 233 1058 233 1043 q 239 1081 233 1069 q 280 1107 252 1107 l 385 1107 q 422 1088 410 1107 l 541 919 q 551 891 551 905 q 545 870 551 881 q 504 845 532 845 l 452 845 q 417 861 434 845 l 245 1031 z "},"ó":{"ha":876,"x_min":47,"x_max":829,"o":"m 438 614 q 279 548 345 614 q 214 389 214 482 q 279 230 214 296 q 438 164 345 164 q 597 230 531 164 q 663 389 663 296 q 597 548 663 482 q 438 614 531 614 m 438 781 q 714 667 600 781 q 829 391 829 552 q 714 115 829 229 q 438 0 600 0 q 162 115 277 0 q 47 391 47 229 q 162 667 47 552 q 438 781 277 781 m 459 861 q 424 845 442 845 l 372 845 q 330 871 342 845 q 325 891 325 881 q 334 918 325 905 l 454 1088 q 491 1107 467 1107 l 595 1107 q 637 1081 625 1107 q 644 1059 644 1069 q 631 1031 644 1044 l 459 861 z "},"ô":{"ha":876,"x_min":47,"x_max":829,"o":"m 438 614 q 279 548 345 614 q 214 389 214 482 q 279 230 214 296 q 438 164 345 164 q 597 230 531 164 q 663 389 663 296 q 597 548 663 482 q 438 614 531 614 m 438 781 q 714 667 600 781 q 829 391 829 552 q 714 115 829 229 q 438 0 600 0 q 162 115 277 0 q 47 391 47 229 q 162 667 47 552 q 438 781 277 781 m 438 956 l 324 844 q 290 828 308 828 l 237 828 q 196 854 208 828 q 190 876 190 865 q 201 903 190 890 l 334 1073 q 371 1090 349 1090 l 505 1090 q 541 1072 528 1090 l 675 903 q 686 875 686 890 q 680 854 686 865 q 639 828 668 828 l 587 828 q 551 844 568 828 l 438 956 z "},"õ":{"ha":876,"x_min":47,"x_max":829,"o":"m 438 614 q 279 548 345 614 q 214 389 214 482 q 279 230 214 296 q 438 164 345 164 q 597 230 531 164 q 663 389 663 296 q 597 548 663 482 q 438 614 531 614 m 438 781 q 714 667 600 781 q 829 391 829 552 q 714 115 829 229 q 438 0 600 0 q 162 115 277 0 q 47 391 47 229 q 162 667 47 552 q 438 781 277 781 m 180 885 q 233 982 190 946 q 345 1020 278 1020 q 475 985 400 1020 q 526 973 499 973 l 531 973 q 569 989 558 974 q 618 1026 593 1026 l 646 1026 q 684 1009 670 1026 q 696 978 696 995 q 696 969 696 974 q 538 832 673 832 q 410 870 482 832 q 349 886 380 886 q 315 866 322 885 q 260 828 298 831 l 230 828 q 192 845 208 828 q 179 877 179 859 q 180 885 179 881 z "},"ö":{"ha":876,"x_min":47,"x_max":829,"o":"m 438 614 q 279 548 345 614 q 214 389 214 482 q 279 230 214 296 q 438 164 345 164 q 597 230 531 164 q 663 389 663 296 q 597 548 663 482 q 438 614 531 614 m 438 781 q 714 667 600 781 q 829 391 829 552 q 714 115 829 229 q 438 0 600 0 q 162 115 277 0 q 47 391 47 229 q 162 667 47 552 q 438 781 277 781 m 315 802 q 248 830 275 802 q 220 897 220 858 q 248 964 220 936 q 315 991 275 991 q 381 964 353 991 q 410 897 410 937 q 381 830 410 857 q 315 802 353 802 m 561 802 q 494 830 522 802 q 466 897 466 858 q 494 964 466 936 q 561 991 522 991 q 627 964 600 991 q 656 897 656 937 q 627 830 656 857 q 561 802 600 802 z "},"÷":{"ha":646,"x_min":34,"x_max":612,"o":"m 612 529 q 587 471 612 494 q 529 447 563 447 l 116 447 q 58 471 81 447 q 34 529 34 494 l 34 530 q 58 589 34 564 q 116 613 81 613 l 529 613 q 587 589 563 613 q 612 530 612 564 l 612 529 m 323 208 q 256 235 283 208 q 228 302 228 263 q 256 369 228 341 q 323 397 283 397 q 389 369 361 397 q 418 302 418 342 q 389 235 418 262 q 323 208 361 208 m 323 664 q 256 692 283 664 q 228 759 228 720 q 256 825 228 798 q 323 853 283 853 q 389 825 361 853 q 418 759 418 798 q 389 692 418 719 q 323 664 361 664 z "},"ø":{"ha":876,"x_min":47,"x_max":829,"o":"m 284 225 l 463 614 l 438 614 q 279 548 345 614 q 214 389 214 482 q 279 230 214 296 q 284 225 282 227 m 417 163 q 438 164 420 164 q 597 230 531 164 q 663 389 663 296 q 596 548 663 482 q 594 551 595 549 l 417 163 m 214 70 q 162 115 193 83 q 47 391 47 229 q 162 667 47 552 q 438 781 277 781 q 534 770 497 781 l 601 917 l 761 917 l 666 709 q 714 667 684 696 q 829 391 829 552 q 714 115 829 229 q 438 0 600 0 q 347 9 381 0 l 277 -142 l 117 -142 l 214 70 z "},"ù":{"ha":791,"x_min":68,"x_max":724,"o":"m 234 328 q 281 213 234 260 q 396 166 328 166 q 511 213 463 166 q 557 328 557 260 l 557 699 q 582 757 557 732 q 640 781 606 781 l 642 781 q 699 757 676 781 q 724 699 724 732 l 724 328 q 627 96 724 193 q 396 0 531 0 q 164 96 260 0 q 68 328 68 193 l 68 699 q 92 757 68 732 q 150 781 117 781 l 152 781 q 210 757 185 781 q 234 699 234 732 l 234 328 m 203 1031 q 191 1058 191 1043 q 197 1081 191 1069 q 238 1107 210 1107 l 343 1107 q 380 1088 368 1107 l 498 919 q 509 891 509 905 q 503 870 509 881 q 462 845 490 845 l 410 845 q 375 861 392 845 l 203 1031 z "},"ú":{"ha":791,"x_min":68,"x_max":724,"o":"m 234 328 q 281 213 234 260 q 396 166 328 166 q 511 213 463 166 q 557 328 557 260 l 557 699 q 582 757 557 732 q 640 781 606 781 l 642 781 q 699 757 676 781 q 724 699 724 732 l 724 328 q 627 96 724 193 q 396 0 531 0 q 164 96 260 0 q 68 328 68 193 l 68 699 q 92 757 68 732 q 150 781 117 781 l 152 781 q 210 757 185 781 q 234 699 234 732 l 234 328 m 417 861 q 382 845 400 845 l 330 845 q 288 871 300 845 q 283 891 283 881 q 292 918 283 905 l 412 1088 q 449 1107 425 1107 l 553 1107 q 595 1081 583 1107 q 602 1059 602 1069 q 589 1031 602 1044 l 417 861 z "},"û":{"ha":791,"x_min":68,"x_max":724,"o":"m 234 328 q 281 213 234 260 q 396 166 328 166 q 511 213 463 166 q 557 328 557 260 l 557 699 q 582 757 557 732 q 640 781 606 781 l 642 781 q 699 757 676 781 q 724 699 724 732 l 724 328 q 627 96 724 193 q 396 0 531 0 q 164 96 260 0 q 68 328 68 193 l 68 699 q 92 757 68 732 q 150 781 117 781 l 152 781 q 210 757 185 781 q 234 699 234 732 l 234 328 m 396 956 l 282 844 q 248 828 266 828 l 195 828 q 154 854 166 828 q 148 876 148 865 q 159 903 148 890 l 292 1073 q 329 1090 307 1090 l 463 1090 q 498 1072 486 1090 l 633 903 q 644 875 644 890 q 638 854 644 865 q 597 828 626 828 l 545 828 q 509 844 526 828 l 396 956 z "},"ü":{"ha":791,"x_min":68,"x_max":724,"o":"m 234 328 q 281 213 234 260 q 396 166 328 166 q 511 213 463 166 q 557 328 557 260 l 557 699 q 582 757 557 732 q 640 781 606 781 l 642 781 q 699 757 676 781 q 724 699 724 732 l 724 328 q 627 96 724 193 q 396 0 531 0 q 164 96 260 0 q 68 328 68 193 l 68 699 q 92 757 68 732 q 150 781 117 781 l 152 781 q 210 757 185 781 q 234 699 234 732 l 234 328 m 273 802 q 205 830 233 802 q 178 897 178 858 q 205 964 178 936 q 273 991 233 991 q 339 964 311 991 q 368 897 368 937 q 339 830 368 857 q 273 802 311 802 m 519 802 q 452 830 479 802 q 424 897 424 858 q 452 964 424 936 q 519 991 479 991 q 585 964 557 991 q 614 897 614 937 q 585 830 614 857 q 519 802 557 802 z "},"ý":{"ha":791,"x_min":68,"x_max":724,"o":"m 234 342 q 281 228 234 275 q 396 180 328 180 q 510 228 463 180 q 557 342 557 275 l 557 699 q 582 757 557 732 q 640 781 606 781 l 642 781 q 699 757 676 781 q 724 699 724 732 l 724 50 q 623 -182 724 -85 q 396 -279 524 -279 q 211 -229 294 -279 q 87 -98 130 -180 q 78 -61 78 -79 q 85 -30 78 -45 q 132 17 98 5 l 135 18 q 164 23 150 23 q 193 18 179 23 q 235 -21 221 6 q 300 -87 257 -62 q 396 -113 345 -113 q 509 -65 460 -113 q 557 50 557 -16 l 557 55 q 396 15 504 15 q 164 111 260 15 q 68 342 68 207 l 68 699 q 92 757 68 732 q 150 781 117 781 l 152 781 q 210 757 185 781 q 234 699 234 732 l 234 342 m 417 861 q 382 845 400 845 l 330 845 q 288 871 300 845 q 283 891 283 881 q 292 918 283 905 l 412 1088 q 449 1107 425 1107 l 553 1107 q 595 1081 583 1107 q 602 1059 602 1069 q 589 1031 602 1044 l 417 861 z "},"þ":{"ha":897,"x_min":68,"x_max":849,"o":"m 234 714 q 458 781 309 781 q 734 667 620 781 q 849 391 849 552 q 734 115 849 229 q 458 0 620 0 q 234 68 311 0 l 234 -197 q 210 -254 234 -230 q 152 -279 185 -279 l 150 -279 q 92 -254 117 -279 q 68 -197 68 -230 l 68 977 q 92 1036 68 1011 q 150 1059 117 1059 l 152 1059 q 210 1036 185 1059 q 234 977 234 1011 l 234 714 m 234 392 q 299 233 234 299 q 458 168 365 168 q 617 233 551 168 q 683 392 683 299 q 617 551 683 486 q 458 616 552 616 q 299 551 365 616 q 234 392 234 486 z "},"ÿ":{"ha":791,"x_min":68,"x_max":724,"o":"m 234 342 q 281 228 234 275 q 396 180 328 180 q 510 228 463 180 q 557 342 557 275 l 557 699 q 582 757 557 732 q 640 781 606 781 l 642 781 q 699 757 676 781 q 724 699 724 732 l 724 50 q 623 -182 724 -85 q 396 -279 524 -279 q 211 -229 294 -279 q 87 -98 130 -180 q 78 -61 78 -79 q 85 -30 78 -45 q 132 17 98 5 l 135 18 q 164 23 150 23 q 193 18 179 23 q 235 -21 221 6 q 300 -87 257 -62 q 396 -113 345 -113 q 509 -65 460 -113 q 557 50 557 -16 l 557 55 q 396 15 504 15 q 164 111 260 15 q 68 342 68 207 l 68 699 q 92 757 68 732 q 150 781 117 781 l 152 781 q 210 757 185 781 q 234 699 234 732 l 234 342 m 273 802 q 205 830 233 802 q 178 897 178 858 q 205 964 178 936 q 273 991 233 991 q 339 964 311 991 q 368 897 368 937 q 339 830 368 857 q 273 802 311 802 m 519 802 q 452 830 479 802 q 424 897 424 858 q 452 964 424 936 q 519 991 479 991 q 585 964 557 991 q 614 897 614 937 q 585 830 614 857 q 519 802 557 802 z "},"ı":{"ha":353,"x_min":93,"x_max":259,"o":"m 177 781 q 235 757 212 781 q 259 699 259 732 l 259 82 q 235 24 259 47 q 177 0 212 0 l 176 0 q 117 24 142 0 q 93 82 93 47 l 93 699 q 117 757 93 732 q 176 781 142 781 l 177 781 z "},"ˆ":{"ha":638,"x_min":71,"x_max":567,"o":"m 319 956 l 205 844 q 171 828 189 828 l 119 828 q 77 854 90 828 q 71 876 71 865 q 82 903 71 890 l 216 1073 q 252 1090 230 1090 l 386 1090 q 422 1072 409 1090 l 556 903 q 567 875 567 890 q 562 854 567 865 q 520 828 549 828 l 468 828 q 433 844 449 828 l 319 956 z "},"ˇ":{"ha":639,"x_min":72,"x_max":567,"o":"m 319 968 q 369 1017 326 975 q 433 1081 412 1059 q 468 1097 450 1097 l 520 1097 q 562 1071 549 1097 q 567 1050 567 1060 q 556 1022 567 1035 l 422 852 q 386 835 409 835 l 252 835 q 216 852 231 835 l 83 1022 q 72 1050 72 1035 q 77 1071 72 1060 q 119 1097 90 1097 l 171 1097 q 205 1080 190 1097 l 319 968 z "},"ˉ":{"ha":442,"x_min":34,"x_max":408,"o":"m 408 932 q 384 874 408 897 q 326 850 359 850 l 116 850 q 58 874 81 850 q 34 932 34 897 l 34 933 q 58 991 34 967 q 116 1016 81 1016 l 326 1016 q 384 991 359 1016 q 408 933 408 967 l 408 932 z "},"˘":{"ha":633,"x_min":73,"x_max":562,"o":"m 499 1078 q 549 1053 530 1078 q 562 1017 562 1036 q 558 996 562 1006 q 461 870 530 916 q 317 828 397 828 q 173 870 237 828 q 76 996 103 916 q 73 1017 73 1007 q 84 1053 73 1036 q 135 1078 103 1078 l 149 1078 q 207 1040 191 1078 q 317 968 236 968 l 318 968 q 427 1039 399 968 q 485 1078 443 1078 l 499 1078 z "},"˙":{"ha":326,"x_min":68,"x_max":258,"o":"m 163 850 q 96 878 123 850 q 68 945 68 905 q 96 1011 68 983 q 163 1039 123 1039 q 229 1011 201 1039 q 258 945 258 984 q 229 878 258 905 q 163 850 201 850 z "},"˚":{"ha":480,"x_min":68,"x_max":412,"o":"m 193 958 q 205 928 193 941 q 235 915 218 915 l 244 915 q 275 928 262 915 q 288 958 288 941 q 275 989 288 976 q 244 1001 262 1001 l 235 1001 q 205 989 218 1001 q 193 958 193 976 m 68 958 q 116 1074 68 1025 q 232 1122 164 1122 l 248 1122 q 364 1074 315 1122 q 412 958 412 1025 q 364 842 412 890 q 248 794 315 794 l 232 794 q 116 842 164 794 q 68 958 68 890 z "},"˛":{"ha":395,"x_min":44,"x_max":304,"o":"m 304 -276 q 187 -314 262 -314 q 87 -278 126 -314 q 44 -176 44 -239 q 85 -55 44 -124 q 141 16 109 -15 l 292 16 q 210 -77 231 -44 q 182 -142 182 -117 q 187 -160 182 -152 q 222 -180 199 -180 q 235 -178 229 -180 q 304 -144 256 -174 l 304 -276 z "},"˜":{"ha":656,"x_min":69,"x_max":587,"o":"m 70 885 q 123 982 80 946 q 235 1020 168 1020 q 365 985 290 1020 q 416 973 389 973 l 421 973 q 459 989 448 974 q 509 1026 484 1026 l 536 1026 q 574 1009 560 1026 q 587 978 587 995 q 586 969 587 974 q 428 832 564 832 q 300 870 372 832 q 239 886 270 886 q 205 866 212 885 q 150 828 188 831 l 120 828 q 82 845 98 828 q 69 877 69 859 q 70 885 69 881 z "},"˝":{"ha":735,"x_min":73,"x_max":669,"o":"m 208 881 q 172 865 191 865 l 120 865 q 79 891 91 865 q 73 911 73 901 q 83 939 73 926 l 202 1109 q 239 1128 215 1128 l 344 1128 q 385 1101 373 1128 q 392 1079 392 1089 q 379 1051 392 1064 l 208 881 m 484 881 q 449 865 467 865 l 397 865 q 355 891 368 865 q 350 911 350 901 q 359 939 350 926 l 479 1109 q 516 1128 492 1128 l 621 1128 q 662 1101 650 1128 q 669 1079 669 1089 q 656 1051 669 1064 l 484 881 z "},"–":{"ha":812,"x_min":68,"x_max":744,"o":"m 68 467 l 744 467 l 744 312 l 68 312 l 68 467 z "},"—":{"ha":1083,"x_min":68,"x_max":1015,"o":"m 68 467 l 1015 467 l 1015 312 l 68 312 l 68 467 z "},"‘":{"ha":309,"x_min":68,"x_max":241,"o":"m 176 888 q 216 864 193 888 q 241 806 241 840 l 241 762 q 216 703 241 728 q 159 680 192 680 l 151 680 q 92 703 117 680 q 68 762 68 728 l 68 868 q 106 1017 68 962 q 159 1063 126 1047 l 222 1015 q 176 903 176 957 q 176 888 176 896 z "},"’":{"ha":309,"x_min":68,"x_max":241,"o":"m 132 850 q 92 875 115 850 q 68 932 68 899 l 68 977 q 92 1036 68 1011 q 150 1059 117 1059 l 158 1059 q 216 1036 192 1059 q 241 977 241 1011 l 241 871 q 203 722 241 777 q 149 676 182 692 l 86 724 q 133 836 133 782 q 132 850 133 843 z "},"‚":{"ha":309,"x_min":68,"x_max":241,"o":"m 132 1 q 92 26 115 1 q 68 83 68 50 l 68 128 q 92 186 68 162 q 150 210 117 210 l 158 210 q 216 186 192 210 q 241 128 241 162 l 241 22 q 203 -127 241 -72 q 149 -173 182 -157 l 86 -125 q 133 -14 133 -67 q 132 1 133 -6 z "},"“":{"ha":494,"x_min":68,"x_max":426,"o":"m 176 888 q 216 864 193 888 q 241 806 241 840 l 241 762 q 216 703 241 728 q 159 680 192 680 l 151 680 q 92 703 117 680 q 68 762 68 728 l 68 868 q 106 1017 68 962 q 159 1063 126 1047 l 222 1015 q 176 903 176 957 q 176 888 176 896 m 361 888 q 401 864 378 888 q 426 806 426 840 l 426 762 q 401 703 426 728 q 344 680 377 680 l 336 680 q 277 703 302 680 q 253 762 253 728 l 253 868 q 291 1017 253 962 q 345 1063 311 1047 l 408 1015 q 361 903 361 957 q 361 888 361 896 z "},"”":{"ha":494,"x_min":68,"x_max":426,"o":"m 132 850 q 92 875 115 850 q 68 932 68 899 l 68 977 q 92 1036 68 1011 q 150 1059 117 1059 l 158 1059 q 216 1036 192 1059 q 241 977 241 1011 l 241 871 q 203 722 241 777 q 149 676 182 692 l 86 724 q 133 836 133 782 q 132 850 133 843 m 317 850 q 277 875 300 850 q 253 932 253 899 l 253 977 q 277 1036 253 1011 q 335 1059 302 1059 l 343 1059 q 401 1036 377 1059 q 426 977 426 1011 l 426 871 q 388 722 426 777 q 334 676 368 692 l 271 724 q 318 836 318 782 q 317 850 318 843 z "},"„":{"ha":494,"x_min":68,"x_max":426,"o":"m 132 1 q 92 26 115 1 q 68 83 68 50 l 68 128 q 92 186 68 162 q 150 210 117 210 l 158 210 q 216 186 192 210 q 241 128 241 162 l 241 22 q 203 -127 241 -72 q 149 -173 182 -157 l 86 -125 q 133 -14 133 -67 q 132 1 133 -6 m 317 1 q 277 26 300 1 q 253 83 253 50 l 253 128 q 277 186 253 162 q 335 210 302 210 l 343 210 q 401 186 377 210 q 426 128 426 162 l 426 22 q 388 -127 426 -72 q 334 -173 368 -157 l 271 -125 q 318 -14 318 -67 q 317 1 318 -6 z "},"†":{"ha":773,"x_min":7,"x_max":766,"o":"m 461 646 l 461 -189 l 312 -189 l 312 646 l 7 646 l 7 795 l 312 795 l 312 1100 l 461 1100 l 461 795 l 766 795 l 766 646 l 461 646 z "},"‡":{"ha":773,"x_min":7,"x_max":766,"o":"m 312 788 l 312 1100 l 461 1100 l 461 788 l 766 788 l 766 639 l 461 639 l 461 273 l 766 273 l 766 123 l 461 123 l 461 -189 l 312 -189 l 312 123 l 7 123 l 7 273 l 312 273 l 312 639 l 7 639 l 7 788 l 312 788 z "},"•":{"ha":606,"x_min":68,"x_max":538,"o":"m 302 732 q 469 664 400 732 q 538 498 538 595 q 469 331 538 400 q 302 262 400 262 q 137 331 205 262 q 68 498 68 400 q 137 664 68 595 q 302 732 205 732 z "},"…":{"ha":1430,"x_min":68,"x_max":1184,"o":"m 163 0 q 96 28 123 0 q 68 95 68 56 q 96 161 68 134 q 163 189 123 189 q 229 161 201 189 q 258 95 258 134 q 229 28 258 55 q 163 0 201 0 m 626 0 q 559 28 587 0 q 531 95 531 56 q 559 161 531 134 q 626 189 587 189 q 692 161 665 189 q 721 95 721 134 q 692 28 721 55 q 626 0 665 0 m 1089 0 q 1022 28 1050 0 q 994 95 994 56 q 1022 161 994 134 q 1089 189 1050 189 q 1156 161 1128 189 q 1184 95 1184 134 q 1156 28 1184 55 q 1089 0 1128 0 z "},"‹":{"ha":500,"x_min":20,"x_max":514,"o":"m 298 781 l 514 781 l 203 509 l 514 237 l 298 237 l 39 466 q 20 509 20 483 q 39 552 20 535 l 298 781 z "},"›":{"ha":500,"x_min":-14,"x_max":480,"o":"m 461 552 q 480 509 480 535 q 461 466 480 483 l 202 237 l -14 237 l 298 509 l -14 781 l 202 781 l 461 552 z "},"⁄":{"ha":336,"x_min":-33,"x_max":444,"o":"m 444 1107 l 92 -84 l -33 -84 l 320 1107 l 444 1107 z "},"∕":{"ha":336,"x_min":-33,"x_max":444,"o":"m 444 1107 l 92 -84 l -33 -84 l 320 1107 l 444 1107 z "},"₣":{"ha":699,"x_min":7,"x_max":665,"o":"m 349 358 q 404 334 380 357 q 428 276 428 310 l 428 275 q 404 216 428 241 q 369 193 380 193 l 369 192 l 293 192 l 293 82 q 269 24 293 47 q 211 0 244 0 l 209 0 q 151 24 176 0 q 127 82 127 47 l 127 192 l 66 192 l 66 193 q 31 216 54 193 q 7 275 7 241 l 7 276 q 31 334 7 310 q 86 358 54 357 l 127 358 l 127 812 q 199 987 127 914 q 374 1059 272 1059 l 583 1059 q 640 1036 616 1059 q 665 977 665 1011 l 665 976 q 640 918 665 942 q 583 894 616 894 l 374 894 q 317 870 340 894 q 293 812 293 846 l 293 612 l 576 612 q 633 589 609 612 q 658 530 658 564 l 658 529 q 633 471 658 494 q 576 447 609 447 l 293 447 l 293 358 l 349 358 z "},"₤":{"ha":828,"x_min":68,"x_max":760,"o":"m 583 785 q 532 863 570 832 q 441 894 492 894 q 336 850 380 894 q 293 745 293 807 l 293 564 l 488 564 q 547 539 522 564 q 570 481 570 515 l 570 479 q 547 422 570 446 q 488 397 522 397 l 293 397 l 293 166 l 677 166 q 736 142 711 166 q 760 83 760 117 l 760 82 q 736 24 760 47 q 677 0 711 0 l 209 0 q 151 24 176 0 q 127 82 127 47 l 127 397 l 127 397 q 85 415 103 397 q 68 458 68 433 l 68 503 q 85 546 68 528 q 127 564 103 564 l 127 564 l 127 745 q 219 967 127 876 q 441 1059 311 1059 q 633 994 548 1059 q 744 829 716 930 q 747 806 747 817 q 730 758 747 780 q 665 725 706 725 l 663 725 q 583 785 600 725 z "},"₧":{"ha":1677,"x_min":109,"x_max":1659,"o":"m 570 626 q 606 761 606 667 q 570 896 606 855 q 485 937 534 935 l 267 937 l 267 585 l 485 585 q 570 626 534 587 m 1063 -9 q 875 21 920 -9 q 791 263 792 75 l 791 637 l 742 637 q 660 500 724 559 q 464 427 595 427 l 267 427 l 267 0 l 109 0 l 109 1101 l 506 1101 l 506 1100 q 678 1009 600 1099 q 757 785 755 924 l 805 785 l 805 1018 l 963 1116 l 963 785 l 1210 785 q 1331 802 1263 802 l 1345 802 q 1636 566 1593 794 l 1476 546 q 1333 658 1453 658 q 1247 637 1287 658 q 1202 582 1204 615 l 1202 580 q 1246 523 1202 541 q 1390 481 1278 511 q 1577 406 1522 447 q 1659 246 1659 347 q 1658 223 1659 235 q 1541 48 1649 112 q 1348 -9 1458 -3 l 1063 -9 m 1351 142 q 1428 155 1394 142 q 1489 206 1477 173 q 1493 227 1493 217 q 1444 286 1493 262 q 1311 326 1423 296 q 1131 393 1187 357 q 1038 567 1038 455 q 1045 637 1038 623 l 963 637 l 963 250 q 989 153 966 167 q 1095 142 1003 146 l 1351 142 z "},"€":{"ha":974,"x_min":68,"x_max":906,"o":"m 349 538 l 349 530 q 349 505 349 509 l 623 505 q 666 488 648 505 q 684 445 684 469 l 684 429 q 666 387 684 405 q 623 369 648 369 l 385 369 q 505 231 414 294 q 713 166 598 166 q 804 177 759 166 q 825 180 814 180 q 874 163 851 180 q 906 98 906 138 l 906 96 q 844 16 906 33 q 713 0 780 0 q 391 109 533 0 q 207 369 251 216 l 127 369 q 85 387 103 369 q 68 429 68 405 l 68 445 q 85 487 68 469 q 127 505 103 505 l 183 505 l 183 538 l 127 538 q 85 556 103 538 q 68 599 68 574 l 68 614 q 85 656 68 639 q 127 674 103 674 l 203 674 q 384 946 242 833 q 713 1059 529 1059 q 844 1043 780 1059 q 906 964 906 1027 l 906 962 q 874 897 906 922 q 825 880 851 880 q 803 882 814 880 q 713 894 759 894 q 499 825 595 894 q 378 674 405 756 l 668 674 q 710 656 692 674 q 728 614 728 639 l 728 599 q 711 557 728 574 q 668 538 693 538 l 349 538 z "},"№":{"ha":1552,"x_min":109,"x_max":1522,"o":"m 271 1101 q 726 317 642 477 l 726 1101 l 897 1101 l 897 0 l 734 0 q 280 789 364 625 l 280 0 l 109 0 l 109 1101 l 271 1101 m 967 1 l 967 160 l 1500 160 l 1500 1 l 967 1 m 962 548 q 1050 783 962 695 q 1242 862 1128 862 q 1435 783 1356 862 q 1522 548 1522 695 q 1435 315 1522 401 q 1242 235 1356 235 q 1050 315 1128 235 q 962 548 962 401 m 1126 549 q 1164 437 1126 477 q 1242 402 1196 402 q 1320 437 1288 402 q 1357 549 1357 477 q 1320 661 1357 619 q 1242 695 1288 695 q 1164 661 1196 695 q 1126 549 1126 619 z "},"™":{"ha":894,"x_min":14,"x_max":826,"o":"m 391 1012 l 252 1012 l 252 636 l 153 636 l 153 1012 l 14 1012 l 14 1101 l 510 1101 l 608 820 l 707 1101 l 826 1101 l 826 636 l 730 636 l 730 905 l 645 662 l 572 662 l 486 905 l 486 636 l 391 636 l 391 1012 z "},"∂":{"ha":722,"x_min":83,"x_max":654,"o":"m 523 543 q 328 489 412 536 q 212 319 224 431 q 210 283 210 300 q 244 200 210 219 q 279 192 260 192 q 359 219 313 192 q 488 379 448 272 q 523 543 513 450 m 654 604 q 651 555 652 578 q 606 336 642 431 q 424 111 551 186 q 279 64 347 64 q 183 90 229 64 q 83 283 83 144 q 86 333 83 307 q 251 591 105 502 q 528 671 369 663 l 528 706 q 512 814 528 771 q 449 869 492 869 q 382 832 418 869 q 331 760 350 800 q 295 727 319 736 q 273 723 284 723 q 246 729 260 723 q 214 765 223 740 q 210 787 210 777 q 216 813 210 800 q 273 900 237 857 q 449 995 353 995 q 559 960 511 995 q 654 706 654 888 q 654 611 654 640 l 654 604 z "},"∆":{"ha":901,"x_min":71,"x_max":829,"o":"m 406 927 q 450 956 418 956 q 495 927 482 956 l 825 191 q 829 170 829 180 q 821 144 829 157 q 781 122 807 122 l 121 122 q 79 144 94 122 q 71 171 71 157 q 75 191 71 180 l 406 927 m 661 250 l 450 721 l 239 250 l 661 250 z "},"∏":{"ha":953,"x_min":68,"x_max":885,"o":"m 758 934 l 195 934 l 195 -63 q 176 -107 195 -90 q 131 -126 157 -126 q 87 -107 104 -126 q 68 -63 68 -90 l 68 997 q 87 1042 68 1023 q 131 1061 104 1061 l 821 1061 q 866 1042 848 1061 q 885 997 885 1023 l 885 -63 q 866 -107 885 -90 q 821 -126 848 -126 q 777 -107 795 -126 q 758 -63 758 -90 l 758 934 z "},"∑":{"ha":969,"x_min":75,"x_max":901,"o":"m 269 932 l 591 525 q 607 486 607 505 q 591 446 607 466 l 269 39 l 838 39 q 884 20 865 39 q 901 -25 901 1 q 883 -69 901 -51 q 838 -88 865 -88 l 138 -88 q 81 -52 100 -88 q 75 -24 75 -38 q 90 15 75 -4 l 461 486 l 90 956 q 75 995 75 975 q 81 1023 75 1009 q 138 1059 100 1059 l 838 1059 q 884 1040 865 1059 q 901 996 901 1021 q 883 951 901 970 q 838 932 865 932 l 269 932 z "},"−":{"ha":646,"x_min":34,"x_max":612,"o":"m 612 529 q 587 471 612 494 q 529 447 563 447 l 116 447 q 58 471 81 447 q 34 529 34 494 l 34 530 q 58 589 34 564 q 116 613 81 613 l 529 613 q 587 589 563 613 q 612 530 612 564 l 612 529 z "},"√":{"ha":829,"x_min":72,"x_max":758,"o":"m 633 1089 q 659 1130 637 1114 q 695 1142 675 1142 q 705 1141 700 1142 q 747 1116 732 1137 q 758 1079 758 1099 q 758 1068 758 1074 l 594 54 q 541 1 587 9 q 529 1 535 1 q 475 37 492 1 l 243 510 l 159 475 q 135 470 147 470 q 111 475 123 470 q 77 510 86 485 q 72 534 72 522 q 77 558 72 546 q 111 592 87 582 l 250 650 q 274 654 262 654 q 296 650 286 654 q 332 618 320 642 l 501 271 l 633 1089 z "},"∞":{"ha":865,"x_min":68,"x_max":797,"o":"m 406 636 q 605 750 488 750 q 756 689 709 750 q 797 532 797 637 q 751 376 797 433 q 600 315 699 315 q 404 425 486 315 q 234 348 340 348 q 106 406 150 348 q 68 537 68 455 q 108 663 68 614 q 230 720 151 715 l 237 720 q 406 636 338 720 m 467 529 q 522 462 499 484 q 600 427 559 427 q 656 441 638 427 q 685 532 685 463 q 665 623 685 605 q 605 637 649 637 q 550 623 575 637 q 467 529 516 602 m 347 530 q 235 608 292 608 l 234 608 q 180 537 180 605 q 234 460 180 460 q 347 530 296 460 z "},"∫":{"ha":454,"x_min":5,"x_max":450,"o":"m 363 921 q 312 933 337 931 q 306 937 306 934 q 296 864 301 929 q 290 707 292 804 q 290 447 290 674 q 289 185 290 220 q 283 18 288 83 q 260 -103 276 -73 q 157 -165 231 -160 q 143 -165 150 -165 q 44 -144 96 -165 q 9 -111 20 -134 q 5 -86 5 -98 q 9 -62 5 -74 q 43 -27 19 -37 q 68 -22 56 -22 q 91 -26 79 -22 q 141 -39 117 -37 q 148 -43 148 -39 q 157 31 152 -35 q 163 187 161 91 q 163 447 163 220 q 164 709 163 675 q 170 876 165 812 q 193 998 178 967 q 296 1059 223 1055 q 310 1060 303 1060 q 410 1039 357 1060 q 444 1005 433 1029 q 450 980 450 993 q 444 956 450 968 q 410 922 434 932 q 386 917 398 917 q 363 921 374 917 z "},"≈":{"ha":853,"x_min":69,"x_max":784,"o":"m 91 617 q 297 696 184 696 q 441 664 352 696 q 572 624 553 624 q 680 673 621 624 q 722 688 698 688 l 727 688 q 769 665 753 684 q 784 625 784 647 l 784 619 q 761 576 782 593 q 572 497 667 497 q 399 545 531 497 q 297 570 330 570 q 173 520 231 570 q 133 505 155 505 l 127 505 q 84 528 101 507 q 69 568 69 545 l 69 573 q 91 617 71 599 m 91 433 q 297 512 184 512 q 441 479 352 512 q 572 439 553 439 q 680 488 621 439 q 720 503 698 503 l 726 503 q 769 480 753 501 q 784 439 784 463 l 784 434 q 761 391 781 408 q 572 313 667 313 q 398 361 531 313 q 297 385 330 385 q 173 336 231 385 q 133 321 155 321 l 127 321 q 84 343 101 323 q 69 384 69 360 l 69 389 q 91 433 71 416 z "},"≤":{"ha":788,"x_min":68,"x_max":717,"o":"m 654 283 q 698 264 680 283 q 717 220 717 247 q 698 176 717 193 q 654 157 680 157 l 131 157 q 87 176 104 157 q 68 220 68 193 q 87 264 68 247 q 131 283 104 283 l 654 283 m 678 456 q 712 421 702 446 q 717 397 717 409 q 712 372 717 385 q 677 338 702 349 q 653 334 665 334 q 629 338 641 334 l 106 558 q 68 617 68 575 q 106 675 68 659 l 629 895 q 653 900 641 900 q 677 895 665 900 q 712 861 702 885 q 717 837 717 849 q 712 812 717 825 q 678 778 702 788 l 294 617 l 678 456 z "},"≥":{"ha":788,"x_min":68,"x_max":717,"o":"m 654 283 q 699 264 680 283 q 717 220 717 246 q 699 176 717 194 q 654 157 680 157 l 131 157 q 87 176 104 157 q 68 220 68 193 q 87 264 68 247 q 131 283 104 283 l 654 283 m 490 617 l 107 778 q 73 812 83 788 q 68 837 68 825 q 73 861 68 849 q 108 895 83 885 q 132 901 120 901 q 156 895 144 901 l 678 675 q 717 617 717 659 q 678 558 717 575 l 156 338 q 132 334 144 334 q 108 338 120 334 q 73 372 83 349 q 68 397 68 385 q 73 421 68 409 q 107 456 83 446 l 490 617 z "},"":{"ha":827,"x_min":68,"x_max":745,"o":"m 406 1059 q 464 1036 439 1059 q 488 977 488 1011 l 488 976 q 464 918 488 942 q 406 894 439 894 l 367 894 q 273 855 311 894 q 234 781 235 817 l 406 781 q 464 756 439 781 q 488 699 488 732 l 488 697 q 464 639 488 663 q 406 614 439 614 l 234 614 l 234 82 q 210 24 234 47 q 152 0 185 0 l 150 0 q 92 24 117 0 q 68 82 68 47 l 68 761 q 155 972 69 885 q 367 1059 243 1059 l 406 1059 m 651 781 q 709 757 686 781 q 733 699 733 732 l 733 82 q 709 24 733 47 q 651 0 686 0 l 650 0 q 591 24 616 0 q 567 82 567 47 l 567 699 q 591 757 567 732 q 650 781 616 781 l 651 781 m 650 869 q 583 897 611 869 q 555 964 555 925 q 583 1031 555 1003 q 650 1059 611 1059 q 717 1031 689 1059 q 745 964 745 1004 q 717 897 745 924 q 650 869 689 869 z "},"ﬁ":{"ha":827,"x_min":68,"x_max":745,"o":"m 406 1059 q 464 1036 439 1059 q 488 977 488 1011 l 488 976 q 464 918 488 942 q 406 894 439 894 l 367 894 q 273 855 311 894 q 234 781 235 817 l 406 781 q 464 756 439 781 q 488 699 488 732 l 488 697 q 464 639 488 663 q 406 614 439 614 l 234 614 l 234 82 q 210 24 234 47 q 152 0 185 0 l 150 0 q 92 24 117 0 q 68 82 68 47 l 68 761 q 155 972 69 885 q 367 1059 243 1059 l 406 1059 m 651 781 q 709 757 686 781 q 733 699 733 732 l 733 82 q 709 24 733 47 q 651 0 686 0 l 650 0 q 591 24 616 0 q 567 82 567 47 l 567 699 q 591 757 567 732 q 650 781 616 781 l 651 781 m 650 869 q 583 897 611 869 q 555 964 555 925 q 583 1031 555 1003 q 650 1059 611 1059 q 717 1031 689 1059 q 745 964 745 1004 q 717 897 745 924 q 650 869 689 869 z "},"":{"ha":896,"x_min":68,"x_max":735,"o":"m 406 1059 q 464 1036 439 1059 q 488 977 488 1011 l 488 976 q 464 918 488 942 q 406 894 439 894 l 367 894 q 273 855 311 894 q 234 781 235 817 l 406 781 q 464 756 439 781 q 488 699 488 732 l 488 697 q 464 639 488 663 q 406 614 439 614 l 234 614 l 234 82 q 210 24 234 47 q 152 0 185 0 l 150 0 q 92 24 117 0 q 68 82 68 47 l 68 761 q 155 972 69 885 q 367 1059 243 1059 l 406 1059 m 653 1059 q 711 1036 686 1059 q 735 977 735 1011 l 735 82 q 711 24 735 47 q 653 0 686 0 l 651 0 q 593 24 618 0 q 569 82 569 47 l 569 977 q 593 1036 569 1011 q 651 1059 618 1059 l 653 1059 z "},"ﬂ":{"ha":896,"x_min":68,"x_max":735,"o":"m 406 1059 q 464 1036 439 1059 q 488 977 488 1011 l 488 976 q 464 918 488 942 q 406 894 439 894 l 367 894 q 273 855 311 894 q 234 781 235 817 l 406 781 q 464 756 439 781 q 488 699 488 732 l 488 697 q 464 639 488 663 q 406 614 439 614 l 234 614 l 234 82 q 210 24 234 47 q 152 0 185 0 l 150 0 q 92 24 117 0 q 68 82 68 47 l 68 761 q 155 972 69 885 q 367 1059 243 1059 l 406 1059 m 653 1059 q 711 1036 686 1059 q 735 977 735 1011 l 735 82 q 711 24 735 47 q 653 0 686 0 l 651 0 q 593 24 618 0 q 569 82 569 47 l 569 977 q 593 1036 569 1011 q 651 1059 618 1059 l 653 1059 z "},"⁰":{"ha":578,"x_min":27,"x_max":551,"o":"m 289 1060 q 473 990 397 1060 q 551 820 551 918 l 551 621 q 473 450 551 522 q 289 380 397 380 q 105 450 180 380 q 27 621 27 522 l 27 820 q 105 990 27 918 q 289 1060 180 1060 m 289 915 q 215 886 246 915 q 184 817 184 858 l 184 624 q 215 554 184 583 q 289 526 246 526 q 363 555 331 526 q 393 624 393 583 l 393 817 q 363 885 393 858 q 289 915 331 915 z "},"¹":{"ha":337,"x_min":27,"x_max":310,"o":"m 310 451 q 286 400 310 422 q 232 380 264 380 l 231 380 q 177 400 198 380 q 153 451 153 422 l 153 917 l 105 917 q 50 937 74 917 q 27 987 27 958 l 27 988 q 50 1038 27 1017 q 105 1059 74 1059 l 232 1059 q 288 1038 264 1059 q 310 988 310 1017 l 310 451 z "},"²":{"ha":555,"x_min":27,"x_max":528,"o":"m 304 1059 q 458 1002 396 1059 q 524 859 524 941 q 461 726 524 785 q 338 642 425 692 q 229 571 257 596 q 188 524 188 533 l 450 524 q 506 502 483 524 q 528 452 528 481 l 528 451 q 505 401 528 421 q 450 380 483 380 l 105 380 q 50 401 73 380 q 27 451 27 421 l 27 490 q 89 639 27 572 q 214 732 130 683 q 327 802 311 790 q 366 859 366 832 q 348 900 366 883 q 304 917 330 917 l 127 917 q 72 937 95 917 q 49 987 49 958 l 49 988 q 72 1038 49 1017 q 127 1059 94 1059 l 304 1059 z "},"³":{"ha":485,"x_min":27,"x_max":458,"o":"m 229 1059 q 384 1000 319 1059 q 448 859 448 941 q 404 732 448 765 q 458 591 458 694 q 389 441 458 504 q 229 380 324 380 l 105 380 q 50 401 73 380 q 27 451 27 421 l 27 452 q 51 503 27 481 q 105 524 73 524 l 229 524 q 279 543 258 524 q 300 591 300 562 q 279 639 300 619 q 229 658 258 658 l 125 658 q 70 678 92 658 q 47 729 47 700 l 47 730 q 68 779 47 758 q 125 800 92 800 l 229 801 q 272 817 254 801 q 290 859 290 834 q 271 900 290 883 q 229 917 254 917 l 105 917 q 50 937 74 917 q 27 987 27 958 l 27 988 q 50 1038 27 1017 q 105 1059 74 1059 l 229 1059 z "},"⁴":{"ha":615,"x_min":27,"x_max":588,"o":"m 271 1022 q 340 1059 293 1059 l 406 1059 q 461 1038 437 1059 q 484 988 484 1017 l 484 642 l 510 642 q 566 620 543 642 q 588 570 588 599 l 588 569 q 564 518 588 541 q 510 498 542 498 l 484 498 l 484 451 q 461 401 484 421 q 406 380 437 380 l 405 380 q 349 401 373 380 q 326 451 326 421 l 326 498 l 105 498 q 50 519 73 498 q 27 569 27 539 l 27 597 q 36 631 27 616 l 271 1022 m 326 642 l 326 816 l 222 642 l 326 642 z "},"⁵":{"ha":538,"x_min":27,"x_max":511,"o":"m 105 658 q 50 679 73 658 q 27 729 27 700 l 27 988 q 50 1038 27 1017 q 105 1059 74 1059 l 374 1059 q 429 1038 406 1059 q 452 988 452 1017 l 452 987 q 429 937 452 958 q 374 917 406 917 l 184 917 l 184 800 l 281 800 q 444 739 376 800 q 511 591 511 677 q 442 441 511 504 q 281 380 376 380 l 105 380 q 50 401 73 380 q 27 451 27 421 l 27 452 q 51 503 27 481 q 105 524 73 524 l 281 524 q 332 543 311 524 q 353 591 353 562 q 332 639 353 619 q 281 658 311 658 l 105 658 z "},"⁶":{"ha":570,"x_min":27,"x_max":543,"o":"m 184 658 l 184 591 q 205 543 184 562 q 256 524 227 524 l 314 524 q 364 543 343 524 q 385 591 385 562 q 364 639 385 619 q 314 658 343 658 l 184 658 m 256 380 q 96 441 161 380 q 27 591 27 504 l 27 849 q 94 997 27 936 q 256 1059 161 1059 l 391 1059 q 446 1038 422 1059 q 469 988 469 1017 l 469 987 q 446 937 469 958 q 391 917 422 917 l 256 917 q 204 896 227 917 q 184 849 184 878 l 184 800 l 314 800 q 476 739 409 800 q 543 591 543 677 q 475 441 543 504 q 314 380 409 380 l 256 380 z "},"⁷":{"ha":509,"x_min":27,"x_max":482,"o":"m 482 451 q 458 400 482 422 q 404 380 436 380 l 404 380 q 348 401 370 380 q 325 451 325 421 l 325 917 l 105 917 q 50 937 74 917 q 27 987 27 958 l 27 988 q 50 1038 27 1017 q 105 1059 74 1059 l 404 1059 q 460 1038 436 1059 q 482 988 482 1017 l 482 451 z "},"⁸":{"ha":578,"x_min":27,"x_max":551,"o":"m 322 1059 q 477 1000 413 1059 q 541 859 541 941 q 498 732 541 765 q 551 591 551 694 q 484 442 551 504 q 322 380 418 380 l 256 380 q 96 441 161 380 q 27 591 27 504 q 81 732 27 694 q 37 859 37 765 q 102 1002 37 941 q 256 1059 165 1059 l 322 1059 m 322 524 q 374 544 351 524 q 393 591 393 562 q 372 639 393 618 q 322 658 351 658 l 256 658 q 204 637 227 658 q 184 591 184 618 q 205 543 184 562 q 256 524 227 524 l 322 524 m 322 801 q 366 817 347 801 q 383 859 383 834 q 365 900 383 883 q 322 917 347 917 l 256 917 q 213 900 231 917 q 195 859 195 883 q 213 817 195 834 q 256 801 231 801 l 322 801 z "},"⁹":{"ha":570,"x_min":27,"x_max":543,"o":"m 385 782 l 385 849 q 365 896 385 878 q 314 917 343 917 l 256 917 q 204 896 227 917 q 184 849 184 878 q 204 802 184 821 q 256 782 227 782 l 385 782 m 314 1059 q 476 997 409 1059 q 543 849 543 936 l 543 591 q 475 441 543 504 q 314 380 409 380 l 141 380 q 86 400 108 380 q 63 451 63 422 l 63 452 q 85 502 63 481 q 141 524 108 524 l 314 524 q 364 543 343 524 q 385 591 385 562 l 385 639 l 256 639 q 96 700 161 639 q 27 849 27 763 q 94 997 27 936 q 256 1059 161 1059 l 314 1059 z "},"⁺":{"ha":568,"x_min":27,"x_max":541,"o":"m 363 723 l 462 723 q 517 703 495 723 q 541 651 541 680 l 541 650 q 517 601 541 621 q 462 580 495 580 l 363 580 l 363 487 q 338 435 363 458 q 284 416 317 416 l 283 416 q 227 437 250 416 q 205 487 205 458 l 205 580 l 105 580 q 50 601 72 580 q 27 650 27 621 l 27 651 q 50 701 27 680 q 105 723 72 723 l 205 723 l 205 816 q 227 865 205 845 q 283 887 250 887 l 284 887 q 340 866 317 887 q 363 816 363 845 l 363 723 z "},"⁻":{"ha":479,"x_min":27,"x_max":452,"o":"m 452 541 q 429 491 452 512 q 374 470 407 470 l 105 470 q 50 492 72 470 q 27 541 27 511 l 27 542 q 50 591 27 572 q 105 613 72 613 l 374 613 q 428 593 407 613 q 452 542 452 572 l 452 541 z "},"⁼":{"ha":568,"x_min":27,"x_max":541,"o":"m 541 473 q 517 422 541 444 q 462 401 495 401 l 105 401 q 50 423 72 401 q 27 473 27 443 l 27 473 q 50 523 27 503 q 105 545 72 545 l 462 545 q 516 524 495 545 q 541 473 541 503 l 541 473 m 541 718 q 517 667 541 688 q 462 646 495 646 l 105 646 q 50 668 72 646 q 27 718 27 688 l 27 718 q 50 768 27 748 q 105 789 72 789 l 462 789 q 516 769 495 789 q 541 718 541 748 l 541 718 z "},"ⁱ":{"ha":227,"x_min":27,"x_max":200,"o":"m 114 831 q 170 810 147 831 q 192 760 192 789 l 192 390 q 170 340 192 361 q 114 319 147 319 l 113 319 q 58 340 80 319 q 35 390 35 360 l 35 760 q 58 811 35 789 q 113 831 80 831 l 114 831 m 114 902 q 54 924 78 902 q 27 981 27 948 q 54 1036 27 1013 q 114 1059 77 1059 q 174 1036 150 1059 q 200 981 200 1013 q 174 925 200 948 q 114 902 150 902 z "},"⁽":{"ha":356,"x_min":27,"x_max":329,"o":"m 233 217 q 85 301 144 235 q 27 453 27 368 l 27 823 q 85 975 27 907 q 233 1059 144 1040 q 253 1061 243 1061 q 300 1045 279 1061 q 329 989 329 1024 l 329 986 q 311 940 329 962 q 268 917 295 922 q 206 882 231 909 q 180 820 180 854 l 180 456 q 206 393 180 421 q 268 359 231 366 q 311 336 295 353 q 329 290 329 315 l 329 286 q 300 231 329 252 q 253 215 279 215 q 233 217 243 215 z "},"⁾":{"ha":356,"x_min":27,"x_max":329,"o":"m 123 217 q 103 215 113 215 q 56 231 78 215 q 27 286 27 252 l 27 290 q 45 336 27 315 q 88 359 61 353 q 151 393 125 366 q 176 456 176 421 l 176 820 q 151 882 176 854 q 88 917 125 909 q 45 940 61 922 q 27 986 27 962 l 27 989 q 56 1045 27 1024 q 103 1061 78 1061 q 123 1059 113 1061 q 271 975 212 1040 q 329 823 329 907 l 329 453 q 271 301 329 368 q 123 217 212 235 z "},"ⁿ":{"ha":530,"x_min":27,"x_max":503,"o":"m 184 618 q 161 568 184 588 q 106 547 139 547 l 105 547 q 50 568 73 547 q 27 618 27 588 l 27 841 q 98 996 27 930 q 265 1059 166 1059 q 432 996 364 1059 q 503 841 503 930 l 503 618 q 480 568 503 588 q 425 547 458 547 l 424 547 q 368 568 392 547 q 345 618 345 588 l 345 841 q 322 895 345 872 q 265 916 298 916 q 208 895 232 916 q 184 841 184 872 l 184 618 z "},"₀":{"ha":578,"x_min":27,"x_max":551,"o":"m 289 360 q 473 290 397 360 q 551 120 551 218 l 551 -79 q 473 -250 551 -178 q 289 -319 397 -319 q 105 -250 180 -319 q 27 -79 27 -178 l 27 120 q 105 290 27 218 q 289 360 180 360 m 289 215 q 215 186 246 215 q 184 117 184 158 l 184 -76 q 215 -146 184 -117 q 289 -174 246 -174 q 363 -144 331 -174 q 393 -76 393 -117 l 393 117 q 363 185 393 158 q 289 215 331 215 z "},"₁":{"ha":337,"x_min":27,"x_max":310,"o":"m 310 -248 q 286 -299 310 -277 q 232 -319 264 -319 l 231 -319 q 177 -299 198 -319 q 153 -248 153 -278 l 153 217 l 105 217 q 50 238 74 217 q 27 288 27 259 l 27 289 q 50 339 27 318 q 105 360 74 360 l 232 360 q 288 339 264 360 q 310 289 310 318 l 310 -248 z "},"₂":{"ha":555,"x_min":27,"x_max":528,"o":"m 304 360 q 458 302 396 360 q 524 159 524 242 q 461 26 524 85 q 338 -57 425 -7 q 229 -129 257 -104 q 188 -176 188 -166 l 450 -176 q 505 -197 483 -176 q 528 -248 528 -218 l 528 -248 q 505 -298 528 -278 q 450 -319 483 -319 l 105 -319 q 50 -298 73 -319 q 27 -248 27 -278 l 27 -210 q 89 -61 27 -127 q 214 33 130 -16 q 327 102 311 91 q 366 159 366 133 q 348 200 366 183 q 304 217 330 217 l 127 217 q 72 238 94 217 q 49 288 49 259 l 49 289 q 72 339 49 318 q 127 360 94 360 l 304 360 z "},"₃":{"ha":485,"x_min":27,"x_max":458,"o":"m 229 360 q 384 300 319 360 q 448 159 448 242 q 404 32 448 65 q 458 -109 458 -5 q 389 -258 458 -195 q 229 -319 324 -319 l 105 -319 q 50 -298 73 -319 q 27 -248 27 -278 l 27 -248 q 52 -196 27 -218 q 105 -176 73 -176 l 229 -176 q 279 -157 258 -176 q 300 -109 300 -138 q 279 -61 300 -81 q 229 -41 258 -41 l 125 -41 q 71 -22 92 -41 q 47 29 47 0 l 47 30 q 68 80 47 59 q 125 101 92 101 l 229 102 q 272 117 254 102 q 290 159 290 134 q 271 200 290 183 q 229 217 254 217 l 105 217 q 50 238 74 217 q 27 288 27 259 l 27 289 q 50 339 27 318 q 105 360 74 360 l 229 360 z "},"₄":{"ha":615,"x_min":27,"x_max":588,"o":"m 271 322 q 340 360 293 360 l 406 360 q 461 339 437 360 q 484 289 484 318 l 484 -58 l 510 -58 q 566 -79 542 -58 q 588 -130 588 -100 l 588 -130 q 564 -181 588 -159 q 510 -201 543 -201 l 484 -201 l 484 -248 q 461 -298 484 -278 q 406 -319 438 -319 l 405 -319 q 349 -298 372 -319 q 326 -248 326 -278 l 326 -201 l 105 -201 q 50 -180 73 -201 q 27 -130 27 -160 l 27 -102 q 36 -68 27 -84 l 271 322 m 326 -58 l 326 117 l 222 -58 l 326 -58 z "},"₅":{"ha":538,"x_min":27,"x_max":511,"o":"m 105 -41 q 50 -20 73 -41 q 27 29 27 -1 l 27 289 q 50 339 27 318 q 105 360 74 360 l 374 360 q 429 339 406 360 q 452 289 452 318 l 452 288 q 429 238 452 259 q 374 217 406 217 l 184 217 l 184 101 l 281 101 q 444 39 376 101 q 511 -109 511 -22 q 442 -258 511 -195 q 281 -319 376 -319 l 105 -319 q 50 -298 73 -319 q 27 -248 27 -278 l 27 -248 q 52 -196 27 -218 q 105 -176 73 -176 l 281 -176 q 332 -157 311 -176 q 353 -109 353 -138 q 331 -61 353 -81 q 281 -41 311 -41 l 105 -41 z "},"₆":{"ha":570,"x_min":27,"x_max":543,"o":"m 184 -41 l 184 -109 q 205 -157 184 -138 q 256 -176 227 -176 l 314 -176 q 364 -157 343 -176 q 385 -109 385 -138 q 363 -61 385 -81 q 314 -41 343 -41 l 184 -41 m 256 -319 q 96 -258 161 -319 q 27 -109 27 -195 l 27 150 q 94 298 27 237 q 256 360 161 360 l 391 360 q 446 339 422 360 q 469 289 469 318 l 469 288 q 446 238 469 259 q 391 217 422 217 l 256 217 q 204 197 227 217 q 184 150 184 178 l 184 101 l 314 101 q 476 39 409 101 q 543 -109 543 -22 q 475 -258 543 -195 q 314 -319 409 -319 l 256 -319 z "},"₇":{"ha":509,"x_min":27,"x_max":482,"o":"m 482 -248 q 458 -299 482 -277 q 404 -319 437 -319 l 404 -319 q 348 -298 370 -319 q 325 -248 325 -278 l 325 217 l 105 217 q 50 238 74 217 q 27 288 27 259 l 27 289 q 50 339 27 318 q 105 360 74 360 l 404 360 q 460 339 436 360 q 482 289 482 318 l 482 -248 z "},"₈":{"ha":578,"x_min":27,"x_max":551,"o":"m 322 360 q 477 300 413 360 q 541 159 541 242 q 498 32 541 65 q 551 -109 551 -6 q 484 -257 551 -195 q 322 -319 418 -319 l 256 -319 q 96 -258 161 -319 q 27 -109 27 -195 q 81 32 27 -5 q 37 159 37 65 q 102 302 37 242 q 256 360 165 360 l 322 360 m 322 -176 q 374 -156 351 -176 q 393 -109 393 -138 q 372 -61 393 -81 q 322 -41 351 -41 l 256 -41 q 204 -62 227 -41 q 184 -109 184 -81 q 205 -157 184 -138 q 256 -176 227 -176 l 322 -176 m 322 102 q 366 117 348 102 q 383 159 383 134 q 365 200 383 183 q 322 217 347 217 l 256 217 q 213 200 231 217 q 195 159 195 183 q 213 117 195 134 q 256 102 231 102 l 322 102 z "},"₉":{"ha":570,"x_min":27,"x_max":543,"o":"m 385 82 l 385 150 q 366 197 385 178 q 314 217 343 217 l 256 217 q 204 197 227 217 q 184 150 184 178 q 204 103 184 121 q 256 82 227 82 l 385 82 m 314 360 q 476 298 409 360 q 543 150 543 237 l 543 -109 q 475 -258 543 -195 q 314 -319 409 -319 l 141 -319 q 86 -299 108 -319 q 63 -248 63 -277 l 63 -248 q 85 -197 63 -218 q 141 -176 108 -176 l 314 -176 q 364 -157 343 -176 q 385 -109 385 -138 l 385 -60 l 256 -60 q 96 1 161 -60 q 27 150 27 63 q 94 298 27 237 q 256 360 161 360 l 314 360 z "},"₊":{"ha":568,"x_min":27,"x_max":541,"o":"m 363 92 l 462 92 q 516 72 495 92 q 541 20 541 50 l 541 20 q 517 -30 541 -10 q 462 -52 495 -52 l 363 -52 l 363 -144 q 339 -195 363 -173 q 284 -216 317 -216 l 283 -216 q 227 -194 250 -216 q 205 -144 205 -173 l 205 -52 l 105 -52 q 50 -30 72 -52 q 27 20 27 -10 l 27 20 q 50 71 27 50 q 105 92 72 92 l 205 92 l 205 185 q 227 235 205 214 q 283 256 250 256 l 284 256 q 340 235 317 256 q 363 185 363 215 l 363 92 z "},"₋":{"ha":479,"x_min":27,"x_max":452,"o":"m 452 20 q 429 -30 452 -10 q 374 -51 407 -51 l 105 -51 q 50 -30 72 -51 q 27 20 27 -10 l 27 20 q 50 71 27 50 q 105 92 72 92 l 374 92 q 429 72 407 92 q 452 20 452 50 l 452 20 z "},"₌":{"ha":568,"x_min":27,"x_max":541,"o":"m 541 -68 q 517 -119 541 -98 q 462 -140 495 -140 l 105 -140 q 50 -118 72 -140 q 27 -68 27 -98 l 27 -68 q 50 -18 27 -38 q 105 3 72 3 l 462 3 q 516 -17 495 3 q 541 -68 541 -38 l 541 -68 m 541 109 q 517 58 541 79 q 462 37 495 37 l 105 37 q 50 59 72 37 q 27 109 27 79 l 27 109 q 50 159 27 139 q 105 180 72 180 l 462 180 q 516 160 495 180 q 541 109 541 139 l 541 109 z "},"₍":{"ha":356,"x_min":27,"x_max":329,"o":"m 233 -278 q 86 -194 144 -260 q 27 -42 27 -127 l 27 328 q 85 479 27 412 q 233 564 144 545 q 253 566 243 566 q 300 549 278 566 q 329 494 329 528 l 329 491 q 311 445 329 466 q 268 422 295 427 q 206 387 231 414 q 180 325 180 359 l 180 -40 q 206 -102 180 -74 q 268 -136 231 -129 q 311 -159 295 -142 q 329 -205 329 -181 l 329 -210 q 300 -264 329 -243 q 253 -280 279 -280 q 233 -278 243 -280 z "},"₎":{"ha":356,"x_min":27,"x_max":329,"o":"m 123 -278 q 103 -280 113 -280 q 56 -264 78 -280 q 27 -210 27 -243 l 27 -205 q 45 -159 27 -181 q 88 -136 61 -142 q 151 -102 125 -129 q 176 -39 176 -74 l 176 325 q 151 387 176 359 q 88 422 125 414 q 45 445 61 427 q 27 491 27 466 l 27 494 q 56 549 27 528 q 104 566 78 566 q 123 564 113 566 q 271 479 212 545 q 329 328 329 412 l 329 -42 q 270 -194 329 -127 q 123 -278 212 -260 z "},"⃝":{"ha":1398,"x_min":68,"x_max":1330,"o":"m 699 1059 q 1145 874 960 1059 q 1330 428 1330 690 q 1145 -18 1330 167 q 699 -203 960 -203 q 253 -18 437 -203 q 68 428 68 167 q 253 874 68 690 q 699 1059 437 1059 m 699 958 q 325 803 479 958 q 170 428 170 648 q 325 54 170 209 q 699 -101 479 -101 q 1073 54 918 -101 q 1228 428 1228 209 q 1073 803 1228 648 q 699 958 918 958 z "},"Ⓐ":{"ha":1357,"x_min":47,"x_max":1310,"o":"m 953 77 q 932 25 953 47 q 873 0 908 0 l 871 0 q 812 25 836 0 q 791 77 791 47 l 791 300 l 551 300 l 551 77 q 530 25 551 47 q 471 0 506 0 l 469 0 q 411 25 435 0 q 389 77 389 47 l 389 566 q 469 766 389 682 q 671 852 553 852 q 873 766 790 852 q 953 566 953 682 l 953 77 m 791 454 l 791 566 q 753 661 791 622 q 671 697 719 697 q 589 661 623 697 q 551 566 551 622 l 551 454 l 791 454 m 679 1055 q 1125 870 940 1055 q 1310 424 1310 686 q 1125 -22 1310 163 q 679 -207 940 -207 q 232 -22 417 -207 q 47 424 47 163 q 232 870 47 686 q 679 1055 417 1055 m 679 954 q 304 799 459 954 q 149 424 149 644 q 304 50 149 205 q 679 -105 459 -105 q 1053 50 898 -105 q 1208 424 1208 205 q 1053 799 1208 644 q 679 954 898 954 z "},"Ⓑ":{"ha":1357,"x_min":47,"x_max":1310,"o":"m 679 1055 q 1125 870 940 1055 q 1310 424 1310 686 q 1125 -22 1310 163 q 679 -207 940 -207 q 232 -22 417 -207 q 47 424 47 163 q 232 870 47 686 q 679 1055 417 1055 m 679 954 q 304 799 459 954 q 149 424 149 644 q 304 50 149 205 q 679 -105 459 -105 q 1053 50 898 -105 q 1208 424 1208 205 q 1053 799 1208 644 q 679 954 898 954 m 593 697 q 592 690 592 694 l 592 515 l 713 515 q 768 539 745 515 q 794 606 794 566 q 768 672 794 646 q 713 697 745 697 l 593 697 m 713 155 q 776 182 749 155 q 806 258 806 213 q 776 333 806 302 q 713 361 749 361 l 592 361 l 592 162 q 594 155 592 157 l 713 155 m 430 690 q 475 802 430 755 q 592 852 523 852 l 713 852 q 886 779 817 852 q 956 606 956 706 q 895 440 956 493 q 968 258 968 383 q 894 76 968 153 q 713 0 821 0 l 592 0 q 477 47 523 0 q 430 162 430 97 l 430 690 z "},"Ⓒ":{"ha":1357,"x_min":47,"x_max":1310,"o":"m 710 845 q 816 831 764 845 q 874 758 874 815 l 874 756 q 846 698 874 721 q 795 679 823 679 q 772 682 784 679 q 710 690 742 690 q 532 611 608 690 q 456 419 456 534 q 533 224 456 304 q 710 148 608 148 q 772 156 742 148 q 795 159 784 159 q 846 140 823 159 q 874 82 874 117 l 874 81 q 816 7 874 22 q 710 -7 764 -7 q 416 118 536 -7 q 294 419 294 245 q 416 720 294 593 q 710 845 536 845 m 679 1055 q 1125 870 940 1055 q 1310 424 1310 686 q 1125 -22 1310 163 q 679 -207 940 -207 q 232 -22 417 -207 q 47 424 47 163 q 232 870 47 686 q 679 1055 417 1055 m 679 954 q 304 799 459 954 q 149 424 149 644 q 304 50 149 205 q 679 -105 459 -105 q 1053 50 898 -105 q 1208 424 1208 205 q 1053 799 1208 644 q 679 954 898 954 z "},"Ⓓ":{"ha":1357,"x_min":47,"x_max":1310,"o":"m 679 1055 q 1125 870 940 1055 q 1310 424 1310 686 q 1125 -22 1310 163 q 679 -207 940 -207 q 232 -22 417 -207 q 47 424 47 163 q 232 870 47 686 q 679 1055 417 1055 m 679 954 q 304 799 459 954 q 149 424 149 644 q 304 50 149 205 q 679 -105 459 -105 q 1053 50 898 -105 q 1208 424 1208 205 q 1053 799 1208 644 q 679 954 898 954 m 580 697 q 578 690 578 694 l 578 162 q 581 155 578 157 l 655 155 q 833 231 759 155 q 910 426 910 311 q 835 618 910 541 q 655 697 759 697 l 580 697 m 655 852 q 950 726 829 852 q 1072 426 1072 600 q 950 125 1072 252 q 655 0 829 0 l 578 0 q 463 47 509 0 q 416 162 416 97 l 416 690 q 461 802 416 755 q 578 852 509 852 l 655 852 z "},"Ⓔ":{"ha":1357,"x_min":47,"x_max":1310,"o":"m 585 503 l 809 503 q 867 479 843 503 q 889 427 889 456 l 889 425 q 867 373 889 395 q 809 349 843 349 l 585 349 l 585 205 q 598 170 585 182 q 627 155 612 155 l 809 155 q 866 132 844 155 q 889 78 889 108 l 889 77 q 868 25 889 47 q 809 0 844 0 l 627 0 q 482 60 541 0 q 423 205 423 122 l 423 646 q 482 791 423 729 q 627 852 541 852 l 809 852 q 868 827 844 852 q 889 775 889 805 l 889 774 q 866 720 889 744 q 809 696 844 696 l 627 696 q 598 682 612 696 q 585 646 585 669 l 585 503 m 679 1055 q 1125 870 940 1055 q 1310 424 1310 686 q 1125 -22 1310 163 q 679 -207 940 -207 q 232 -22 417 -207 q 47 424 47 163 q 232 870 47 686 q 679 1055 417 1055 m 679 954 q 304 799 459 954 q 149 424 149 644 q 304 50 149 205 q 679 -105 459 -105 q 1053 50 898 -105 q 1208 424 1208 205 q 1053 799 1208 644 q 679 954 898 954 z "},"Ⓕ":{"ha":1357,"x_min":47,"x_max":1310,"o":"m 626 503 l 819 503 q 878 479 853 503 q 899 427 899 456 l 899 425 q 878 374 899 395 q 819 349 854 349 l 626 349 l 626 77 q 604 25 626 47 q 546 0 581 0 l 544 0 q 486 25 509 0 q 464 77 464 47 l 464 646 q 523 791 464 729 q 668 852 581 852 l 825 852 q 883 827 859 852 q 905 775 905 805 l 905 774 q 883 722 905 744 q 825 697 859 697 l 668 697 q 639 682 653 697 q 626 646 626 669 l 626 503 m 679 1055 q 1125 870 940 1055 q 1310 424 1310 686 q 1125 -22 1310 163 q 679 -207 940 -207 q 232 -22 417 -207 q 47 424 47 163 q 232 870 47 686 q 679 1055 417 1055 m 679 954 q 304 799 459 954 q 149 424 149 644 q 304 50 149 205 q 679 -105 459 -105 q 1053 50 898 -105 q 1208 424 1208 205 q 1053 799 1208 644 q 679 954 898 954 z "},"Ⓖ":{"ha":1357,"x_min":47,"x_max":1310,"o":"m 683 845 q 992 705 867 845 q 1010 655 1010 683 l 1010 648 q 979 594 1006 615 l 978 593 q 932 578 957 578 q 921 578 926 578 q 868 605 890 581 q 683 690 793 690 q 505 611 581 690 q 429 419 429 534 q 506 224 429 304 q 683 148 581 148 q 846 211 776 148 q 929 342 918 275 l 696 342 q 638 365 661 342 q 616 418 616 389 l 616 420 q 636 472 616 450 q 696 496 661 496 l 1019 496 q 1078 472 1053 496 q 1099 420 1099 450 l 1099 419 q 980 120 1099 245 q 683 -7 857 -7 q 389 118 509 -7 q 267 419 267 245 q 389 720 267 593 q 683 845 509 845 m 679 1055 q 1125 870 940 1055 q 1310 424 1310 686 q 1125 -22 1310 163 q 679 -207 940 -207 q 232 -22 417 -207 q 47 424 47 163 q 232 870 47 686 q 679 1055 417 1055 m 679 954 q 304 799 459 954 q 149 424 149 644 q 304 50 149 205 q 679 -105 459 -105 q 1053 50 898 -105 q 1208 424 1208 205 q 1053 799 1208 644 q 679 954 898 954 z "},"Ⓗ":{"ha":1357,"x_min":47,"x_max":1310,"o":"m 465 852 q 523 827 498 852 q 545 775 545 805 l 545 503 l 789 503 l 789 775 q 810 827 789 805 q 869 852 835 852 l 871 852 q 929 827 905 852 q 951 775 951 805 l 951 77 q 929 25 951 47 q 871 0 905 0 l 869 0 q 810 25 834 0 q 789 77 789 47 l 789 349 l 545 349 l 545 77 q 523 25 545 47 q 465 0 499 0 l 463 0 q 404 25 428 0 q 382 77 382 47 l 382 775 q 404 827 382 805 q 463 852 429 852 l 465 852 m 679 1055 q 1125 870 940 1055 q 1310 424 1310 686 q 1125 -22 1310 163 q 679 -207 940 -207 q 232 -22 417 -207 q 47 424 47 163 q 232 870 47 686 q 679 1055 417 1055 m 679 954 q 304 799 459 954 q 149 424 149 644 q 304 50 149 205 q 679 -105 459 -105 q 1053 50 898 -105 q 1208 424 1208 205 q 1053 799 1208 644 q 679 954 898 954 z "},"Ⓘ":{"ha":1357,"x_min":47,"x_max":1310,"o":"m 677 852 q 736 827 711 852 q 758 775 758 805 l 758 77 q 736 25 758 47 q 677 0 712 0 l 675 0 q 617 25 641 0 q 595 77 595 47 l 595 775 q 617 827 595 805 q 675 852 642 852 l 677 852 m 679 1055 q 1125 870 940 1055 q 1310 424 1310 686 q 1125 -22 1310 163 q 679 -207 940 -207 q 232 -22 417 -207 q 47 424 47 163 q 232 870 47 686 q 679 1055 417 1055 m 679 954 q 304 799 459 954 q 149 424 149 644 q 304 50 149 205 q 679 -105 459 -105 q 1053 50 898 -105 q 1208 424 1208 205 q 1053 799 1208 644 q 679 954 898 954 z "},"Ⓙ":{"ha":1357,"x_min":47,"x_max":1310,"o":"m 689 775 q 710 827 689 805 q 770 852 734 852 l 770 852 q 830 827 805 852 q 850 775 850 805 l 850 205 q 791 60 850 122 q 646 0 733 0 l 552 0 q 494 25 517 0 q 472 77 472 47 l 472 78 q 496 132 472 108 q 552 155 518 155 l 646 155 q 676 170 662 155 q 689 205 689 182 l 689 775 m 679 1055 q 1125 870 940 1055 q 1310 424 1310 686 q 1125 -22 1310 163 q 679 -207 940 -207 q 232 -22 417 -207 q 47 424 47 163 q 232 870 47 686 q 679 1055 417 1055 m 679 954 q 304 799 459 954 q 149 424 149 644 q 304 50 149 205 q 679 -105 459 -105 q 1053 50 898 -105 q 1208 424 1208 205 q 1053 799 1208 644 q 679 954 898 954 z "},"Ⓚ":{"ha":1357,"x_min":47,"x_max":1310,"o":"m 505 852 q 563 827 538 852 q 585 775 585 805 l 585 530 l 618 530 q 722 574 678 530 q 768 691 768 622 l 768 775 q 791 829 768 805 q 848 852 813 852 l 850 852 q 909 827 884 852 q 930 775 930 805 l 930 691 q 837 462 930 533 q 912 368 873 439 q 952 212 952 296 l 952 77 q 930 23 952 47 q 872 0 907 0 l 871 0 q 813 23 836 0 q 791 77 791 47 l 791 212 q 745 326 790 281 q 641 374 700 374 l 585 374 l 585 77 q 563 25 585 47 q 505 0 539 0 l 503 0 q 444 25 468 0 q 422 77 422 47 l 422 775 q 444 827 422 805 q 503 852 469 852 l 505 852 m 679 1055 q 1125 870 940 1055 q 1310 424 1310 686 q 1125 -22 1310 163 q 679 -207 940 -207 q 232 -22 417 -207 q 47 424 47 163 q 232 870 47 686 q 679 1055 417 1055 m 679 954 q 304 799 459 954 q 149 424 149 644 q 304 50 149 205 q 679 -105 459 -105 q 1053 50 898 -105 q 1208 424 1208 205 q 1053 799 1208 644 q 679 954 898 954 z "},"Ⓛ":{"ha":1357,"x_min":47,"x_max":1310,"o":"m 638 205 q 651 170 638 182 q 680 155 665 155 l 829 155 q 886 132 863 155 q 909 78 909 108 l 909 77 q 887 25 909 46 q 829 0 864 0 l 680 0 q 535 60 593 0 q 476 205 476 122 l 476 775 q 498 827 476 805 q 556 852 522 852 l 558 852 q 616 827 592 852 q 638 775 638 805 l 638 205 m 679 1055 q 1125 870 940 1055 q 1310 424 1310 686 q 1125 -22 1310 163 q 679 -207 940 -207 q 232 -22 417 -207 q 47 424 47 163 q 232 870 47 686 q 679 1055 417 1055 m 679 954 q 304 799 459 954 q 149 424 149 644 q 304 50 149 205 q 679 -105 459 -105 q 1053 50 898 -105 q 1208 424 1208 205 q 1053 799 1208 644 q 679 954 898 954 z "},"Ⓜ":{"ha":1357,"x_min":47,"x_max":1310,"o":"m 430 104 q 411 52 430 74 q 359 27 390 27 l 357 27 q 307 52 328 27 q 288 104 288 74 l 288 612 q 355 800 288 720 q 518 879 421 879 q 678 810 634 879 q 838 879 722 879 q 1002 800 935 879 q 1069 612 1069 720 l 1069 104 q 1049 50 1069 74 q 999 27 1029 27 l 998 27 q 946 52 966 27 q 927 104 927 74 l 927 612 q 901 692 927 661 q 838 724 873 724 q 776 692 803 724 q 749 612 749 661 l 749 104 q 730 52 749 73 q 679 27 711 27 l 678 27 q 626 52 646 27 q 608 104 608 74 l 608 612 q 581 692 608 661 q 518 724 553 724 q 456 692 484 724 q 430 612 430 661 l 430 104 m 679 1055 q 1125 870 940 1055 q 1310 424 1310 686 q 1125 -22 1310 163 q 679 -207 940 -207 q 232 -22 417 -207 q 47 424 47 163 q 232 870 47 686 q 679 1055 417 1055 m 679 954 q 304 799 459 954 q 149 424 149 644 q 304 50 149 205 q 679 -105 459 -105 q 1053 50 898 -105 q 1208 424 1208 205 q 1053 799 1208 644 q 679 954 898 954 z "},"Ⓝ":{"ha":1357,"x_min":47,"x_max":1310,"o":"m 953 77 q 932 25 953 47 q 873 0 908 0 l 871 0 q 812 25 836 0 q 791 77 791 47 l 791 566 q 753 661 791 622 q 671 697 719 697 q 589 661 623 697 q 551 566 551 622 l 551 77 q 530 25 551 47 q 471 0 506 0 l 469 0 q 411 25 435 0 q 389 77 389 47 l 389 566 q 469 766 389 682 q 671 852 553 852 q 873 766 790 852 q 953 566 953 682 l 953 77 m 679 1055 q 1125 870 940 1055 q 1310 424 1310 686 q 1125 -22 1310 163 q 679 -207 940 -207 q 232 -22 417 -207 q 47 424 47 163 q 232 870 47 686 q 679 1055 417 1055 m 679 954 q 304 799 459 954 q 149 424 149 644 q 304 50 149 205 q 679 -105 459 -105 q 1053 50 898 -105 q 1208 424 1208 205 q 1053 799 1208 644 q 679 954 898 954 z "},"Ⓞ":{"ha":1357,"x_min":47,"x_max":1310,"o":"m 676 852 q 973 724 850 852 q 1093 426 1093 600 q 973 127 1093 252 q 676 0 850 0 q 382 125 502 0 q 260 426 260 252 q 382 726 260 600 q 676 852 502 852 m 676 697 q 498 618 574 697 q 422 426 422 541 q 499 231 422 311 q 676 155 574 155 q 854 231 780 155 q 931 426 931 311 q 856 618 931 541 q 676 697 780 697 m 679 1055 q 1125 870 940 1055 q 1310 424 1310 686 q 1125 -22 1310 163 q 679 -207 940 -207 q 232 -22 417 -207 q 47 424 47 163 q 232 870 47 686 q 679 1055 417 1055 m 679 954 q 304 799 459 954 q 149 424 149 644 q 304 50 149 205 q 679 -105 459 -105 q 1053 50 898 -105 q 1208 424 1208 205 q 1053 799 1208 644 q 679 954 898 954 z "},"Ⓟ":{"ha":1357,"x_min":47,"x_max":1310,"o":"m 578 419 l 705 419 q 794 460 755 419 q 832 558 832 498 q 793 659 832 617 q 705 697 755 697 q 618 659 654 697 q 578 558 578 617 l 578 419 m 578 264 l 578 77 q 557 25 578 47 q 498 0 533 0 l 496 0 q 438 25 462 0 q 416 77 416 47 l 416 558 q 498 764 416 678 q 705 852 584 852 q 910 766 827 852 q 994 558 994 678 q 911 353 994 439 q 705 264 827 264 l 578 264 m 679 1055 q 1125 870 940 1055 q 1310 424 1310 686 q 1125 -22 1310 163 q 679 -207 940 -207 q 232 -22 417 -207 q 47 424 47 163 q 232 870 47 686 q 679 1055 417 1055 m 679 954 q 304 799 459 954 q 149 424 149 644 q 304 50 149 205 q 679 -105 459 -105 q 1053 50 898 -105 q 1208 424 1208 205 q 1053 799 1208 644 q 679 954 898 954 z "},"Ⓠ":{"ha":1357,"x_min":47,"x_max":1310,"o":"m 670 338 q 727 315 705 338 q 751 261 751 291 l 751 165 q 861 247 800 174 q 924 426 924 324 q 849 618 924 541 q 669 697 773 697 q 491 618 567 697 q 416 426 416 541 q 479 247 416 323 q 589 165 539 174 l 589 261 q 610 313 589 291 q 669 338 633 338 l 670 338 m 741 -102 q 1053 50 920 -83 q 1208 424 1208 205 q 1053 799 1208 644 q 679 954 898 954 q 304 799 459 954 q 149 424 149 644 q 304 50 149 205 q 597 -100 429 -75 q 589 -66 589 -83 l 589 7 q 357 145 461 24 q 254 426 254 266 q 375 726 254 600 q 669 852 495 852 q 966 724 844 852 q 1086 426 1086 600 q 983 145 1086 265 q 751 7 878 24 l 751 -66 q 741 -102 751 -85 m 1125 870 q 1217 778 1125 870 q 1310 424 1310 686 q 1125 -22 1310 163 q 679 -207 940 -207 q 232 -22 417 -207 q 47 424 47 163 q 232 870 47 686 q 679 1055 417 1055 q 1125 870 940 1055 z "},"Ⓡ":{"ha":1357,"x_min":47,"x_max":1310,"o":"m 693 452 q 769 485 736 452 q 804 574 804 522 q 769 663 804 627 q 693 696 736 696 l 634 696 q 590 681 606 696 q 572 646 576 666 q 571 628 571 640 l 571 452 l 693 452 m 804 174 q 769 263 804 227 q 702 297 739 295 l 571 297 l 571 77 q 549 23 571 47 q 491 0 526 0 l 490 0 q 431 25 454 0 q 410 77 410 47 l 410 633 q 472 787 410 721 q 627 852 534 852 l 693 852 q 888 768 808 852 q 966 574 966 687 q 886 378 966 461 l 880 375 l 886 370 q 966 174 966 288 l 966 77 q 944 25 966 47 q 886 0 920 0 l 884 0 q 826 25 850 0 q 804 77 804 47 l 804 174 m 679 1055 q 1125 870 940 1055 q 1310 424 1310 686 q 1125 -22 1310 163 q 679 -207 940 -207 q 232 -22 417 -207 q 47 424 47 163 q 232 870 47 686 q 679 1055 417 1055 m 679 954 q 304 799 459 954 q 149 424 149 644 q 304 50 149 205 q 679 -105 459 -105 q 1053 50 898 -105 q 1208 424 1208 205 q 1053 799 1208 644 q 679 954 898 954 z "},"Ⓢ":{"ha":1357,"x_min":47,"x_max":1310,"o":"m 676 699 q 616 670 642 699 q 590 602 590 644 q 630 530 590 553 q 748 489 648 519 q 884 419 840 460 q 947 253 947 359 q 876 76 947 150 q 697 0 802 0 l 503 0 q 446 23 469 0 q 423 77 423 47 l 423 80 q 446 134 423 109 q 503 157 469 157 l 703 157 q 762 182 736 157 q 789 253 789 211 q 747 326 789 300 q 629 371 727 339 q 495 441 537 402 q 431 602 431 501 q 504 781 431 705 q 681 854 575 854 l 818 854 q 876 831 853 854 q 898 778 898 808 l 898 775 q 878 723 898 745 q 818 699 852 699 l 676 699 m 679 1055 q 1125 870 940 1055 q 1310 424 1310 686 q 1125 -22 1310 163 q 679 -207 940 -207 q 232 -22 417 -207 q 47 424 47 163 q 232 870 47 686 q 679 1055 417 1055 m 679 954 q 304 799 459 954 q 149 424 149 644 q 304 50 149 205 q 679 -105 459 -105 q 1053 50 898 -105 q 1208 424 1208 205 q 1053 799 1208 644 q 679 954 898 954 z "},"Ⓣ":{"ha":1357,"x_min":47,"x_max":1310,"o":"m 943 753 q 920 699 943 724 q 862 677 898 677 l 757 677 l 757 56 q 734 3 757 26 q 677 -20 712 -20 l 675 -20 q 618 3 640 -20 q 595 56 595 26 l 595 677 l 490 677 q 431 701 456 677 q 410 753 410 724 l 410 755 q 431 807 410 785 q 490 831 456 831 l 862 831 q 920 809 898 831 q 943 755 943 785 l 943 753 m 679 1055 q 1125 870 940 1055 q 1310 424 1310 686 q 1125 -22 1310 163 q 679 -207 940 -207 q 232 -22 417 -207 q 47 424 47 163 q 232 870 47 686 q 679 1055 417 1055 m 679 954 q 304 799 459 954 q 149 424 149 644 q 304 50 149 205 q 679 -105 459 -105 q 1053 50 898 -105 q 1208 424 1208 205 q 1053 799 1208 644 q 679 954 898 954 z "},"Ⓤ":{"ha":1357,"x_min":47,"x_max":1310,"o":"m 960 286 q 880 86 960 170 q 677 0 797 0 q 476 86 559 0 q 396 286 396 170 l 396 775 q 418 827 396 805 q 476 852 442 852 l 478 852 q 536 827 512 852 q 558 775 558 805 l 558 286 q 595 191 558 230 q 677 155 630 155 q 760 191 726 155 q 798 286 798 230 l 798 775 q 819 827 798 805 q 878 852 843 852 l 880 852 q 938 827 913 852 q 960 775 960 805 l 960 286 m 679 1055 q 1125 870 940 1055 q 1310 424 1310 686 q 1125 -22 1310 163 q 679 -207 940 -207 q 232 -22 417 -207 q 47 424 47 163 q 232 870 47 686 q 679 1055 417 1055 m 679 954 q 304 799 459 954 q 149 424 149 644 q 304 50 149 205 q 679 -105 459 -105 q 1053 50 898 -105 q 1208 424 1208 205 q 1053 799 1208 644 q 679 954 898 954 z "},"Ⓥ":{"ha":1357,"x_min":47,"x_max":1310,"o":"m 679 1055 q 1125 870 940 1055 q 1310 424 1310 686 q 1125 -22 1310 163 q 679 -207 940 -207 q 232 -22 417 -207 q 47 424 47 163 q 232 870 47 686 q 679 1055 417 1055 m 679 954 q 304 799 459 954 q 149 424 149 644 q 304 50 149 205 q 679 -105 459 -105 q 1053 50 898 -105 q 1208 424 1208 205 q 1053 799 1208 644 q 679 954 898 954 m 686 265 l 842 798 q 919 852 860 852 l 922 852 q 989 817 966 852 q 1003 776 1003 798 q 999 752 1003 764 l 790 72 q 686 0 763 0 q 581 72 608 0 l 372 752 q 368 777 368 764 q 380 817 368 798 q 448 852 406 852 l 452 852 q 529 798 511 852 l 686 265 z "},"Ⓦ":{"ha":1357,"x_min":47,"x_max":1310,"o":"m 450 220 q 475 140 450 171 q 534 107 501 107 q 593 140 567 107 q 618 220 618 171 l 618 728 q 636 780 618 758 q 686 804 656 804 l 686 804 q 734 782 716 804 q 753 728 753 758 l 753 220 q 778 140 753 171 q 838 107 804 107 q 897 140 871 107 q 922 220 922 171 l 922 728 q 941 782 922 758 q 989 804 960 804 l 990 804 q 1040 780 1019 804 q 1057 728 1057 758 l 1057 220 q 993 31 1057 111 q 838 -47 930 -47 q 686 20 727 -47 q 534 -47 644 -47 q 378 31 441 -47 q 315 220 315 111 l 315 728 q 332 780 315 758 q 381 804 353 804 l 383 804 q 432 780 412 804 q 450 728 450 758 l 450 220 m 679 1055 q 1125 870 940 1055 q 1310 424 1310 686 q 1125 -22 1310 163 q 679 -207 940 -207 q 232 -22 417 -207 q 47 424 47 163 q 232 870 47 686 q 679 1055 417 1055 m 679 954 q 304 799 459 954 q 149 424 149 644 q 304 50 149 205 q 679 -105 459 -105 q 1053 50 898 -105 q 1208 424 1208 205 q 1053 799 1208 644 q 679 954 898 954 z "},"Ⓧ":{"ha":1357,"x_min":47,"x_max":1310,"o":"m 953 77 q 932 25 953 47 q 873 0 908 0 l 871 0 q 812 25 836 0 q 791 77 791 47 l 791 237 q 753 332 791 293 q 671 369 719 369 q 589 332 623 369 q 551 237 551 293 l 551 77 q 530 25 551 47 q 471 0 506 0 l 469 0 q 411 25 435 0 q 389 77 389 47 l 389 237 q 475 446 389 381 q 389 655 389 511 l 389 775 q 411 827 389 805 q 469 852 435 852 l 471 852 q 530 827 505 852 q 551 775 551 805 l 551 655 q 589 559 551 598 q 671 523 623 523 q 753 559 719 523 q 791 655 791 598 l 791 775 q 812 827 791 805 q 871 852 836 852 l 873 852 q 931 827 907 852 q 953 775 953 805 l 953 655 q 867 446 953 511 q 953 237 953 381 l 953 77 m 679 1055 q 1125 870 940 1055 q 1310 424 1310 686 q 1125 -22 1310 163 q 679 -207 940 -207 q 232 -22 417 -207 q 47 424 47 163 q 232 870 47 686 q 679 1055 417 1055 m 679 954 q 304 799 459 954 q 149 424 149 644 q 304 50 149 205 q 679 -105 459 -105 q 1053 50 898 -105 q 1208 424 1208 205 q 1053 799 1208 644 q 679 954 898 954 z "},"Ⓨ":{"ha":1357,"x_min":47,"x_max":1310,"o":"m 953 540 q 890 359 953 438 q 752 264 825 279 l 752 77 q 730 25 752 47 q 672 0 707 0 l 671 0 q 612 25 635 0 q 590 77 590 47 l 590 264 q 453 359 517 279 q 389 540 389 437 l 389 775 q 411 827 389 805 q 469 852 435 852 l 471 852 q 530 827 505 852 q 551 775 551 805 l 551 540 q 589 444 551 483 q 671 408 623 408 q 753 444 719 408 q 791 540 791 483 l 791 775 q 812 827 791 805 q 871 852 836 852 l 873 852 q 931 827 907 852 q 953 775 953 805 l 953 540 m 679 1055 q 1125 870 940 1055 q 1310 424 1310 686 q 1125 -22 1310 163 q 679 -207 940 -207 q 232 -22 417 -207 q 47 424 47 163 q 232 870 47 686 q 679 1055 417 1055 m 679 954 q 304 799 459 954 q 149 424 149 644 q 304 50 149 205 q 679 -105 459 -105 q 1053 50 898 -105 q 1208 424 1208 205 q 1053 799 1208 644 q 679 954 898 954 z "},"Ⓩ":{"ha":1357,"x_min":47,"x_max":1310,"o":"m 412 775 q 432 827 412 805 q 492 852 457 852 l 807 852 q 897 814 861 851 q 932 726 932 775 q 913 659 932 690 l 576 155 l 862 155 q 921 130 897 155 q 942 78 942 108 l 942 77 q 921 25 942 47 q 862 0 897 0 l 505 0 q 422 41 454 5 q 389 126 389 79 q 404 186 389 157 l 747 697 l 492 697 q 432 722 457 697 q 412 774 412 744 l 412 775 m 679 1055 q 1125 870 940 1055 q 1310 424 1310 686 q 1125 -22 1310 163 q 679 -207 940 -207 q 232 -22 417 -207 q 47 424 47 163 q 232 870 47 686 q 679 1055 417 1055 m 679 954 q 304 799 459 954 q 149 424 149 644 q 304 50 149 205 q 679 -105 459 -105 q 1053 50 898 -105 q 1208 424 1208 205 q 1053 799 1208 644 q 679 954 898 954 z "},"ⓐ":{"ha":1398,"x_min":68,"x_max":1330,"o":"m 699 1059 q 1145 874 960 1059 q 1330 428 1330 690 q 1145 -18 1330 167 q 699 -203 960 -203 q 253 -18 437 -203 q 68 428 68 167 q 253 874 68 690 q 699 1059 437 1059 m 699 958 q 325 803 479 958 q 170 428 170 648 q 325 54 170 209 q 699 -101 479 -101 q 1073 54 918 -101 q 1228 428 1228 209 q 1073 803 1228 648 q 699 958 918 958 m 693 695 q 886 615 806 695 q 966 422 966 535 l 966 206 q 949 166 966 182 q 909 149 932 149 l 907 149 q 867 166 884 149 q 850 206 850 182 q 693 149 796 149 q 499 229 580 149 q 419 422 419 309 q 499 615 419 535 q 693 695 580 695 m 693 579 q 581 533 627 579 q 535 422 535 487 q 581 310 535 356 q 693 265 627 265 q 804 310 758 265 q 850 422 850 356 q 804 533 850 487 q 693 579 758 579 z "},"ⓑ":{"ha":1398,"x_min":68,"x_max":1330,"o":"m 699 1059 q 1145 874 960 1059 q 1330 428 1330 690 q 1145 -18 1330 167 q 699 -203 960 -203 q 253 -18 437 -203 q 68 428 68 167 q 253 874 68 690 q 699 1059 437 1059 m 699 958 q 325 803 479 958 q 170 428 170 648 q 325 54 170 209 q 699 -101 479 -101 q 1073 54 918 -101 q 1228 428 1228 209 q 1073 803 1228 648 q 699 958 918 958 m 713 481 q 601 435 647 481 q 556 324 556 389 q 601 212 556 259 q 713 166 647 166 q 824 212 778 166 q 870 324 870 259 q 824 435 870 389 q 713 481 778 481 m 498 793 q 539 776 522 793 q 556 736 556 759 l 556 551 q 713 598 609 598 q 906 518 826 598 q 986 325 986 438 q 906 132 986 212 q 713 52 826 52 q 520 131 600 52 q 439 324 440 211 l 439 736 q 457 776 439 759 q 497 793 474 793 l 498 793 z "},"ⓒ":{"ha":1398,"x_min":68,"x_max":1330,"o":"m 699 1059 q 1145 874 960 1059 q 1330 428 1330 690 q 1145 -18 1330 167 q 699 -203 960 -203 q 253 -18 437 -203 q 68 428 68 167 q 253 874 68 690 q 699 1059 437 1059 m 699 958 q 325 803 479 958 q 170 428 170 648 q 325 54 170 209 q 699 -101 479 -101 q 1073 54 918 -101 q 1228 428 1228 209 q 1073 803 1228 648 q 699 958 918 958 m 741 695 q 823 683 783 695 q 864 628 864 670 l 864 625 q 840 579 864 596 q 807 568 824 568 q 789 571 798 568 q 741 578 765 578 q 629 532 675 578 q 584 421 584 486 q 629 309 584 355 q 741 263 675 263 q 789 271 765 263 q 807 274 798 274 q 840 262 824 274 q 864 216 864 245 q 823 161 864 174 q 741 149 783 149 q 547 229 628 149 q 467 422 467 309 q 547 615 467 535 q 741 695 628 695 z "},"ⓓ":{"ha":1398,"x_min":68,"x_max":1330,"o":"m 699 1059 q 1145 874 960 1059 q 1330 428 1330 690 q 1145 -18 1330 167 q 699 -203 960 -203 q 253 -18 437 -203 q 68 428 68 167 q 253 874 68 690 q 699 1059 437 1059 m 699 958 q 325 803 479 958 q 170 428 170 648 q 325 54 170 209 q 699 -101 479 -101 q 1073 54 918 -101 q 1228 428 1228 209 q 1073 803 1228 648 q 699 958 918 958 m 659 481 q 547 435 593 481 q 502 324 502 389 q 547 212 502 259 q 659 166 593 166 q 770 212 724 166 q 816 324 816 259 q 770 435 816 389 q 659 481 724 481 m 875 793 q 915 776 898 793 q 932 736 932 759 l 932 324 q 851 131 932 211 q 659 52 771 52 q 465 132 546 52 q 385 325 385 212 q 465 518 385 438 q 659 598 546 598 q 816 551 762 598 l 816 736 q 833 776 816 759 q 873 793 850 793 l 875 793 z "},"ⓔ":{"ha":1398,"x_min":68,"x_max":1330,"o":"m 699 1059 q 1145 874 960 1059 q 1330 428 1330 690 q 1145 -18 1330 167 q 699 -203 960 -203 q 253 -18 437 -203 q 68 428 68 167 q 253 874 68 690 q 699 1059 437 1059 m 699 958 q 325 803 479 958 q 170 428 170 648 q 325 54 170 209 q 699 -101 479 -101 q 1073 54 918 -101 q 1228 428 1228 209 q 1073 803 1228 648 q 699 958 918 958 m 699 578 q 587 532 633 578 q 542 421 542 486 l 542 417 l 807 536 q 699 578 772 578 m 947 536 q 953 512 953 524 q 949 492 953 502 q 918 459 941 469 q 744 381 852 430 q 586 309 609 320 q 699 263 622 263 q 791 293 749 263 q 847 369 831 323 q 902 408 861 408 q 949 384 932 408 q 960 352 960 368 q 956 331 960 342 q 858 200 928 250 q 699 149 787 149 q 505 229 586 149 q 425 422 425 309 q 505 615 425 535 q 699 695 586 695 q 848 651 780 695 q 947 536 915 607 z "},"ⓕ":{"ha":1398,"x_min":68,"x_max":1330,"o":"m 699 1059 q 1145 874 960 1059 q 1330 428 1330 690 q 1145 -18 1330 167 q 699 -203 960 -203 q 253 -18 437 -203 q 68 428 68 167 q 253 874 68 690 q 699 1059 437 1059 m 699 958 q 325 803 479 958 q 170 428 170 648 q 325 54 170 209 q 699 -101 479 -101 q 1073 54 918 -101 q 1228 428 1228 209 q 1073 803 1228 648 q 699 958 918 958 m 782 793 q 823 776 806 793 q 840 736 840 759 l 840 735 q 823 694 840 711 q 782 677 806 677 l 755 677 q 689 650 716 677 q 662 598 663 623 l 782 598 q 823 581 806 598 q 840 541 840 564 l 840 540 q 823 499 840 516 q 782 482 806 482 l 662 482 l 662 109 q 645 69 662 85 q 605 52 628 52 l 603 52 q 563 69 580 52 q 546 109 546 85 l 546 584 q 607 732 547 671 q 755 793 668 793 l 782 793 z "},"ⓖ":{"ha":1398,"x_min":68,"x_max":1330,"o":"m 699 1059 q 1145 874 960 1059 q 1330 428 1330 690 q 1145 -18 1330 167 q 699 -203 960 -203 q 253 -18 437 -203 q 68 428 68 167 q 253 874 68 690 q 699 1059 437 1059 m 699 958 q 325 803 479 958 q 170 428 170 648 q 325 54 170 209 q 699 -101 479 -101 q 1073 54 918 -101 q 1228 428 1228 209 q 1073 803 1228 648 q 699 958 918 958 m 551 239 q 693 167 598 167 q 800 214 752 167 q 850 325 850 261 q 693 246 796 246 q 499 326 580 246 q 419 520 419 407 q 499 713 419 633 q 693 793 580 793 q 885 713 805 793 q 966 521 966 634 l 966 325 q 880 131 966 213 q 693 51 797 51 q 453 175 533 51 q 443 206 443 190 q 447 225 443 215 q 482 261 455 251 l 483 261 q 506 266 495 266 q 551 239 533 266 m 850 522 q 803 632 849 587 q 693 677 757 677 q 581 631 627 677 q 535 520 535 585 q 581 408 535 454 q 693 362 627 362 q 804 408 758 362 q 850 520 850 454 l 850 522 z "},"ⓗ":{"ha":1398,"x_min":68,"x_max":1330,"o":"m 699 1059 q 1145 874 960 1059 q 1330 428 1330 690 q 1145 -18 1330 167 q 699 -203 960 -203 q 253 -18 437 -203 q 68 428 68 167 q 253 874 68 690 q 699 1059 437 1059 m 699 958 q 325 803 479 958 q 170 428 170 648 q 325 54 170 209 q 699 -101 479 -101 q 1073 54 918 -101 q 1228 428 1228 209 q 1073 803 1228 648 q 699 958 918 958 m 522 793 q 562 776 545 793 q 579 736 579 759 l 579 570 q 693 598 617 598 q 855 531 787 598 q 922 369 922 464 l 922 109 q 905 69 922 85 q 865 52 889 52 l 864 52 q 823 69 840 52 q 806 109 806 85 l 806 369 q 773 449 806 416 q 693 482 740 482 q 612 449 645 482 q 579 369 579 416 l 579 109 q 562 69 579 85 q 522 52 545 52 l 521 52 q 480 69 497 52 q 463 109 463 85 l 463 736 q 480 776 463 759 q 521 793 497 793 l 522 793 z "},"ⓘ":{"ha":1398,"x_min":68,"x_max":1330,"o":"m 699 1059 q 1145 874 960 1059 q 1330 428 1330 690 q 1145 -18 1330 167 q 699 -203 960 -203 q 253 -18 437 -203 q 68 428 68 167 q 253 874 68 690 q 699 1059 437 1059 m 699 958 q 325 803 479 958 q 170 428 170 648 q 325 54 170 209 q 699 -101 479 -101 q 1073 54 918 -101 q 1228 428 1228 209 q 1073 803 1228 648 q 699 958 918 958 m 694 598 q 734 581 718 598 q 751 541 751 564 l 751 109 q 734 69 751 85 q 694 52 718 52 l 693 52 q 652 69 669 52 q 635 109 635 85 l 635 541 q 652 581 635 564 q 693 598 669 598 l 694 598 m 693 660 q 646 680 666 660 q 627 727 627 699 q 646 773 627 754 q 693 793 666 793 q 740 773 720 793 q 760 727 760 754 q 740 680 760 699 q 693 660 720 660 z "},"ⓙ":{"ha":1398,"x_min":68,"x_max":1330,"o":"m 699 1059 q 1145 874 960 1059 q 1330 428 1330 690 q 1145 -18 1330 167 q 699 -203 960 -203 q 253 -18 437 -203 q 68 428 68 167 q 253 874 68 690 q 699 1059 437 1059 m 699 958 q 325 803 479 958 q 170 428 170 648 q 325 54 170 209 q 699 -101 479 -101 q 1073 54 918 -101 q 1228 428 1228 209 q 1073 803 1228 648 q 699 958 918 958 m 572 -47 q 532 -30 549 -47 q 515 11 515 -12 l 515 12 q 532 53 515 36 q 572 70 549 70 l 600 70 q 665 97 638 70 q 693 163 692 124 l 693 637 q 709 678 693 661 q 750 695 726 695 l 751 695 q 792 678 775 695 q 809 637 809 661 l 809 163 q 747 15 808 75 q 600 -47 687 -47 l 572 -47 m 750 758 q 703 778 723 758 q 684 825 684 797 q 703 871 684 852 q 750 891 723 891 q 797 871 777 891 q 817 825 817 852 q 797 778 817 797 q 750 758 777 758 z "},"ⓚ":{"ha":1398,"x_min":68,"x_max":1330,"o":"m 699 1059 q 1145 874 960 1059 q 1330 428 1330 690 q 1145 -18 1330 167 q 699 -203 960 -203 q 253 -18 437 -203 q 68 428 68 167 q 253 874 68 690 q 699 1059 437 1059 m 699 958 q 325 803 479 958 q 170 428 170 648 q 325 54 170 209 q 699 -101 479 -101 q 1073 54 918 -101 q 1228 428 1228 209 q 1073 803 1228 648 q 699 958 918 958 m 565 793 q 605 776 588 793 q 622 736 622 759 l 622 407 l 640 407 q 746 447 701 407 q 796 547 790 487 q 815 583 799 569 q 854 598 832 598 l 855 598 q 898 579 880 598 q 913 541 913 563 q 912 535 913 538 q 821 356 901 416 q 898 269 863 331 q 935 133 935 206 l 935 109 q 918 69 935 85 q 877 52 900 52 l 876 52 q 835 69 852 52 q 818 109 818 85 l 818 133 q 772 244 818 198 q 661 289 726 289 l 622 289 l 622 109 q 605 69 622 85 q 565 52 588 52 l 563 52 q 523 69 540 52 q 506 109 506 85 l 506 736 q 523 776 506 759 q 563 793 540 793 l 565 793 z "},"ⓛ":{"ha":1398,"x_min":68,"x_max":1330,"o":"m 699 1059 q 1145 874 960 1059 q 1330 428 1330 690 q 1145 -18 1330 167 q 699 -203 960 -203 q 253 -18 437 -203 q 68 428 68 167 q 253 874 68 690 q 699 1059 437 1059 m 699 958 q 325 803 479 958 q 170 428 170 648 q 325 54 170 209 q 699 -101 479 -101 q 1073 54 918 -101 q 1228 428 1228 209 q 1073 803 1228 648 q 699 958 918 958 m 673 793 q 714 776 697 793 q 731 736 731 759 l 731 109 q 714 69 731 85 q 673 52 697 52 l 672 52 q 632 69 649 52 q 614 109 614 85 l 614 736 q 632 776 614 759 q 672 793 649 793 l 673 793 z "},"ⓜ":{"ha":1398,"x_min":68,"x_max":1330,"o":"m 699 1059 q 1145 874 960 1059 q 1330 428 1330 690 q 1145 -18 1330 167 q 699 -203 960 -203 q 253 -18 437 -203 q 68 428 68 167 q 253 874 68 690 q 699 1059 437 1059 m 699 958 q 325 803 479 958 q 170 428 170 648 q 325 54 170 209 q 699 -101 479 -101 q 1073 54 918 -101 q 1228 428 1228 209 q 1073 803 1228 648 q 699 958 918 958 m 411 206 q 394 166 411 182 q 353 149 376 149 l 352 149 q 311 166 329 149 q 294 206 294 182 l 294 467 q 361 628 294 561 q 523 695 428 695 q 693 620 636 695 q 863 695 750 695 q 1024 628 958 695 q 1091 467 1091 561 l 1091 206 q 1075 166 1091 182 q 1034 149 1058 149 l 1033 149 q 993 166 1009 149 q 976 206 976 182 l 976 467 q 943 546 976 514 q 863 579 910 579 q 784 546 817 579 q 751 467 751 514 l 751 206 q 734 166 751 182 q 694 149 718 149 l 693 149 q 652 166 669 149 q 635 206 635 182 l 635 467 q 602 546 635 514 q 523 579 569 579 q 443 546 476 579 q 411 467 411 514 l 411 206 z "},"ⓝ":{"ha":1398,"x_min":68,"x_max":1330,"o":"m 699 1059 q 1145 874 960 1059 q 1330 428 1330 690 q 1145 -18 1330 167 q 699 -203 960 -203 q 253 -18 437 -203 q 68 428 68 167 q 253 874 68 690 q 699 1059 437 1059 m 699 958 q 325 803 479 958 q 170 428 170 648 q 325 54 170 209 q 699 -101 479 -101 q 1073 54 918 -101 q 1228 428 1228 209 q 1073 803 1228 648 q 699 958 918 958 m 579 206 q 562 166 579 182 q 522 149 545 149 l 521 149 q 480 166 497 149 q 463 206 463 182 l 463 466 q 531 628 463 561 q 693 695 598 695 q 855 628 787 695 q 922 466 922 561 l 922 206 q 905 166 922 182 q 865 149 889 149 l 864 149 q 823 166 840 149 q 806 206 806 182 l 806 466 q 773 546 806 513 q 693 579 740 579 q 612 546 645 579 q 579 466 579 513 l 579 206 z "}}}
